<?xml version="1.0" encoding="UTF-8" standalone="no"?>
<!-- Created with Inkscape (http://www.inkscape.org/) -->

<svg
   width="64.902679"
   height="30.711779"
   viewBox="0 0 64.902679 30.711779"
   version="1.1"
   id="svg5"
   inkscape:version="1.2 (dc2aedaf03, 2022-05-15)"
   sodipodi:docname="Text - Turn this.svg"
   xmlns:inkscape="http://www.inkscape.org/namespaces/inkscape"
   xmlns:sodipodi="http://sodipodi.sourceforge.net/DTD/sodipodi-0.dtd"
   xmlns="http://www.w3.org/2000/svg"
   xmlns:svg="http://www.w3.org/2000/svg">
  <sodipodi:namedview
     id="namedview7"
     pagecolor="#ffffff"
     bordercolor="#000000"
     borderopacity="0.25"
     inkscape:showpageshadow="2"
     inkscape:pageopacity="0.0"
     inkscape:pagecheckerboard="0"
     inkscape:deskcolor="#d1d1d1"
     inkscape:document-units="px"
     showgrid="true"
     inkscape:zoom="4"
     inkscape:cx="0.5"
     inkscape:cy="3.25"
     inkscape:window-width="1920"
     inkscape:window-height="1057"
     inkscape:window-x="-8"
     inkscape:window-y="-8"
     inkscape:window-maximized="1"
     inkscape:current-layer="layer1">
    <inkscape:grid
       type="xygrid"
       id="grid704"
       originx="-8.1466956"
       originy="-223.65083" />
  </sodipodi:namedview>
  <defs
     id="defs2" />
  <g
     inkscape:label="Layer 1"
     inkscape:groupmode="layer"
     id="layer1"
     transform="translate(-401.5441,-230.56036)">
    <g
       id="g696"
       transform="matrix(0.09975471,0,0,0.09974511,383.86208,209.38473)"
       style="stroke:#000000;stroke-width:10.0251;stroke-dasharray:none;stroke-opacity:1">
      <path
         id="rect61"
         style="fill:none;stroke:#000000;stroke-width:10.0251;stroke-dasharray:none;stroke-opacity:1"
         d="M 822.86523,233.08398 V 345.8125 515.1875 H 596.79883 V 345.8125 H 426.67188 V 233.08398 Z" />
    </g>
    <g
       aria-label="Turn this to change
 how fast 
it blinks!"
       transform="matrix(0.15405505,0,0,0.14997863,386.07523,197.70813)"
       id="text279"
       style="font-size:53.3333px;line-height:60.7874px;text-align:end;text-anchor:end;stroke:#000000;stroke-width:0.986722">
      <text
         xml:space="preserve"
         style="font-style:normal;font-variant:normal;font-weight:normal;font-stretch:normal;font-size:53.3333px;font-family:Pacifico;-inkscape-font-specification:Pacifico;text-align:end;text-anchor:end;fill:#000000;stroke:#000000"
         x="525.45966"
         y="266.75525"
         id="text744"
         transform="scale(0.98668089,1.0134989)"><tspan
           sodipodi:role="line"
           id="tspan742"
           x="525.45966"
           y="266.75525">Turn this to change</tspan><tspan
           sodipodi:role="line"
           x="525.45966"
           y="327.54266"
           id="tspan746">how fast</tspan><tspan
           sodipodi:role="line"
           x="525.45966"
           y="388.33005"
           id="tspan748">it blinks!</tspan></text>
    </g>
    <g
       aria-label="Turn this to change  how fast  it blinks!"
       transform="matrix(0.15405505,0,0,0.14997863,386.07523,197.70813)"
       id="text279-2"
       style="font-size:53.3333px;line-height:60.7874px;text-align:end;text-anchor:end;stroke:#000000;stroke-width:0.986722">
      <g
         aria-label="Turn this to change
how fast
it blinks!"
         transform="scale(0.98668089,1.0134989)"
         id="text744-4"
         style="font-family:Pacifico;-inkscape-font-specification:Pacifico">
        <path
           d="m 145.24679,222.48861 q 1.65333,0.32 2.45333,1.12 0.85333,0.8 0.85333,1.86666 0,1.76 -1.01333,2.56 -0.96,0.8 -3.09333,0.64 -4.8,-0.37333 -7.52,-0.48 -2.66666,-0.16 -7.03999,-0.21333 -1.97333,9.81333 -3.62667,19.73332 -0.58666,3.62666 -1.22666,8.42666 -0.64,4.74667 -0.85333,7.68 -0.10667,1.54666 -1.28,2.4 -1.17334,0.8 -2.82667,0.8 -1.76,0 -2.72,-0.85334 -0.96,-0.85333 -0.96,-2.24 0,-1.28 0.37334,-4.21333 0.42666,-2.98666 0.96,-6.23999 0.58666,-3.25333 0.90666,-5.65333 0.58667,-4.05333 1.33333,-8.05333 0.74667,-4 1.49334,-7.57333 0.16,-0.8 0.37333,-1.81333 0.21333,-1.06667 0.48,-2.34667 -5.22666,0.16 -8.21333,0.85333 -2.98666,0.69334 -4.26666,1.97334 -1.22667,1.22666 -1.22667,3.2 0,1.81333 1.06667,3.46666 0.21333,0.37333 0.21333,0.8 0,1.01333 -1.22667,1.92 -1.17333,0.85333 -2.45333,0.85333 -0.90666,0 -1.49333,-0.53333 -1.06667,-0.90667 -1.76,-2.56 -0.69333,-1.70667 -0.69333,-3.84 0,-4.53333 2.93333,-7.25333 2.98666,-2.77333 9.01333,-4.05333 6.07999,-1.28 15.57332,-1.28 5.86666,0 9.33333,0.21334 3.52,0.21333 6.13333,0.69333 z"
           id="path4536" />
        <path
           d="m 143.96678,267.02192 q -2.4,0 -3.94666,-2.18667 -1.49334,-2.24 -1.49334,-5.54666 0,-4 0.53334,-7.30667 0.53333,-3.35999 1.76,-7.09332 0.53333,-1.6 1.49333,-2.29334 0.96,-0.69333 3.04,-0.69333 1.17333,0 1.6,0.37333 0.48,0.37334 0.48,1.12 0,0.42667 -0.58667,2.88 -0.53333,1.97333 -0.85333,3.57333 -1.06667,5.6 -1.06667,7.46666 0,1.12 0.26667,1.6 0.26666,0.42667 0.85333,0.42667 0.8,0 1.97333,-1.6 1.22667,-1.6 2.56,-4.85333 1.38667,-3.25333 2.66667,-7.99999 0.42666,-1.6 1.27999,-2.29334 0.90667,-0.69333 2.66667,-0.69333 1.22667,0 1.70667,0.32 0.48,0.26667 0.48,1.06667 0,1.33333 -1.33334,7.30666 -1.49333,6.82666 -1.49333,8.42666 0,1.01333 0.42667,1.6 0.42666,0.53333 1.12,0.53333 1.06666,0 2.50666,-1.28 1.49333,-1.33333 3.94667,-4.26666 0.63999,-0.74667 1.43999,-0.74667 0.69334,0 1.06667,0.64 0.42667,0.64 0.42667,1.76 0,2.13333 -1.01334,3.30667 -2.29333,2.82666 -4.95999,4.63999 -2.61333,1.81334 -5.97333,1.81334 -2.56,0 -3.78667,-1.97334 -1.17333,-1.97333 -1.17333,-5.54666 -0.90667,3.62666 -2.72,5.6 -1.81333,1.92 -3.89333,1.92 z"
           id="path4538" />
        <path
           d="m 166.95343,267.02192 q -2.02667,0 -2.88,-2.13334 -0.8,-2.13333 -0.8,-6.82666 0,-6.93333 1.97333,-13.17332 0.48,-1.54667 1.54667,-2.24 1.12,-0.74667 3.09333,-0.74667 1.06667,0 1.49333,0.26667 0.42667,0.26666 0.42667,1.01333 0,0.85333 -0.8,3.84 -0.53333,2.13333 -0.85333,3.73333 -0.32,1.6 -0.53334,3.94666 1.76,-4.58666 3.94667,-7.46666 2.18666,-2.88 4.26666,-4.10666 2.13333,-1.22667 3.89333,-1.22667 3.46667,0 3.46667,3.46667 0,0.69333 -0.48,3.35999 -0.42667,2.13334 -0.42667,2.66667 0,1.86666 1.33333,1.86666 1.49334,0 3.84,-2.34666 0.69334,-0.69333 1.44,-0.69333 0.69333,0 1.06667,0.64 0.42666,0.58666 0.42666,1.59999 0,1.97334 -1.06666,3.09334 -1.49333,1.54666 -3.52,2.66666 -1.97333,1.06667 -4.21333,1.06667 -2.82667,0 -4.32,-1.44 -1.44,-1.44 -1.44,-3.89333 0,-0.8 0.16,-1.6 0.10667,-1.06667 0.10667,-1.44 0,-0.85333 -0.58667,-0.85333 -0.8,0 -2.13333,1.81333 -1.28,1.76 -2.56,4.69333 -1.28,2.93333 -2.08,6.18666 -0.58666,2.50667 -1.38666,3.41333 -0.74667,0.85334 -2.4,0.85334 z"
           id="path4540" />
        <path
           d="m 191.22008,267.02192 q -2.02667,0 -2.88,-2.13334 -0.8,-2.13333 -0.8,-6.82666 0,-6.93333 1.97333,-13.17332 0.48,-1.54667 1.54667,-2.24 1.12,-0.74667 3.09333,-0.74667 1.06667,0 1.49333,0.26667 0.42667,0.26666 0.42667,1.01333 0,0.85333 -0.8,3.84 -0.53333,2.13333 -0.85333,3.73333 -0.32,1.6 -0.53333,3.94666 1.75999,-4.58666 3.94666,-7.46666 2.18666,-2.88 4.26666,-4.10666 2.13334,-1.22667 3.89333,-1.22667 1.70667,0 2.56,0.90667 0.90667,0.85333 0.90667,2.56 0,1.38666 -0.58667,5.22666 -0.53333,3.25333 -0.85333,6.18666 -0.32,2.88 -0.32,6.45333 0,2.02667 -0.85333,2.93333 -0.8,0.85334 -2.66667,0.85334 -1.76,0 -2.56,-0.90667 -0.8,-0.90667 -0.8,-2.72 0,-2.13333 0.74667,-7.03999 0.64,-4.26667 0.64,-5.44 0,-0.85333 -0.58667,-0.85333 -0.69333,0 -1.97333,1.81333 -1.22666,1.76 -2.56,4.69333 -1.28,2.93333 -2.08,6.18666 -0.58666,2.50667 -1.38666,3.41333 -0.74667,0.85334 -2.4,0.85334 z"
           id="path4542" />
        <path
           d="m 251.16663,254.86192 q 0.69333,0 1.06667,0.64 0.42666,0.64 0.42666,1.76 0,2.13333 -1.01333,3.30667 -2.29333,2.82666 -5.01333,4.63999 -2.72,1.81334 -6.24,1.81334 -10.87999,0 -10.87999,-15.30666 0,-2.34667 0.16,-4.74667 h -2.08 q -1.6,0 -2.18666,-0.58666 -0.53334,-0.58667 -0.53334,-1.86667 0,-2.98666 2.4,-2.98666 h 3.04 q 0.90667,-5.86667 2.77333,-10.72 1.86667,-4.85333 4.48,-7.73332 2.66667,-2.88 5.70666,-2.88 2.24,0 3.52,1.97333 1.28,1.97333 1.28,4.96 0,8.26666 -6.93333,14.39999 h 5.97333 q 0.85333,0 1.22667,0.37333 0.37333,0.37333 0.37333,1.38667 0,3.67999 -6.02666,3.67999 h -6.50667 q -0.10666,2.66667 -0.10666,4.16 0,5.54667 1.28,7.78666 1.33333,2.24 4.15999,2.24 2.29334,0 4.05334,-1.38666 1.75999,-1.38667 4.15999,-4.16 0.64,-0.74667 1.44,-0.74667 z m -9.33333,-29.54665 q -0.8,0 -1.81333,2.02667 -0.96,1.97333 -1.86666,5.54666 -0.85334,3.52 -1.44,7.84 3.14666,-2.72 4.69333,-6.08 1.6,-3.41333 1.6,-6.18666 0,-3.14667 -1.17334,-3.14667 z"
           id="path4544" />
        <path
           d="m 277.93994,254.86192 q 0.69333,0 1.06666,0.64 0.42667,0.64 0.42667,1.76 0,2.13333 -1.01333,3.30667 -2.45333,2.82666 -5.06667,4.63999 -2.55999,1.81334 -5.86666,1.81334 -2.72,0 -4.10666,-1.54667 -1.38667,-1.6 -1.38667,-4.58666 0,-1.49334 0.74667,-5.33333 0.69333,-3.36 0.69333,-4.64 0,-0.85333 -0.58667,-0.85333 -0.69333,0 -1.97333,1.81333 -1.28,1.76 -2.56,4.69333 -1.28,2.93333 -2.08,6.18666 -1.01333,4.26667 -5.01333,4.26667 -1.6,0 -2.13333,-1.12 -0.48,-1.17334 -0.48,-4.16 0,-1.70667 0.0533,-2.72 l 0.0533,-4.26666 q 0,-8.21333 1.65333,-17.11999 1.70667,-8.90666 4.96,-14.93333 3.30666,-6.07999 7.89333,-6.07999 2.45333,0 3.94666,2.13333 1.54667,2.08 1.54667,5.43999 0,5.38667 -3.14667,11.2 -3.14666,5.75999 -10.23999,13.49332 -0.16,2.77333 -0.16,5.70667 1.76,-4.53333 3.89333,-7.36 2.18666,-2.88 4.26666,-4.10666 2.13334,-1.22667 3.89333,-1.22667 3.46667,0 3.46667,3.46667 0,2.07999 -1.17333,7.51999 -1.01334,4.64 -1.01334,6.13333 0,2.13333 1.54667,2.13333 1.06667,0 2.50666,-1.28 1.49334,-1.33333 3.94667,-4.26666 0.64,-0.74667 1.44,-0.74667 z m -15.83999,-32.95998 q -0.96,0 -2.13333,2.77333 -1.17334,2.72 -2.29334,7.41333 -1.06666,4.64 -1.76,10.13333 3.30667,-3.89333 5.44,-8.47999 2.18667,-4.58667 2.18667,-8.32 0,-1.70667 -0.37334,-2.61333 -0.37333,-0.90667 -1.06666,-0.90667 z"
           id="path4546" />
        <path
           d="m 282.09998,238.38193 q -2.24,0 -3.36,-1.01333 -1.12,-1.06667 -1.12,-2.93333 0,-1.86667 1.44,-3.09333 1.49333,-1.28 3.68,-1.28 1.97333,0 3.2,0.96 1.22666,0.96 1.22666,2.72 0,2.13333 -1.38666,3.41333 -1.38667,1.22666 -3.68,1.22666 z m -0.42667,28.63999 q -3.46666,0 -5.06666,-2.45334 -1.54667,-2.45333 -1.54667,-6.50666 0,-2.4 0.58667,-6.13333 0.64,-3.78666 1.6,-7.03999 0.48,-1.70667 1.28,-2.34667 0.8,-0.64 2.56,-0.64 2.71999,0 2.71999,1.81333 0,1.33334 -1.01333,6.18667 -1.28,5.86666 -1.28,7.94666 0,1.6 0.42667,2.45333 0.42667,0.85333 1.44,0.85333 0.96,0 2.4,-1.33333 1.44,-1.33333 3.83999,-4.21333 0.64,-0.74667 1.44,-0.74667 0.69334,0 1.06667,0.64 0.42667,0.64 0.42667,1.76 0,2.13333 -1.01334,3.30667 -5.27999,6.45333 -9.86666,6.45333 z"
           id="path4548" />
        <path
           d="m 298.15332,268.19525 q -2.77333,0 -4.26666,-1.28 -1.44,-1.28 -1.44,-2.88 0,-1.38667 1.01333,-2.4 1.01333,-1.01333 2.98667,-1.01333 0.69333,0 1.59999,0.16 0.96,0.10667 1.44,0.16 -0.0533,-1.38667 -0.64,-2.61333 -0.53333,-1.22667 -1.38666,-2.34667 -0.85333,-1.17333 -1.6,-2.02666 -1.65333,3.14666 -3.30667,5.22666 -1.59999,2.08 -3.51999,3.94666 -0.96,0.96 -2.02667,0.96 -0.85333,0 -1.38666,-0.58666 -0.53334,-0.64 -0.53334,-1.54667 0,-1.06666 0.74667,-1.97333 l 0.69333,-0.85333 q 2.93333,-3.62667 4.42667,-5.97333 0.95999,-1.54667 1.91999,-3.68 1.01334,-2.13333 2.61334,-5.81333 1.01333,-2.34667 4.21333,-2.34667 1.49333,0 2.08,0.26667 0.58666,0.26667 0.58666,0.85333 0,0.32 -0.21333,1.01334 -0.21333,0.69333 -0.58667,1.38666 -0.96,1.92 -0.96,3.25333 0,0.8 0.53334,1.76 0.58666,0.96 1.76,2.4 1.70666,2.24 2.55999,3.84 0.90667,1.54666 0.90667,3.41333 0,2.24 -1.06667,4.26666 -1.01333,1.97334 -2.87999,3.2 -1.86667,1.22667 -4.26667,1.22667 z"
           id="path4550" />
        <path
           d="m 347.16654,254.86192 q 0.69333,0 1.06667,0.64 0.42666,0.64 0.42666,1.76 0,2.13333 -1.01333,3.30667 -2.29333,2.82666 -5.01333,4.63999 -2.72,1.81334 -6.24,1.81334 -10.87999,0 -10.87999,-15.30666 0,-2.34667 0.16,-4.74667 h -2.08 q -1.6,0 -2.18666,-0.58666 -0.53334,-0.58667 -0.53334,-1.86667 0,-2.98666 2.4,-2.98666 h 3.04 q 0.90667,-5.86667 2.77333,-10.72 1.86667,-4.85333 4.48,-7.73332 2.66666,-2.88 5.70666,-2.88 2.24,0 3.52,1.97333 1.28,1.97333 1.28,4.96 0,8.26666 -6.93333,14.39999 h 5.97333 q 0.85333,0 1.22667,0.37333 0.37333,0.37333 0.37333,1.38667 0,3.67999 -6.02666,3.67999 h -6.50667 q -0.10666,2.66667 -0.10666,4.16 0,5.54667 1.28,7.78666 1.33333,2.24 4.15999,2.24 2.29333,0 4.05333,-1.38666 1.76,-1.38667 4.16,-4.16 0.64,-0.74667 1.44,-0.74667 z m -9.33333,-29.54665 q -0.8,0 -1.81333,2.02667 -0.96,1.97333 -1.86667,5.54666 -0.85333,3.52 -1.43999,7.84 3.14666,-2.72 4.69333,-6.08 1.6,-3.41333 1.6,-6.18666 0,-3.14667 -1.17334,-3.14667 z"
           id="path4552" />
        <path
           d="m 353.35318,267.02192 q -3.14667,0 -5.38667,-1.54667 -2.18666,-1.6 -3.30666,-4.16 -1.12,-2.56 -1.12,-5.49333 0,-4.05333 1.49333,-7.19999 1.54667,-3.2 4.16,-4.96 2.61333,-1.81333 5.86666,-1.81333 3.14667,0 5.38667,1.6 2.23999,1.54666 3.35999,4.10666 1.12,2.56 1.12,5.49333 0,4.05333 -1.54666,7.25333 -1.54667,3.14666 -4.21333,4.96 -2.61334,1.76 -5.81333,1.76 z m 0.58666,-5.76 q 1.81334,0 3.04,-1.97333 1.28,-1.97334 1.28,-5.76 0,-2.93333 -1.06667,-4.42666 -1.06666,-1.49334 -2.55999,-1.49334 -1.92,0 -3.2,1.97334 -1.22667,1.91999 -1.22667,5.75999 0,3.04 1.06667,4.48 1.06666,1.44 2.66666,1.44 z"
           id="path4554" />
        <path
           d="m 392.81974,267.02192 q -5.22667,0 -8.16,-2.93334 -2.88,-2.98666 -2.88,-7.83999 0,-4.32 1.70667,-7.57333 1.70667,-3.25333 4.42666,-5.01333 2.72,-1.76 5.70667,-1.76 2.93333,0 4.53333,1.76 1.65333,1.70667 1.65333,4.42666 0,2.24 -1.01333,3.78667 -0.96,1.54666 -2.56,1.54666 -1.01333,0 -1.65333,-0.48 -0.58667,-0.48 -0.58667,-1.33333 0,-0.37333 0.10667,-0.85333 0.10666,-0.48 0.16,-0.69333 0.26666,-0.8 0.26666,-1.49334 0,-0.69333 -0.37333,-1.06666 -0.32,-0.37334 -0.96,-0.37334 -1.22667,0 -2.29333,1.12 -1.06667,1.06667 -1.70667,2.93333 -0.64,1.86667 -0.64,4.10667 0,6.18666 5.38667,6.18666 2.18666,0 4.69333,-1.44 2.56,-1.49333 5.01333,-4.42666 0.64,-0.74667 1.44,-0.74667 0.69333,0 1.06666,0.64 0.42667,0.64 0.42667,1.76 0,2.02667 -1.01333,3.30667 -2.50667,3.09333 -6.02667,4.79999 -3.46666,1.65334 -6.71999,1.65334 z"
           id="path4556" />
        <path
           d="m 431.85974,254.86192 q 0.69333,0 1.06666,0.64 0.42667,0.64 0.42667,1.76 0,2.13333 -1.01333,3.30667 -2.45333,2.82666 -5.06667,4.63999 -2.55999,1.81334 -5.86666,1.81334 -2.72,0 -4.10666,-1.54667 -1.38667,-1.6 -1.38667,-4.58666 0,-1.49334 0.74667,-5.33333 0.69333,-3.36 0.69333,-4.64 0,-0.85333 -0.58667,-0.85333 -0.69333,0 -1.97333,1.81333 -1.28,1.76 -2.56,4.69333 -1.28,2.93333 -2.08,6.18666 -1.01333,4.26667 -5.01333,4.26667 -1.6,0 -2.13333,-1.12 -0.48,-1.17334 -0.48,-4.16 0,-1.70667 0.0533,-2.72 l 0.0533,-4.26666 q 0,-8.21333 1.65333,-17.11999 1.70667,-8.90666 4.96,-14.93333 3.30666,-6.07999 7.89333,-6.07999 2.45333,0 3.94666,2.13333 1.54667,2.08 1.54667,5.43999 0,5.38667 -3.14667,11.2 -3.14666,5.75999 -10.23999,13.49332 -0.16,2.77333 -0.16,5.70667 1.76,-4.53333 3.89333,-7.36 2.18666,-2.88 4.26666,-4.10666 2.13334,-1.22667 3.89333,-1.22667 3.46667,0 3.46667,3.46667 0,2.07999 -1.17333,7.51999 -1.01334,4.64 -1.01334,6.13333 0,2.13333 1.54667,2.13333 1.06667,0 2.50666,-1.28 1.49334,-1.33333 3.94667,-4.26666 0.64,-0.74667 1.44,-0.74667 z m -15.83999,-32.95998 q -0.96,0 -2.13333,2.77333 -1.17334,2.72 -2.29334,7.41333 -1.06666,4.64 -1.76,10.13333 3.30667,-3.89333 5.44,-8.47999 2.18667,-4.58667 2.18667,-8.32 0,-1.70667 -0.37334,-2.61333 -0.37333,-0.90667 -1.06666,-0.90667 z"
           id="path4558" />
        <path
           d="m 435.5931,267.02192 q -3.30667,0 -5.28,-2.4 -1.97333,-2.4 -1.97333,-6.29333 0,-4.26667 1.97333,-8.05333 1.97333,-3.84 5.22666,-6.13333 3.30667,-2.34667 6.98667,-2.34667 1.17333,0 1.54666,0.48 0.42667,0.42667 0.69334,1.6 1.11999,-0.21333 2.34666,-0.21333 2.61333,0 2.61333,1.86667 0,1.11999 -0.8,5.33333 -1.22666,6.13332 -1.22666,8.53332 0,0.8 0.37333,1.28 0.42667,0.48 1.06667,0.48 1.01333,0 2.45333,-1.28 1.44,-1.33333 3.89333,-4.26666 0.64,-0.74667 1.44,-0.74667 0.69333,0 1.06666,0.64 0.42667,0.64 0.42667,1.76 0,2.13333 -1.01333,3.30667 -2.18667,2.71999 -4.64,4.58666 -2.45333,1.86667 -4.74666,1.86667 -1.76,0 -3.25333,-1.17334 -1.44,-1.22666 -2.18667,-3.30666 -2.77333,4.48 -6.98666,4.48 z m 1.92,-5.38667 q 1.17333,0 2.23999,-1.38666 1.06667,-1.38667 1.54667,-3.68 l 1.97333,-9.81333 q -2.24,0.0533 -4.15999,1.70667 -1.86667,1.6 -2.98667,4.26666 -1.12,2.66667 -1.12,5.65333 0,1.65333 0.64,2.45333 0.69333,0.8 1.86667,0.8 z"
           id="path4560" />
        <path
           d="m 457.88639,267.02192 q -2.02667,0 -2.88,-2.13334 -0.8,-2.13333 -0.8,-6.82666 0,-6.93333 1.97333,-13.17332 0.48,-1.54667 1.54667,-2.24 1.12,-0.74667 3.09333,-0.74667 1.06666,0 1.49333,0.26667 0.42667,0.26666 0.42667,1.01333 0,0.85333 -0.8,3.84 -0.53334,2.13333 -0.85334,3.73333 -0.32,1.6 -0.53333,3.94666 1.76,-4.58666 3.94667,-7.46666 2.18666,-2.88 4.26666,-4.10666 2.13333,-1.22667 3.89333,-1.22667 3.46666,0 3.46666,3.46667 0,2.07999 -1.17333,7.51999 -1.01333,4.64 -1.01333,6.13333 0,2.13333 1.54667,2.13333 1.06666,0 2.50666,-1.28 1.49333,-1.33333 3.94666,-4.26666 0.64,-0.74667 1.44,-0.74667 0.69334,0 1.06667,0.64 0.42667,0.64 0.42667,1.76 0,2.13333 -1.01334,3.30667 -2.29333,2.82666 -4.95999,4.63999 -2.61334,1.81334 -5.97333,1.81334 -2.72,0 -4.10667,-1.54667 -1.38666,-1.6 -1.38666,-4.58666 0,-1.49334 0.74666,-5.33333 0.69334,-3.36 0.69334,-4.64 0,-0.85333 -0.58667,-0.85333 -0.69333,0 -1.97333,1.81333 -1.22667,1.76 -2.56,4.69333 -1.28,2.93333 -2.08,6.18666 -0.58667,2.50667 -1.38667,3.41333 -0.74666,0.85334 -2.39999,0.85334 z"
           id="path4562" />
        <path
           d="m 507.85971,254.96859 q 0.69333,0 1.06667,0.69333 0.42666,0.64 0.42666,1.65333 0,1.22667 -0.37333,1.92 -0.37333,0.69334 -1.17333,1.22667 -4.58667,3.09333 -6.72,4.58666 l -3.41333,2.29334 q -2.02667,11.03999 -5.33333,17.33332 -3.25333,6.34666 -8.32,6.34666 -2.71999,0 -4.42666,-1.70666 -1.70667,-1.65334 -1.70667,-4.37334 0,-3.78666 2.98667,-8.15999 2.98666,-4.32 11.19999,-10.66666 l 0.32,-2.08 q -0.90666,1.44 -2.4,2.24 -1.43999,0.74667 -2.87999,0.74667 -3.30667,0 -5.28,-2.4 -1.97333,-2.4 -1.97333,-6.29333 0,-4.26667 1.97333,-8.05333 1.97333,-3.84 5.22666,-6.13333 3.30667,-2.34667 6.98667,-2.34667 1.17333,0 1.54666,0.48 0.42667,0.42667 0.69333,1.6 1.01334,-0.21333 2.34667,-0.21333 1.33333,0 1.86666,0.42667 0.58667,0.37333 0.58667,1.54666 0,0.64 -0.0533,1.01333 -0.21334,1.65334 -1.33333,8.37333 -0.21334,1.28 -0.48,2.82667 -0.21334,1.49333 -0.48,3.2 4.10666,-3.2 7.89332,-5.65333 0.69334,-0.42667 1.22667,-0.42667 z m -18.82666,6.66666 q 1.22667,0 2.34667,-1.49333 1.12,-1.49333 1.6,-4.26666 l 1.70666,-9.12 q -2.18666,0.0533 -4.05333,1.70667 -1.86666,1.6 -2.98666,4.26666 -1.12,2.66667 -1.12,5.65333 0,1.65333 0.64,2.45333 0.69333,0.8 1.86666,0.8 z m -4.42666,24.21332 q 1.33333,0 2.98667,-3.2 1.70666,-3.2 3.25333,-10.18666 -4.10667,3.52 -5.92,6.34667 -1.81333,2.82666 -1.81333,4.95999 0,0.90667 0.32,1.49333 0.37333,0.58667 1.17333,0.58667 z"
           id="path4564" />
        <path
           d="m 525.19304,256.46192 q 0.69334,0 1.06667,0.64 0.42667,0.64 0.42667,1.76 0,1.92 -0.90667,3.30667 -1.49333,2.29333 -3.94666,3.57333 -2.4,1.28 -5.76,1.28 -5.12,0 -7.94666,-3.04 -2.82667,-3.09333 -2.82667,-8.32 0,-3.68 1.54667,-6.82666 1.54666,-3.2 4.26666,-5.06666 2.77333,-1.86667 6.24,-1.86667 3.09333,0 4.95999,1.86667 1.86667,1.81333 1.86667,4.95999 0,3.68 -2.66666,6.34667 -2.61334,2.61333 -8.96,4.15999 1.28,2.45334 4.32,2.45334 2.18666,0 3.57333,-1.01334 1.44,-1.01333 3.30666,-3.41333 0.64,-0.8 1.44,-0.8 z m -8.74666,-9.33333 q -1.97333,0 -3.36,2.29334 -1.33333,2.29333 -1.33333,5.54666 v 0.10667 q 3.14667,-0.74667 4.96,-2.24 1.81333,-1.49334 1.81333,-3.46667 0,-1.01333 -0.58667,-1.6 -0.53333,-0.64 -1.49333,-0.64 z"
           id="path4566" />
        <path
           d="m 367.75301,315.64932 q 0.69333,0 1.06667,0.64 0.42666,0.64 0.42666,1.76 0,2.13333 -1.01333,3.30667 -2.45333,2.82666 -5.06666,4.63999 -2.56,1.81334 -5.86667,1.81334 -2.72,0 -4.10666,-1.54667 -1.38667,-1.6 -1.38667,-4.58666 0,-1.49334 0.74667,-5.33333 0.69333,-3.36 0.69333,-4.64 0,-0.85333 -0.58666,-0.85333 -0.69334,0 -1.97334,1.81333 -1.28,1.76 -2.56,4.69333 -1.27999,2.93333 -2.07999,6.18666 -1.01334,4.26667 -5.01333,4.26667 -1.6,0 -2.13334,-1.12 -0.48,-1.17334 -0.48,-4.16 0,-1.70667 0.0533,-2.72 l 0.0533,-4.26666 q 0,-8.21333 1.65333,-17.11999 1.70667,-8.90667 4.96,-14.93333 3.30666,-6.07999 7.89333,-6.07999 2.45333,0 3.94666,2.13333 1.54667,2.08 1.54667,5.43999 0,5.38667 -3.14667,11.2 -3.14666,5.75999 -10.23999,13.49332 -0.16,2.77333 -0.16,5.70667 1.76,-4.53333 3.89333,-7.36 2.18667,-2.88 4.26667,-4.10666 2.13333,-1.22667 3.89333,-1.22667 3.46666,0 3.46666,3.46667 0,2.07999 -1.17333,7.51999 -1.01333,4.64 -1.01333,6.13333 0,2.13333 1.54666,2.13333 1.06667,0 2.50667,-1.28 1.49333,-1.33333 3.94666,-4.26666 0.64,-0.74667 1.44,-0.74667 z m -15.83999,-32.95998 q -0.96,0 -2.13333,2.77333 -1.17334,2.72 -2.29333,7.41333 -1.06667,4.64 -1.76,10.13333 3.30666,-3.89333 5.43999,-8.47999 2.18667,-4.58667 2.18667,-8.32 0,-1.70667 -0.37333,-2.61333 -0.37334,-0.90667 -1.06667,-0.90667 z"
           id="path4568" />
        <path
           d="m 392.12637,311.16933 q 0.69334,0 1.06667,0.69333 0.37333,0.69333 0.37333,1.76 0,2.56 -1.54666,3.04 -3.2,1.11999 -7.04,1.27999 -1.01333,4.48 -4,7.2 -2.98666,2.66667 -6.77333,2.66667 -3.19999,0 -5.49333,-1.54667 -2.24,-1.54667 -3.41333,-4.10666 -1.17333,-2.56 -1.17333,-5.54667 0,-4.05333 1.54666,-7.19999 1.54667,-3.2 4.26667,-4.96 2.72,-1.81333 6.02666,-1.81333 4.05333,0 6.50666,2.82666 2.50667,2.77333 2.93334,6.88 2.50666,-0.16 5.97333,-1.06667 0.42666,-0.10666 0.74666,-0.10666 z m -17.49332,10.98666 q 1.70667,0 2.93333,-1.38667 1.28,-1.38667 1.70667,-4 -1.65334,-1.12 -2.56,-2.93333 -0.85333,-1.81333 -0.85333,-3.84 0,-0.85333 0.16,-1.70666 h -0.26667 q -2.13333,0 -3.57333,2.08 -1.38667,2.02666 -1.38667,5.75999 0,2.93333 1.12,4.48 1.17333,1.54667 2.72,1.54667 z"
           id="path4570" />
        <path
           d="m 421.45971,302.636 q 2.93334,0 2.93334,1.86666 0,0.64 -0.42667,1.76 -4.32,10.08 -8.16,16.26666 -1.91999,3.04 -3.46666,4.16 -1.54667,1.12 -3.52,1.12 -2.13333,0 -3.2,-1.65334 -1.01333,-1.65333 -1.28,-5.43999 -0.10666,-1.38667 -0.21333,-4.16 -1.65333,4.58666 -3.04,7.03999 -1.33333,2.4 -2.66666,3.30667 -1.28,0.90667 -3.09333,0.90667 -2.18667,0 -3.46667,-1.70667 -1.22666,-1.70667 -1.54666,-5.38666 -0.64,-7.46667 -0.64,-13.06666 v -1.86667 q 0.0533,-1.81333 0.90666,-2.45333 0.85334,-0.69333 2.77333,-0.69333 1.38667,0 2.02667,0.64 0.69333,0.58666 0.69333,2.02666 0,6.13333 0.74667,15.94666 1.76,-3.73333 3.25333,-7.14666 1.49333,-3.41333 3.46666,-8.74666 0.58667,-1.6 1.38667,-2.13334 0.85333,-0.58666 1.97333,-0.58666 1.49334,0 2.24,0.64 0.74667,0.58666 0.74667,2.02666 v 8.26666 q 0,5.33333 0.0533,7.68 2.45333,-4.26666 4,-7.41333 1.6,-3.14666 3.57333,-8.47999 0.58667,-1.6 1.54667,-2.13334 0.95999,-0.58666 2.39999,-0.58666 z"
           id="path4572" />
        <path
           d="m 460.44634,312.60932 q 1.49334,0 1.49334,2.24 0,4.21333 -6.61333,4.21333 -1.28,0 -3.68,-0.48 0.69333,3.30667 1.12,7.36 0.48,4 0.48,6.61333 0,5.76 -1.86667,8.79999 -1.86666,3.04 -4.90666,3.04 -3.84,0 -5.49333,-5.43999 -1.6,-5.44 -1.6,-16.42666 0,-10.24 2.18666,-20.74666 2.24,-10.55999 6.08,-17.43999 3.89333,-6.93332 8.53333,-6.93332 2.50666,0 3.89333,2.23999 1.44,2.24 1.44,6.02667 0,12.53332 -14.98666,27.30665 -0.53333,5.22666 -0.53333,9.17333 0,5.49333 0.37333,11.25332 0.37333,5.81333 1.22667,5.81333 1.6,0 1.6,-5.54666 0,-4.16 -0.58667,-8.05333 -0.53333,-3.89333 -1.49333,-8.21333 -0.0533,-0.69333 0.42666,-1.76 0.53334,-1.06666 1.28,-1.86666 0.74667,-0.8 1.33334,-0.8 1.06666,0 2.55999,0.10666 0.48,0.0533 1.12,0.0533 2.13334,0 4.74667,-0.37334 0.42666,-0.0533 0.90666,-0.10666 0.48,-0.0533 0.96,-0.0533 z m -5.38666,-29.91998 q -0.96,0 -2.4,3.25333 -1.38666,3.25334 -2.77333,8.64 -1.38667,5.33333 -2.4,11.30666 4.26667,-4.85333 6.56,-10.08 2.29333,-5.27999 2.34666,-9.86666 0,-3.25333 -1.33333,-3.25333 z"
           id="path4574" />
        <path
           d="m 464.71305,327.80932 q -3.30666,0 -5.27999,-2.4 -1.97333,-2.4 -1.97333,-6.29333 0,-4.26667 1.97333,-8.05333 1.97333,-3.84 5.22666,-6.13333 3.30667,-2.34667 6.98666,-2.34667 1.17334,0 1.54667,0.48 0.42667,0.42667 0.69333,1.6 1.12,-0.21333 2.34667,-0.21333 2.61333,0 2.61333,1.86666 0,1.12 -0.8,5.33334 -1.22667,6.13332 -1.22667,8.53332 0,0.8 0.37334,1.28 0.42666,0.48 1.06666,0.48 1.01334,0 2.45333,-1.28 1.44,-1.33333 3.89334,-4.26666 0.64,-0.74667 1.43999,-0.74667 0.69334,0 1.06667,0.64 0.42667,0.64 0.42667,1.76 0,2.13333 -1.01334,3.30667 -2.18666,2.71999 -4.63999,4.58666 -2.45333,1.86667 -4.74667,1.86667 -1.76,0 -3.25333,-1.17334 -1.44,-1.22666 -2.18666,-3.30666 -2.77334,4.48 -6.98667,4.48 z m 1.92,-5.38667 q 1.17334,0 2.24,-1.38666 1.06667,-1.38667 1.54667,-3.68 l 1.97333,-9.81333 q -2.24,0.0533 -4.16,1.70667 -1.86666,1.6 -2.98666,4.26666 -1.12,2.66667 -1.12,5.65333 0,1.65333 0.64,2.45333 0.69333,0.8 1.86666,0.8 z"
           id="path4576" />
        <path
           d="m 493.13967,328.98265 q -2.77333,0 -4.26666,-1.28 -1.44,-1.28 -1.44,-2.88 0,-1.38667 1.01333,-2.4 1.01333,-1.01333 2.98667,-1.01333 0.69333,0 1.6,0.16 0.95999,0.10667 1.43999,0.16 -0.0533,-1.38667 -0.64,-2.61333 -0.53333,-1.22667 -1.38666,-2.34667 -0.85333,-1.17333 -1.6,-2.02666 -1.65333,3.14666 -3.30666,5.22666 -1.6,2.08 -3.52,3.94666 -0.96,0.96 -2.02667,0.96 -0.85333,0 -1.38666,-0.58666 -0.53334,-0.64 -0.53334,-1.54667 0,-1.06666 0.74667,-1.97333 l 0.69333,-0.85333 q 2.93333,-3.62667 4.42667,-5.97333 0.90666,-1.54667 2.13333,-4.10667 1.22666,-2.61333 2.4,-5.38666 1.01333,-2.34667 4.21333,-2.34667 1.49333,0 2.08,0.26667 0.58666,0.26667 0.58666,0.85333 0,0.32 -0.21333,1.01334 -0.21333,0.69333 -0.58667,1.38666 -0.96,1.92 -0.96,3.25333 0,0.8 0.53334,1.76 0.58666,0.96 1.76,2.4 1.70666,2.24 2.55999,3.84 0.90667,1.54666 0.90667,3.41333 0,0.53333 -0.10667,1.49333 2.61334,-1.01333 6.13333,-5.38666 0.64,-0.74667 1.44,-0.74667 0.69334,0 1.06667,0.64 0.42667,0.64 0.42667,1.76 0,2.02667 -1.01334,3.30667 -2.66666,3.30666 -5.11999,4.53333 -2.4,1.17333 -5.97333,1.28 -2.13334,1.81333 -5.06667,1.81333 z"
           id="path4578" />
        <path
           d="m 514.79299,307.75599 q -0.10667,2.66667 -0.10667,4.16 0,3.84 0.37333,6.02666 0.42667,2.13334 1.33334,3.09334 0.96,0.90666 2.61333,0.90666 0.85333,0 2.02666,-0.53333 1.17334,-0.53333 2.13334,-1.38667 0.58666,-0.53333 1.17333,-0.53333 0.64,0 1.01333,0.74667 0.42667,0.69333 0.42667,1.70666 0,1.01334 -0.42667,1.97333 -0.37333,0.96 -1.17333,1.6 -2.77333,2.29334 -6.29333,2.29334 -5.06666,0 -7.41333,-4.21334 -2.34666,-4.26666 -2.34666,-11.09332 0,-2.34667 0.16,-4.74667 h -2.08 q -1.6,0 -2.18667,-0.58666 -0.53333,-0.58667 -0.53333,-1.86667 0,-2.98666 2.4,-2.98666 h 3.03999 q 0.90667,-5.86667 2.77334,-10.72 1.86666,-4.85333 4.47999,-7.73333 2.66667,-2.87999 5.70667,-2.87999 2.24,0 3.52,1.97333 1.27999,1.97333 1.27999,4.96 0,8.26666 -6.93332,14.39999 h 5.97332 q 0.85334,0 1.22667,0.37333 0.37333,0.37333 0.37333,1.38667 0,3.67999 -6.02666,3.67999 z m 5.65333,-21.65332 q -0.8,0 -1.81333,2.02667 -0.96,1.97333 -1.86667,5.54666 -0.85333,3.52 -1.44,7.84 3.14667,-2.72 4.69333,-6.08 1.6,-3.41333 1.6,-6.18666 0,-3.14667 -1.17333,-3.14667 z"
           id="path4580" />
        <path
           d="m 334.79312,359.95673 q -2.24,0 -3.36,-1.01333 -1.12,-1.06667 -1.12,-2.93333 0,-1.86667 1.44,-3.09333 1.49333,-1.28 3.68,-1.28 1.97333,0 3.2,0.96 1.22666,0.96 1.22666,2.72 0,2.13333 -1.38666,3.41333 -1.38667,1.22666 -3.68,1.22666 z m -0.42667,28.63999 q -3.46666,0 -5.06666,-2.45334 -1.54667,-2.45333 -1.54667,-6.50666 0,-2.4 0.58667,-6.13333 0.64,-3.78666 1.6,-7.03999 0.48,-1.70667 1.28,-2.34667 0.8,-0.64 2.56,-0.64 2.71999,0 2.71999,1.81333 0,1.33334 -1.01333,6.18667 -1.28,5.86666 -1.28,7.94666 0,1.6 0.42667,2.45333 0.42666,0.85333 1.44,0.85333 0.96,0 2.4,-1.33333 1.44,-1.33333 3.83999,-4.21333 0.64,-0.74667 1.44,-0.74667 0.69334,0 1.06667,0.64 0.42667,0.64 0.42667,1.76 0,2.13333 -1.01334,3.30667 -5.27999,6.45333 -9.86666,6.45333 z"
           id="path4582" />
        <path
           d="m 349.72646,368.54339 q -0.10667,2.66667 -0.10667,4.16 0,3.84 0.37333,6.02666 0.42667,2.13334 1.33334,3.09334 0.96,0.90666 2.61333,0.90666 0.85333,0 2.02666,-0.53333 1.17334,-0.53333 2.13334,-1.38667 0.58666,-0.53333 1.17333,-0.53333 0.64,0 1.01333,0.74667 0.42667,0.69333 0.42667,1.70666 0,1.01333 -0.42667,1.97333 -0.37333,0.96 -1.17333,1.6 -2.77333,2.29334 -6.29333,2.29334 -5.06666,0 -7.41333,-4.21334 -2.34666,-4.26666 -2.34666,-11.09332 0,-2.34667 0.16,-4.74667 h -2.08 q -1.6,0 -2.18667,-0.58666 -0.53333,-0.58667 -0.53333,-1.86667 0,-2.98666 2.4,-2.98666 h 3.03999 q 0.90667,-5.86667 2.77334,-10.72 1.86666,-4.85333 4.47999,-7.73333 2.66667,-2.87999 5.70667,-2.87999 2.24,0 3.51999,1.97333 1.28,1.97333 1.28,4.96 0,8.26666 -6.93332,14.39999 h 5.97332 q 0.85334,0 1.22667,0.37333 0.37333,0.37333 0.37333,1.38667 0,3.67999 -6.02666,3.67999 z m 5.65333,-21.65332 q -0.8,0 -1.81333,2.02667 -0.96,1.97333 -1.86667,5.54666 -0.85333,3.52 -1.44,7.84 3.14667,-2.72 4.69333,-6.08 1.6,-3.41333 1.6,-6.18666 0,-3.14667 -1.17333,-3.14667 z"
           id="path4584" />
        <path
           d="m 405.45973,371.95673 q 0.69334,0 1.06667,0.69333 0.37333,0.69333 0.37333,1.76 0,1.33333 -0.37333,2.08 -0.37333,0.69333 -1.17333,0.96 -3.2,1.11999 -7.04,1.27999 -1.06667,4.42667 -4.05333,7.14667 -2.93333,2.72 -6.50666,2.72 -5.38667,0 -7.84,-4.10667 -2.45333,-4.10666 -2.45333,-11.89333 0,-6.87999 1.70667,-14.93332 1.70666,-8.10666 4.95999,-13.75999 3.30667,-5.70666 7.84,-5.70666 2.45333,0 3.94666,2.13333 1.49333,2.08 1.49333,5.43999 0,4.37333 -1.65333,8.69333 -1.65333,4.32 -5.49333,9.06666 3.57333,0.26667 5.81333,2.98667 2.24,2.66666 2.66667,6.61333 2.50666,-0.16 5.97333,-1.06667 0.32,-0.10666 0.74666,-0.10666 z m -14.71999,-28.47999 q -1.06666,0 -2.34666,3.2 -1.22667,3.14667 -2.29334,8.58666 -1.06666,5.44 -1.59999,11.89333 3.51999,-6.45333 5.59999,-11.36 2.13333,-4.95999 2.13333,-8.79999 0,-1.70667 -0.42666,-2.61333 -0.37334,-0.90667 -1.06667,-0.90667 z m -2.77333,39.46665 q 1.65333,0 2.93333,-1.38667 1.28,-1.38667 1.70667,-4 -1.65334,-1.12 -2.56,-2.93333 -0.85333,-1.81333 -0.85333,-3.84 0,-0.74666 0.21333,-2.02666 h -0.16 q -2.18667,0 -3.68,2.18666 -1.44,2.13333 -1.44,5.76 0,3.04 1.12,4.64 1.17333,1.6 2.72,1.6 z"
           id="path4586" />
        <path
           d="m 422.52637,376.43672 q 0.69333,0 1.06666,0.64 0.42667,0.64 0.42667,1.76 0,2.13333 -1.01333,3.30667 -2.29333,2.82666 -5.01333,4.63999 -2.66667,1.81334 -6.08,1.81334 -4.69333,0 -6.98666,-4.26667 -2.24,-4.26666 -2.24,-11.03999 0,-6.50666 1.65333,-14.82666 1.70667,-8.32 4.96,-14.29332 3.30666,-5.97333 7.84,-5.97333 2.55999,0 3.99999,2.39999 1.49334,2.34667 1.49334,6.77333 0,6.34667 -3.52,14.71999 -3.52,8.37333 -9.54666,16.58666 0.37333,2.18667 1.22666,3.14667 0.85334,0.90666 2.24,0.90666 2.18667,0 3.84,-1.22666 1.65333,-1.28 4.21333,-4.32 0.64,-0.74667 1.44,-0.74667 z m -6.56,-32.95998 q -1.22666,0 -2.77333,4.42667 -1.54666,4.42666 -2.72,10.98666 -1.17333,6.55999 -1.28,12.58666 3.78667,-6.24 6.02667,-12.48 2.24,-6.29333 2.24,-11.46666 0,-4.05333 -1.49334,-4.05333 z"
           id="path4588" />
        <path
           d="m 426.68638,359.95673 q -2.24,0 -3.36,-1.01333 -1.12,-1.06667 -1.12,-2.93333 0,-1.86667 1.44,-3.09333 1.49333,-1.28 3.67999,-1.28 1.97334,0 3.2,0.96 1.22667,0.96 1.22667,2.72 0,2.13333 -1.38667,3.41333 -1.38666,1.22666 -3.67999,1.22666 z m -0.42667,28.63999 q -3.46667,0 -5.06666,-2.45334 -1.54667,-2.45333 -1.54667,-6.50666 0,-2.4 0.58667,-6.13333 0.64,-3.78666 1.59999,-7.03999 0.48,-1.70667 1.28,-2.34667 0.8,-0.64 2.56,-0.64 2.72,0 2.72,1.81333 0,1.33334 -1.01333,6.18667 -1.28,5.86666 -1.28,7.94666 0,1.6 0.42667,2.45333 0.42666,0.85333 1.43999,0.85333 0.96,0 2.4,-1.33333 1.44,-1.33333 3.84,-4.21333 0.64,-0.74667 1.44,-0.74667 0.69333,0 1.06667,0.64 0.42666,0.64 0.42666,1.76 0,2.13333 -1.01333,3.30667 -5.28,6.45333 -9.86666,6.45333 z"
           id="path4590" />
        <path
           d="m 436.60638,388.59672 q -2.02667,0 -2.88,-2.13334 -0.8,-2.13333 -0.8,-6.82666 0,-6.93333 1.97333,-13.17332 0.48,-1.54667 1.54667,-2.24 1.12,-0.74667 3.09333,-0.74667 1.06667,0 1.49333,0.26667 0.42667,0.26666 0.42667,1.01333 0,0.85333 -0.8,3.84 -0.53333,2.13333 -0.85333,3.73333 -0.32,1.6 -0.53333,3.94666 1.75999,-4.58666 3.94666,-7.46666 2.18666,-2.88 4.26666,-4.10666 2.13334,-1.22667 3.89333,-1.22667 3.46667,0 3.46667,3.46666 0,2.08 -1.17333,7.52 -1.01334,4.64 -1.01334,6.13333 0,2.13333 1.54667,2.13333 1.06667,0 2.50666,-1.28 1.49334,-1.33333 3.94667,-4.26666 0.64,-0.74667 1.44,-0.74667 0.69333,0 1.06666,0.64 0.42667,0.64 0.42667,1.76 0,2.13333 -1.01333,3.30667 -2.29333,2.82666 -4.96,4.63999 -2.61333,1.81334 -5.97333,1.81334 -2.72,0 -4.10666,-1.54667 -1.38667,-1.6 -1.38667,-4.58666 0,-1.49334 0.74667,-5.33333 0.69333,-3.36 0.69333,-4.64 0,-0.85333 -0.58667,-0.85333 -0.69333,0 -1.97333,1.81333 -1.22666,1.76 -2.56,4.69333 -1.28,2.93333 -2.08,6.18666 -0.58666,2.50667 -1.38666,3.41333 -0.74667,0.85334 -2.4,0.85334 z"
           id="path4592" />
        <path
           d="m 490.0997,376.43672 q 0.69334,0 1.06667,0.64 0.42666,0.64 0.42666,1.76 0,2.13333 -1.01333,3.30667 -2.4,2.93333 -4.85333,4.69333 -2.45333,1.76 -5.81333,1.76 -4.10666,0 -6.61333,-2.34667 -2.50666,-2.34667 -2.50666,-6.24 0,-2.07999 2.13333,-2.98666 2.34666,-1.01333 3.36,-2.13333 1.01333,-1.17334 1.01333,-2.82667 0,-0.96 -0.42667,-1.44 -0.37333,-0.48 -0.96,-0.48 -1.43999,0 -3.19999,2.08 -1.70667,2.08 -3.2,5.38667 -1.49333,3.25333 -2.34667,6.71999 -0.58666,2.50667 -1.38666,3.41333 -0.74667,0.85334 -2.4,0.85334 -1.65333,0 -2.45333,-1.17334 -0.74667,-1.22666 -1.01334,-3.73333 -0.26666,-2.50666 -0.26666,-7.35999 0,-8.21333 1.65333,-17.11999 1.70667,-8.90667 4.96,-14.93333 3.30666,-6.07999 7.89333,-6.07999 2.45333,0 3.94666,2.13333 1.54667,2.08 1.54667,5.43999 0,5.38667 -3.14667,11.2 -3.14666,5.75999 -10.23999,13.49332 -0.16,2.77333 -0.16,5.70667 2.56,-6.66667 5.86666,-9.65333 3.30666,-3.04 6.18666,-3.04 2.66667,0 4.26667,1.81333 1.65333,1.81333 1.65333,4.48 0,2.93333 -1.49333,5.38666 -1.49334,2.45334 -5.12,4.37333 0.21333,1.44 1.28,2.34667 1.12,0.85333 2.66666,0.85333 1.65334,0 3.2,-1.28 1.54667,-1.28 4.05333,-4.26666 0.64,-0.74667 1.44,-0.74667 z m -17.06665,-32.95998 q -0.96,0 -2.13334,2.77333 -1.17333,2.72 -2.29333,7.41333 -1.06666,4.64 -1.76,10.13333 3.30667,-3.89333 5.44,-8.47999 2.18667,-4.58667 2.18667,-8.32 0,-1.70667 -0.37334,-2.61333 -0.37333,-0.90667 -1.06666,-0.90667 z"
           id="path4594" />
        <path
           d="m 497.193,389.77005 q -2.77333,0 -4.26666,-1.28 -1.44,-1.28 -1.44,-2.88 0,-1.38667 1.01333,-2.4 1.01333,-1.01333 2.98667,-1.01333 0.69333,0 1.6,0.16 0.96,0.10667 1.44,0.16 -0.0533,-1.38667 -0.64,-2.61333 -0.53334,-1.22667 -1.38667,-2.34667 -0.85333,-1.17333 -1.6,-2.02666 -1.65333,3.14666 -3.30666,5.22666 -1.6,2.08 -3.52,3.94666 -0.96,0.96 -2.02667,0.96 -0.85333,0 -1.38666,-0.58666 -0.53334,-0.64 -0.53334,-1.54667 0,-1.06666 0.74667,-1.97333 l 0.69333,-0.85333 q 2.93333,-3.62667 4.42667,-5.97333 0.96,-1.54667 1.92,-3.68 1.01333,-2.13333 2.61333,-5.81333 1.01333,-2.34667 4.21333,-2.34667 1.49333,0 2.08,0.26667 0.58666,0.26667 0.58666,0.85333 0,0.32 -0.21333,1.01334 -0.21333,0.69333 -0.58667,1.38666 -0.96,1.92 -0.96,3.25333 0,0.8 0.53334,1.76 0.58666,0.96 1.76,2.4 1.70666,2.24 2.55999,3.84 0.90667,1.54666 0.90667,3.41333 0,2.24 -1.06667,4.26666 -1.01333,1.97334 -2.87999,3.2 -1.86667,1.22667 -4.26667,1.22667 z"
           id="path4596" />
        <path
           d="m 515.85965,375.85006 q -1.06667,0 -1.76,-0.48 -0.69333,-0.48 -0.69333,-1.49334 l 0.0533,-0.42666 q 0.90667,-5.97333 2.45333,-13.59999 1.54667,-7.62667 2.88,-13.17333 0.85333,-3.41333 4.64,-3.41333 3.41333,0 3.41333,2.18666 0,0.48 -0.16,1.06667 -1.38667,5.65333 -3.68,13.70666 -2.29333,7.99999 -4.37333,13.91999 -0.58666,1.70667 -2.77333,1.70667 z m -2.02667,12.74666 q -2.34666,0 -3.57333,-1.28 -1.17333,-1.28 -1.17333,-3.36 0,-2.4 1.33333,-3.84 1.38667,-1.44 3.84,-1.44 2.34667,0 3.52,1.17333 1.22666,1.12 1.22666,3.36 0,2.45333 -1.38666,3.94667 -1.38667,1.44 -3.78667,1.44 z"
           id="path4598" />
      </g>
    </g>
  </g>
</svg>
