<?xml version="1.0" encoding="UTF-8" standalone="no"?>
<!-- Created with Inkscape (http://www.inkscape.org/) -->

<svg
   xml:space="preserve"
   sodipodi:docname="Text - Turn this 2.svg"
   inkscape:version="1.2 (dc2aedaf03, 2022-05-15)"
   id="svg5"
   version="1.1"
   viewBox="0 0 64.902679 30.711779"
   height="30.711779"
   width="64.902679"
   xmlns:inkscape="http://www.inkscape.org/namespaces/inkscape"
   xmlns:sodipodi="http://sodipodi.sourceforge.net/DTD/sodipodi-0.dtd"
   xmlns="http://www.w3.org/2000/svg"
   xmlns:svg="http://www.w3.org/2000/svg"><sodipodi:namedview
     id="namedview7"
     pagecolor="#ffffff"
     bordercolor="#000000"
     borderopacity="0.25"
     inkscape:showpageshadow="2"
     inkscape:pageopacity="0.0"
     inkscape:pagecheckerboard="0"
     inkscape:deskcolor="#d1d1d1"
     inkscape:document-units="px"
     showgrid="true"
     inkscape:zoom="11.313708"
     inkscape:cx="9.3249707"
     inkscape:cy="-7.1594562"
     inkscape:window-width="1350"
     inkscape:window-height="1041"
     inkscape:window-x="507"
     inkscape:window-y="23"
     inkscape:window-maximized="0"
     inkscape:current-layer="text279"><inkscape:grid
       type="xygrid"
       id="grid704"
       originx="-8.1466956"
       originy="-223.65083" /></sodipodi:namedview><defs
     id="defs2"><inkscape:path-effect
       effect="powerstroke"
       id="path-effect10091"
       is_visible="true"
       lpeversion="1"
       offset_points="0,18.867924"
       not_jump="false"
       sort_points="true"
       interpolator_type="CubicBezierJohan"
       interpolator_beta="0.2"
       start_linecap_type="zerowidth"
       linejoin_type="extrp_arc"
       miter_limit="4"
       scale_width="1"
       end_linecap_type="zerowidth" /></defs><g
     inkscape:label="Layer 1"
     inkscape:groupmode="layer"
     id="layer1"
     transform="translate(-401.5441,-230.56036)"><g
       aria-label="Turn this to change  how fast  it blinks!"
       transform="matrix(0.15405505,0,0,0.14997863,386.07523,197.70813)"
       id="text279"
       style="font-size:53.3333px;line-height:60.7874px;text-align:end;text-anchor:end;stroke:#000000;stroke-width:0.986722"><text
         xml:space="preserve"
         style="font-style:normal;font-variant:normal;font-weight:normal;font-stretch:normal;font-size:53.3333px;line-height:60.7874px;font-family:Pacifico;-inkscape-font-specification:Pacifico;font-variant-ligatures:normal;font-variant-position:normal;font-variant-caps:normal;font-variant-numeric:normal;font-variant-alternates:normal;font-variant-east-asian:normal;font-feature-settings:normal;font-variation-settings:normal;text-indent:0;text-align:center;text-decoration-line:none;text-decoration-style:solid;text-decoration-color:#000000;letter-spacing:normal;word-spacing:normal;text-transform:none;writing-mode:lr-tb;direction:ltr;text-orientation:mixed;dominant-baseline:auto;baseline-shift:baseline;text-anchor:middle;white-space:normal;display:none;opacity:1;vector-effect:none;fill:#000000;fill-opacity:1;stroke:#000000;stroke-width:0.986722;stroke-linecap:butt;stroke-linejoin:miter;stroke-miterlimit:4;stroke-dasharray:none;stroke-dashoffset:0;stroke-opacity:1;-inkscape-stroke:none;stop-color:#000000;stop-opacity:1"
         x="255.59326"
         y="266.75525"
         id="text744"
         transform="scale(0.98668089,1.0134989)"><tspan
           sodipodi:role="line"
           x="255.59326"
           y="266.75525"
           id="tspan748">Turn this to change how fast</tspan><tspan
           sodipodi:role="line"
           x="255.59326"
           y="327.54266"
           id="tspan23636"> it blinks!</tspan></text><g
         aria-label="Turn this to change how fast
 it blinks!"
         transform="scale(0.98668089,1.0134989)"
         id="text744-7"
         style="font-family:Pacifico;-inkscape-font-specification:Pacifico;text-align:center;baseline-shift:baseline;text-anchor:middle;display:inline;stop-color:#000000;stroke-width:0.98682149;stroke-dasharray:none;stroke:none"><path
           d="m -14.086478,222.48861 q 1.653332,0.32 2.453332,1.12 0.853333,0.8 0.853333,1.86666 0,1.76 -1.013333,2.56 -0.959999,0.8 -3.093331,0.64 -4.799998,-0.37333 -7.519996,-0.48 -2.666665,-0.16 -7.039996,-0.21333 -1.973332,9.81333 -3.626664,19.73332 -0.586667,3.62666 -1.226666,8.42666 -0.64,4.74667 -0.853333,7.68 -0.106667,1.54666 -1.279999,2.4 -1.173333,0.8 -2.826665,0.8 -1.759999,0 -2.719999,-0.85334 -0.959999,-0.85333 -0.959999,-2.24 0,-1.28 0.373333,-4.21333 0.426667,-2.98666 0.96,-6.23999 0.586666,-3.25333 0.906666,-5.65333 0.586666,-4.05333 1.333332,-8.05333 0.746666,-4 1.493333,-7.57333 0.16,-0.8 0.373333,-1.81333 0.213333,-1.06667 0.479999,-2.34667 -5.226663,0.16 -8.213328,0.85333 -2.986665,0.69334 -4.266664,1.97334 -1.226666,1.22666 -1.226666,3.2 0,1.81333 1.066666,3.46666 0.213333,0.37333 0.213333,0.8 0,1.01333 -1.226666,1.92 -1.173332,0.85333 -2.453332,0.85333 -0.906666,0 -1.493332,-0.53333 -1.066666,-0.90667 -1.759999,-2.56 -0.693333,-1.70667 -0.693333,-3.84 0,-4.53333 2.933332,-7.25333 2.986665,-2.77333 9.013328,-4.05333 6.079996,-1.28 15.573324,-1.28 5.866663,0 9.333327,0.21334 3.519998,0.21333 6.13333,0.69333 z"
           id="path24571"
           style="stroke-width:0.98682149;stroke-dasharray:none;stroke:none" /><path
           id="path24573"
           d="M -13.979182 241.90415 C -15.365844 241.90415 -16.384454 242.13579 -17.024451 242.59801 C -17.664451 243.06023 -18.159408 243.8185 -18.514963 244.88517 C -19.332738 247.37405 -19.919754 249.73796 -20.275309 251.97795 C -20.630863 254.18239 -20.802127 256.6225 -20.802127 259.28917 C -20.802127 261.49359 -20.307169 263.34671 -19.311616 264.84004 C -18.280508 266.29782 -16.966895 267.02441 -15.3669 267.02441 C -13.980236 267.02441 -12.682466 266.37702 -11.47358 265.09702 C -10.264695 263.78146 -9.3539847 261.92537 -8.7495418 259.5076 C -8.7495418 261.88982 -8.3624813 263.73008 -7.5802611 265.04562 C -6.7624854 266.36118 -5.496398 267.02441 -3.7897358 267.02441 C -1.5497417 267.02441 0.44294224 266.42156 2.18516 265.21266 C 2.9380382 264.70072 3.6612898 264.11113 4.3695305 263.47802 C 4.4768277 264.00779 4.5933299 264.49456 4.7421584 264.89143 C 5.3110457 266.31366 6.2692801 267.02441 7.6203878 267.02441 C 8.7226071 267.02441 9.5254188 266.7324 10.023195 266.16351 C 10.556527 265.55907 11.019803 264.42957 11.410913 262.75846 C 11.944246 260.58958 12.639159 258.52068 13.49249 256.56513 C 14.34582 254.60958 15.196157 253.04848 16.049488 251.87516 C 16.938374 250.66627 17.649129 250.06341 18.182462 250.06341 C 18.573571 250.06341 18.760677 250.34258 18.760677 250.91146 C 18.760677 251.16035 18.728995 251.63946 18.657883 252.35058 C 18.551218 252.88391 18.503693 253.4234 18.503693 253.95673 C 18.503693 255.59228 18.982809 256.89005 19.942807 257.85005 C 20.93836 258.81005 22.375712 259.28917 24.260151 259.28917 C 25.655166 259.28917 26.964853 258.94601 28.204867 258.32547 C 28.220731 261.30759 28.484553 263.51286 29.00152 264.89143 C 29.570408 266.31366 30.54149 267.02441 31.892599 267.02441 C 32.994819 267.02441 33.78478 266.7324 34.282557 266.16351 C 34.815889 265.55907 35.279164 264.42957 35.670275 262.75846 C 36.203607 260.58958 36.89852 258.52068 37.751852 256.56513 C 38.640739 254.60958 39.491073 253.04849 40.30885 251.87516 C 41.162182 250.66627 41.825411 250.06341 42.287633 250.06341 C 42.678743 250.06341 42.878698 250.34258 42.878698 250.91146 C 42.878698 251.69368 42.662901 253.5151 42.236236 256.35954 C 41.738458 259.63064 41.49098 261.9787 41.49098 263.40092 C 41.49098 264.60981 41.7543 265.50767 42.287633 266.11211 C 42.820965 266.71656 43.6713 267.02441 44.844631 267.02441 C 46.089074 267.02441 46.98394 266.7324 47.517273 266.16351 C 48.086161 265.55907 48.365322 264.58499 48.365322 263.23388 C 48.365322 260.85166 48.47322 258.70356 48.686553 256.78356 C 48.899886 254.82801 49.179048 252.75912 49.534603 250.59023 C 49.925713 248.03023 50.125668 246.29788 50.125668 245.37344 C 50.125668 244.23566 49.830665 243.37248 49.226221 242.80359 C 48.657333 242.19915 47.794149 241.90415 46.656374 241.90415 C 45.483042 241.90415 44.185274 242.30705 42.763054 243.12482 C 41.37639 243.9426 39.954883 245.31658 38.497107 247.23658 C 37.039331 249.15658 35.725723 251.64422 34.552391 254.70199 C 34.694613 253.13755 34.878726 251.82394 35.092059 250.75727 C 35.305392 249.69061 35.584554 248.44036 35.940109 247.01814 C 36.473442 245.02703 36.736762 243.74511 36.736762 243.17622 C 36.736762 242.67844 36.597181 242.35175 36.312737 242.17398 C 36.028293 241.9962 35.533335 241.90415 34.822225 241.90415 C 33.506672 241.90415 32.472225 242.15162 31.725559 242.6494 C 31.014449 243.11162 30.50365 243.85406 30.18365 244.88517 C 29.439799 247.23735 28.92645 249.67073 28.603194 252.17069 C 27.729215 252.81665 26.929355 253.26287 26.290331 253.26287 C 25.401444 253.26287 24.95401 252.64417 24.95401 251.39973 C 24.95401 251.04418 25.093591 250.14932 25.378035 248.72709 C 25.698035 246.94932 25.866306 245.83566 25.866306 245.37344 C 25.866306 243.06233 24.708116 241.90415 22.397012 241.90415 C 21.223681 241.90415 19.925911 242.30706 18.503693 243.12482 C 17.11703 243.9426 15.69552 245.31658 14.237745 247.23658 C 12.779972 249.15658 11.46636 251.64422 10.293029 254.70199 C 10.435251 253.13755 10.606515 251.82394 10.819848 250.75727 C 11.033181 249.69061 11.312343 248.44036 11.667898 247.01814 C 12.201229 245.02704 12.4774 243.74511 12.4774 243.17622 C 12.4774 242.67844 12.324968 242.35175 12.040526 242.17398 C 11.756082 241.9962 11.261123 241.90415 10.550014 241.90415 C 9.2344617 241.90415 8.2128617 242.15162 7.4661969 242.6494 C 6.7550876 243.11162 6.2314381 243.85406 5.9114391 244.88517 C 4.6948129 248.73234 4.0755403 252.78521 3.9840533 257.0277 C 2.9338246 258.22275 1.9905216 259.23947 1.272864 259.88023 C 0.31286658 260.73356 -0.52162816 261.15231 -1.2327374 261.15231 C -1.6949585 261.15231 -2.0661775 260.98104 -2.3506211 260.62549 C -2.6350649 260.23437 -2.774646 259.69488 -2.774646 259.01933 C -2.774646 257.95267 -2.2796873 255.14133 -1.2841344 250.59023 C -0.39524775 246.60803 0.05218641 244.18075 0.05218641 243.29186 C 0.05218641 242.75854 -0.11608548 242.40316 -0.43608464 242.22538 C -0.75608381 242.01204 -1.3272578 241.90415 -2.1450333 241.90415 C -3.3183637 241.90415 -4.2003828 242.13579 -4.8048257 242.59801 C -5.373713 243.06023 -5.8053058 243.8185 -6.0897495 244.88517 C -6.9430806 248.04961 -7.8250998 250.72136 -8.7495418 252.89025 C -9.6384283 255.05912 -10.501614 256.68059 -11.319389 257.74726 C -12.101611 258.81392 -12.751991 259.34056 -13.285323 259.34056 C -13.676434 259.34056 -13.968445 259.20098 -14.146222 258.91654 C -14.324 258.59654 -14.403207 258.05705 -14.403207 257.31038 C -14.403207 256.06594 -14.047829 253.5783 -13.33672 249.84498 C -13.123387 248.77831 -12.844225 247.58844 -12.48867 246.27289 C -12.09756 244.63734 -11.897605 243.6791 -11.897605 243.39466 C -11.897605 242.89689 -12.065878 242.52567 -12.385876 242.27677 C -12.670321 242.0279 -13.196962 241.90415 -13.979182 241.90415 z "
           style="stroke-width:0.98682149;stroke-dasharray:none;stroke:none" /><path
           id="path24579"
           d="M 103.88688 216.61685 C 100.82911 216.61685 98.20189 218.65406 95.997449 222.70739 C 93.828563 226.72516 92.175419 231.70043 91.037643 237.6382 C 89.935422 243.57597 89.380091 249.27784 89.380091 254.75338 L 89.354392 256.73217 C 88.201648 257.98736 87.133125 259.05463 86.232028 259.76459 C 85.058696 260.68903 83.713404 261.15231 82.184517 261.15231 C 80.300076 261.15231 78.910251 260.40987 78.021364 258.91654 C 77.168032 257.42321 76.73644 254.82768 76.73644 251.1299 C 76.73644 250.13435 76.780973 248.74452 76.852084 246.96675 L 83.353798 246.96675 C 87.371569 246.96675 89.380091 245.74519 89.380091 243.29186 C 89.380091 242.61631 89.256351 242.15303 89.007463 241.90415 C 88.758575 241.65526 88.342824 241.53152 87.773936 241.53152 L 81.81189 241.53152 C 86.434104 237.44264 88.737629 232.63862 88.737629 227.12752 C 88.737629 225.13641 88.318886 223.48327 87.465554 222.16772 C 86.612223 220.85217 85.438194 220.18893 83.944863 220.18893 C 81.9182 220.18893 80.004727 221.16002 78.226952 223.08001 C 76.484733 225 74.999859 227.56686 73.755417 230.80241 C 72.510974 234.03796 71.584425 237.62041 70.979982 241.53152 L 67.934712 241.53152 C 66.334715 241.53152 65.544754 242.52144 65.544754 244.51254 C 65.544754 245.36587 65.716018 245.98457 66.071573 246.37568 C 66.462684 246.76679 67.189278 246.96675 68.255943 246.96675 L 70.33752 246.96675 C 70.230854 248.56675 70.183329 250.15652 70.183329 251.72096 C 70.183329 261.92539 73.800463 267.02441 81.053785 267.02441 C 83.400448 267.02441 85.485184 266.42156 87.298514 265.21266 C 88.013931 264.73572 88.6961 264.16291 89.367242 263.58081 C 89.441235 264.56962 89.548878 265.40824 89.752719 265.90652 C 90.108274 266.65319 90.819027 267.02441 91.885692 267.02441 C 94.552355 267.02441 96.221341 265.6029 96.896895 262.75846 C 97.430228 260.58958 98.12514 258.52068 98.978472 256.56513 C 99.831807 254.60958 100.68214 253.04849 101.53547 251.87516 C 102.3888 250.66627 103.05203 250.06341 103.51425 250.06341 C 103.90536 250.06341 104.10532 250.34258 104.10532 250.91146 C 104.10532 251.7648 103.87368 253.31004 103.41146 255.55004 C 102.91368 258.11003 102.6662 259.88691 102.6662 260.88247 C 102.6662 262.87358 103.11663 264.40298 104.04107 265.46965 C 104.96552 266.50076 106.3395 267.02441 108.15283 267.02441 C 110.35727 267.02441 112.31826 266.42156 114.02493 265.21266 C 114.8865 264.61484 115.7336 263.93267 116.56908 263.16964 C 116.76879 263.67287 117.00493 264.14057 117.27579 264.5702 C 118.34245 266.20576 120.02728 267.02441 122.33839 267.02441 C 125.39616 267.02441 128.68661 264.87631 132.2066 260.57409 C 132.39814 260.35231 132.55764 260.08921 132.69487 259.81598 C 132.86673 259.60282 133.05505 259.40301 133.22169 259.18637 C 134.32391 257.79971 135.42173 256.0545 136.52395 253.95673 C 137.02173 254.52562 137.56121 255.20469 138.1301 255.98691 C 138.69899 256.73358 139.16226 257.50769 139.51782 258.32547 C 139.90895 259.14325 140.1119 260.02227 140.14743 260.94672 L 138.70832 260.77968 C 138.10387 260.67301 137.57723 260.62549 137.11501 260.62549 C 135.79946 260.62549 134.7967 260.96502 134.12114 261.64058 C 133.44559 262.31613 133.1189 263.10609 133.1189 264.03053 C 133.1189 265.0972 133.59801 266.06828 134.55801 266.92161 C 135.55357 267.77495 136.97508 268.19369 138.82396 268.19369 C 140.42396 268.19369 141.84546 267.79079 143.08991 266.97301 C 144.33435 266.15524 145.29258 265.08911 145.96814 263.77355 C 146.67924 262.42244 147.03462 261.00093 147.03462 259.5076 C 147.03462 258.26316 146.72677 257.12081 146.12233 256.08971 C 145.55343 255.02304 144.7031 253.74112 143.56533 252.24778 C 142.78311 251.28778 142.1961 250.48498 141.80498 249.84498 C 141.44943 249.20498 141.27816 248.61796 141.27816 248.08463 C 141.27816 247.19574 141.58901 246.11377 142.22901 244.83377 C 142.47789 244.37155 142.67785 243.90828 142.82007 243.44606 C 142.9623 242.98383 143.03851 242.6443 143.03851 242.43097 C 143.03851 242.03986 142.83856 241.7607 142.44745 241.58292 C 142.05633 241.40514 141.36142 241.31308 140.36587 241.31308 C 138.23254 241.31308 136.82687 242.10005 136.15132 243.66449 C 135.08465 246.11782 134.21848 248.05013 133.54292 249.47235 C 132.90292 250.89457 132.25554 252.12897 131.61554 253.16008 C 130.67977 254.63058 129.28773 256.51222 127.50378 258.73665 C 127.13707 259.11987 126.75311 259.53546 126.45014 259.81598 C 125.49014 260.70487 124.68734 261.15231 124.04734 261.15231 C 123.37178 261.15231 122.89267 260.87314 122.60822 260.30426 C 122.32378 259.73537 122.1842 258.91672 122.1842 257.85005 C 122.1842 256.46339 122.60294 253.80748 123.45627 249.89637 C 124.13182 246.66082 124.47136 244.60478 124.47136 243.71589 C 124.47136 242.507 123.56065 241.90415 121.74732 241.90415 C 120.57399 241.90415 119.72366 242.11994 119.19032 242.54661 C 118.65699 242.97328 118.23825 243.74739 117.91825 244.88517 C 117.27825 247.05405 116.73876 249.40212 116.31209 251.92655 C 115.98832 253.98697 115.82817 255.66641 115.77243 257.11764 C 114.86057 258.13905 113.85945 259.30521 113.21543 259.88023 C 112.25543 260.73356 111.42094 261.15231 110.70983 261.15231 C 109.67872 261.15231 109.16792 260.44155 109.16792 259.01933 C 109.16792 258.02378 109.50746 255.98358 110.18301 252.89025 C 110.96523 249.26358 111.35229 246.7601 111.35229 245.37344 C 111.35229 243.06233 110.1941 241.90415 107.88299 241.90415 C 106.70966 241.90415 105.41189 242.30705 103.98967 243.12482 C 102.60301 243.9426 101.1815 245.31658 99.723728 247.23658 C 98.301508 249.12103 97.00374 251.57698 95.830409 254.59919 C 95.830409 252.64364 95.890782 250.74302 95.997449 248.89413 C 100.72633 243.73858 104.14051 239.22957 106.23829 235.38958 C 108.33606 231.51403 109.38635 227.78901 109.38635 224.1979 C 109.38635 221.95791 108.86271 220.13649 107.8316 218.74982 C 106.83604 217.3276 105.52243 216.61685 103.88688 216.61685 z M 102.769 221.89788 C 103.23122 221.89788 103.58659 222.20573 103.83548 222.81018 C 104.08437 223.41462 104.20811 224.2808 104.20811 225.41857 C 104.20811 227.90746 103.48152 230.6871 102.02374 233.74488 C 100.60152 236.80265 98.780105 239.62983 96.575664 242.22538 C 97.037886 238.56316 97.6249 235.18066 98.33601 232.08733 C 99.082676 228.95845 99.853802 226.48665 100.63602 224.67332 C 101.41824 222.82443 102.129 221.89788 102.769 221.89788 z M 82.505748 225.31578 C 83.28797 225.31578 83.675029 226.36607 83.675029 228.46384 C 83.675029 230.31273 83.135539 232.36878 82.068874 234.64433 C 81.037765 236.88433 79.476677 238.92153 77.378902 240.73487 C 77.770013 237.85487 78.24913 235.23065 78.818017 232.88398 C 79.42246 230.50176 80.041157 228.66151 80.681157 227.34596 C 81.356711 225.99485 81.972416 225.31578 82.505748 225.31578 z M 123.40487 230.05715 C 121.9471 230.05715 120.72555 230.48874 119.72999 231.34207 C 118.77 232.15985 118.29088 233.19429 118.29088 234.43874 C 118.29088 235.68318 118.6621 236.65725 119.40876 237.36837 C 120.15543 238.04392 121.26908 238.38346 122.76241 238.38346 C 124.2913 238.38346 125.5257 237.9677 126.45014 237.14993 C 127.37459 236.2966 127.83786 235.1671 127.83786 233.74488 C 127.83786 232.57155 127.42211 231.66084 126.60433 231.02084 C 125.78656 230.38084 124.72043 230.05715 123.40487 230.05715 z "
           style="stroke-width:0.98682149;stroke-dasharray:none;stroke:none" /><path
           id="path24587"
           d="M 179.94152 220.18893 C 177.91486 220.18893 176.01424 221.16002 174.23646 223.08001 C 172.49424 225 170.99652 227.56686 169.75208 230.80241 C 168.50764 234.03796 167.58109 237.62041 166.97664 241.53152 L 163.94422 241.53152 C 162.34423 241.53152 161.54141 242.52144 161.54141 244.51254 C 161.54141 245.36587 161.71268 245.98457 162.06823 246.37568 C 162.45934 246.76679 163.19879 246.96675 164.26545 246.96675 L 166.33418 246.96675 C 166.22751 248.56675 166.17999 250.15652 166.17999 251.72096 C 166.17999 261.92539 169.80997 267.02441 177.06329 267.02441 C 179.40995 267.02441 181.48184 266.42156 183.29517 265.21266 C 184.30028 264.54259 185.25569 263.73888 186.1734 262.86125 C 186.83437 263.87663 187.64075 264.74756 188.62761 265.46965 C 190.12093 266.50076 191.92651 267.02441 194.02429 267.02441 C 196.15762 267.02441 198.08992 266.43739 199.83214 265.26406 C 201.60991 264.05517 203.01558 262.40203 204.04669 260.30426 C 205.07781 258.17092 205.5886 255.74665 205.5886 253.04444 C 205.5886 251.08888 205.21738 249.26448 204.47072 247.55781 C 203.72405 245.85115 202.6104 244.47716 201.11707 243.44606 C 199.62374 242.37939 197.81816 241.85275 195.72039 241.85275 C 193.5515 241.85275 191.60335 242.45561 189.86113 243.66449 C 188.11892 244.83782 186.72909 246.49097 185.69798 248.6243 C 184.70243 250.72207 184.20747 253.11765 184.20747 255.81987 C 184.20747 256.50182 184.27086 257.15982 184.36166 257.8115 C 183.59454 258.591 182.86882 259.26024 182.22869 259.76459 C 181.05535 260.68903 179.71006 261.15231 178.18118 261.15231 C 176.29673 261.15231 174.90691 260.40987 174.01802 258.91654 C 173.16469 257.42321 172.74595 254.82768 172.74595 251.1299 C 172.74595 250.13435 172.77763 248.74452 172.84874 246.96675 L 179.35046 246.96675 C 183.36823 246.96675 185.37675 245.74519 185.37675 243.29186 C 185.37675 242.61631 185.25301 242.15303 185.00412 241.90415 C 184.75524 241.65526 184.35234 241.53152 183.78344 241.53152 L 177.80855 241.53152 C 182.43076 237.44264 184.73429 232.63862 184.73429 227.12752 C 184.73429 225.13641 184.31555 223.48327 183.46221 222.16772 C 182.60888 220.85217 181.43485 220.18893 179.94152 220.18893 z M 178.50241 225.31578 C 179.28463 225.31578 179.67169 226.36607 179.67169 228.46384 C 179.67169 230.31273 179.14505 232.36878 178.07838 234.64433 C 177.04727 236.88433 175.47333 238.92153 173.37556 240.73487 C 173.76667 237.85487 174.24578 235.23065 174.81468 232.88398 C 175.41912 230.50176 176.05067 228.66151 176.69067 227.34596 C 177.36622 225.99485 177.96907 225.31578 178.50241 225.31578 z M 195.29636 247.60921 C 196.29191 247.60921 197.1551 248.10416 197.86621 249.09972 C 198.57732 250.09527 198.9327 251.57716 198.9327 253.53271 C 198.9327 256.05714 198.50111 257.97361 197.64777 259.28917 C 196.83 260.60472 195.81139 261.26795 194.6025 261.26795 C 193.53584 261.26795 192.65382 260.77598 191.94271 259.81598 C 191.2316 258.85599 190.87622 257.37111 190.87622 255.34445 C 190.87622 252.78445 191.27912 250.86798 192.0969 249.58799 C 192.95023 248.27243 194.01636 247.60921 195.29636 247.60921 z "
           style="stroke-width:0.98682149;stroke-dasharray:none;stroke:none" /><path
           id="path24601"
           d="M 257.80791 216.61685 C 254.75014 216.61685 252.12292 218.65406 249.91847 222.70739 C 247.74959 226.72516 246.09645 231.70043 244.95867 237.6382 C 243.85645 243.57597 243.30112 249.27784 243.30112 254.75338 L 243.27542 256.69362 C 241.97141 258.07943 240.6534 259.24786 239.305 260.03442 C 237.6339 260.99442 236.05996 261.47354 234.60218 261.47354 C 231.01108 261.47354 229.21835 259.41749 229.21835 255.29305 C 229.21835 253.79972 229.43415 252.42574 229.86081 251.1813 C 230.28748 249.93686 230.85866 248.96278 231.56976 248.25167 C 232.28087 247.505 233.03915 247.13379 233.85693 247.13379 C 234.28359 247.13379 234.60729 247.25752 234.82062 247.50641 C 235.06951 247.7553 235.19325 248.11068 235.19325 248.5729 C 235.19325 249.03513 235.10119 249.53008 234.92341 250.06341 C 234.88786 250.20563 234.84034 250.43727 234.76922 250.75727 C 234.69811 251.07727 234.65358 251.35644 234.65358 251.60532 C 234.65358 252.17421 234.85353 252.62164 235.24464 252.94164 C 235.67131 253.26164 236.22664 253.41706 236.9022 253.41706 C 237.96886 253.41706 238.81919 252.90626 239.45919 251.87516 C 240.13475 250.84404 240.47428 249.57796 240.47428 248.08463 C 240.47428 246.27131 239.91895 244.80227 238.81673 243.66449 C 237.75007 242.49116 236.2365 241.90415 234.28095 241.90415 C 232.28985 241.90415 230.38922 242.49116 228.57589 243.66449 C 226.76256 244.83782 225.29353 246.50681 224.15575 248.6757 C 223.01798 250.84458 222.4468 253.3639 222.4468 256.2439 C 222.4468 259.47945 223.40503 262.10368 225.32503 264.09478 C 227.28058 266.05034 229.99986 267.02441 233.4843 267.02441 C 235.65318 267.02441 237.89334 266.46908 240.20445 265.36686 C 241.3463 264.81323 242.39631 264.13487 243.37821 263.36237 C 243.45425 264.29217 243.47815 265.42839 243.67374 265.90652 C 244.0293 266.65319 244.74005 267.02441 245.80672 267.02441 C 248.47338 267.02441 250.14236 265.6029 250.81792 262.75846 C 251.35125 260.58958 252.04616 258.52068 252.8995 256.56513 C 253.75283 254.60958 254.60317 253.04849 255.4565 251.87516 C 256.30983 250.66627 256.97305 250.06341 257.43528 250.06341 C 257.82638 250.06341 258.01349 250.34258 258.01349 250.91146 C 258.01349 251.7648 257.7947 253.31004 257.33248 255.55004 C 256.8347 258.11003 256.57438 259.88691 256.57438 260.88247 C 256.57438 262.87358 257.03765 264.40298 257.9621 265.46965 C 258.88654 266.50076 260.26053 267.02441 262.07385 267.02441 C 264.2783 267.02441 266.23929 266.42156 267.94596 265.21266 C 268.71903 264.67625 269.4425 263.82622 270.19457 263.15679 C 270.4503 263.64896 270.63083 264.19891 270.97838 264.6216 C 272.29393 266.2216 274.05497 267.02441 276.25941 267.02441 C 279.0683 267.02441 281.40051 265.52669 283.2494 262.54002 C 283.74718 263.92669 284.47377 265.0245 285.43377 265.84228 C 286.42932 266.6245 287.51129 267.02441 288.68463 267.02441 C 290.21351 267.02441 291.80329 266.40571 293.43884 265.16127 C 294.10401 264.65517 294.69192 263.89832 295.32768 263.29813 C 295.43683 263.84699 295.52152 264.48319 295.67461 264.89143 C 296.2435 266.31366 297.20173 267.02441 298.55284 267.02441 C 299.65506 267.02441 300.45787 266.7324 300.95565 266.16351 C 301.48898 265.55907 301.95226 264.42957 302.34337 262.75846 C 302.8767 260.58958 303.57161 258.52068 304.42494 256.56513 C 305.31383 254.60958 306.16416 253.04849 306.98194 251.87516 C 307.83527 250.66627 308.48566 250.06341 308.94787 250.06341 C 309.33899 250.06341 309.53894 250.34258 309.53894 250.91146 C 309.53894 251.7648 309.3073 253.31004 308.84508 255.55004 C 308.3473 258.11003 308.09982 259.88691 308.09982 260.88247 C 308.09982 262.87358 308.5631 264.40298 309.48754 265.46965 C 310.41198 266.50076 311.78597 267.02441 313.5993 267.02441 C 315.8393 267.02441 317.81913 266.42156 319.56135 265.21266 C 320.33957 264.68347 321.00233 263.84113 321.73287 263.18249 C 321.98574 263.66497 322.16228 264.20622 322.50382 264.6216 C 323.81937 266.2216 325.58041 267.02441 327.78486 267.02441 C 328.74486 267.02441 329.70309 266.77693 330.66309 266.27915 C 331.65864 265.74582 332.46145 264.99053 333.06589 264.03053 L 332.74466 266.11211 C 327.26912 270.34321 323.53124 273.89698 321.54013 276.77698 C 319.54902 279.69253 318.5591 282.41181 318.5591 284.93625 C 318.5591 286.74958 319.11743 288.21561 320.2552 289.31784 C 321.39298 290.45561 322.87486 291.02678 324.68819 291.02678 C 328.06596 291.02678 330.83276 288.91036 333.00165 284.67926 C 335.20609 280.48371 336.98298 274.70562 338.33408 267.34564 L 341.75198 265.04562 C 342.9107 264.23453 344.98141 262.82561 347.22576 261.3065 C 347.66454 262.26118 348.09796 263.21813 348.79336 263.97914 C 350.6778 266.0058 353.32086 267.02441 356.73419 267.02441 C 358.97419 267.02441 360.9035 266.59282 362.5035 265.73948 C 364.13905 264.88615 365.45266 263.69628 366.44822 262.1674 C 367.05266 261.24295 367.34766 260.14514 367.34766 258.86514 C 367.34766 258.11848 367.20808 257.53146 366.92364 257.1048 C 366.67475 256.67813 366.31937 256.46233 365.85715 256.46233 C 365.32382 256.46233 364.8447 256.72565 364.41804 257.25899 C 363.17359 258.85898 362.07578 260.00133 361.11578 260.67688 C 360.19134 261.35244 359.00147 261.69197 357.54369 261.69197 C 355.51703 261.69197 354.06683 260.87333 353.2135 259.23777 C 357.44461 258.20666 360.44005 256.81683 362.18227 255.07462 C 363.96004 253.29684 364.84206 251.18042 364.84206 248.72709 C 364.84206 246.62932 364.22336 244.97617 362.97892 243.76729 C 361.73448 242.52284 360.08133 241.90415 358.01912 241.90415 C 355.70801 241.90415 353.62328 242.52284 351.77439 243.76729 C 349.96106 245.01173 348.53955 246.69656 347.50844 248.82989 C 346.47733 250.92766 345.96653 253.21235 345.96653 255.66568 C 345.96653 255.89463 346.04834 256.05963 346.05647 256.28244 C 343.90113 257.72656 341.70737 259.252 339.40057 261.04951 C 339.57835 259.91173 339.74662 258.8456 339.88884 257.85005 C 340.06661 256.81894 340.22204 255.87655 340.36426 255.02322 C 341.11093 250.54323 341.55836 247.74774 341.70058 246.64552 C 341.73612 246.39663 341.75198 246.05709 341.75198 245.63043 C 341.75198 244.84821 341.55202 244.3374 341.16092 244.08852 C 340.80536 243.80407 340.18666 243.66449 339.29778 243.66449 C 338.40889 243.66449 337.63477 243.72786 336.95921 243.87008 C 336.78143 243.08786 336.5498 242.56122 336.26536 242.27677 C 336.01647 241.95678 335.49282 241.80135 334.7106 241.80135 C 332.25727 241.80135 329.92505 242.57547 327.72061 244.13991 C 325.55172 245.6688 323.81937 247.709 322.50382 250.269 C 321.27203 252.63271 320.66771 255.1544 320.58928 257.79865 C 319.95064 258.48693 319.14798 259.44623 318.6619 259.88023 C 317.7019 260.73356 316.8674 261.15231 316.1563 261.15231 C 315.12519 261.15231 314.60154 260.44155 314.60154 259.01933 C 314.60154 258.02378 314.94107 255.98358 315.61663 252.89025 C 316.39885 249.26358 316.79876 246.7601 316.79876 245.37344 C 316.79876 243.06233 315.64058 241.90415 313.32946 241.90415 C 312.15613 241.90415 310.85836 242.30705 309.43615 243.12482 C 308.04948 243.9426 306.62797 245.31658 305.1702 247.23658 C 303.71242 249.15658 302.39881 251.64422 301.22548 254.70199 C 301.36771 253.13755 301.53897 251.82394 301.7523 250.75727 C 301.96563 249.69061 302.2448 248.44036 302.60035 247.01814 C 303.13368 245.02703 303.40985 243.74511 303.40985 243.17622 C 303.40985 242.67844 303.27027 242.35175 302.98583 242.17398 C 302.70139 241.9962 302.19358 241.90415 301.48247 241.90415 C 300.16692 241.90415 299.14532 242.15162 298.39865 242.6494 C 297.68754 243.11162 297.16389 243.85406 296.84389 244.88517 C 295.6396 248.69334 295.0569 252.71653 294.95505 256.91206 C 293.9624 258.04399 292.92348 259.26286 292.25671 259.88023 C 291.29672 260.73356 290.47806 261.15231 289.80251 261.15231 C 289.37584 261.15231 289.02047 260.99688 288.73602 260.67688 C 288.48714 260.35688 288.36339 259.92529 288.36339 259.39196 C 288.36339 257.79196 288.77914 254.94894 289.59692 250.86007 C 290.13025 248.05118 290.39357 246.27429 290.39357 245.52763 C 290.39357 244.28319 289.5274 243.66449 287.78518 243.66449 C 286.96741 243.66449 286.18043 243.72786 285.43377 243.87008 C 285.25599 243.08786 285.02435 242.56122 284.73991 242.27677 C 284.49102 241.95678 283.98022 241.80135 283.198 241.80135 C 280.74467 241.80135 278.41245 242.57547 276.20802 244.13991 C 274.03913 245.6688 272.29393 247.709 270.97838 250.269 C 269.74863 252.62878 269.1569 255.1464 269.07669 257.78581 C 268.43297 258.48013 267.62564 259.44345 267.13645 259.88023 C 266.17645 260.73356 265.34196 261.15231 264.63085 261.15231 C 263.59975 261.15231 263.08894 260.44155 263.08894 259.01933 C 263.08894 258.02378 263.42848 255.98358 264.10403 252.89025 C 264.88625 249.26358 265.27331 246.7601 265.27331 245.37344 C 265.27331 243.06233 264.11512 241.90415 261.80402 241.90415 C 260.63069 241.90415 259.33292 242.30705 257.9107 243.12482 C 256.52403 243.9426 255.10253 245.31658 253.64475 247.23658 C 252.22253 249.12103 250.92477 251.57698 249.75143 254.59919 C 249.75143 252.64364 249.81181 250.74302 249.91847 248.89413 C 254.64736 243.73858 258.06155 239.22957 260.15932 235.38958 C 262.25709 231.51403 263.29453 227.78901 263.29453 224.1979 C 263.29453 221.95791 262.78373 220.13649 261.75262 218.74982 C 260.75707 217.3276 259.44346 216.61685 257.80791 216.61685 z M 256.69002 221.89788 C 257.15224 221.89788 257.50762 222.20573 257.75651 222.81018 C 258.0054 223.41462 258.12914 224.2808 258.12914 225.41857 C 258.12914 227.90746 257.40255 230.6871 255.94477 233.74488 C 254.52255 236.80265 252.70113 239.62983 250.49669 242.22538 C 250.95891 238.56316 251.54592 235.18066 252.25704 232.08733 C 253.0037 228.95845 253.77483 226.48665 254.55705 224.67332 C 255.33927 222.82443 256.05002 221.89788 256.69002 221.89788 z M 283.94326 246.76116 L 281.96447 256.56513 C 281.64447 258.09401 281.13367 259.32841 280.42257 260.25286 C 279.71145 261.1773 278.95617 261.64058 278.17395 261.64058 C 277.39173 261.64058 276.77304 261.36441 276.31081 260.83107 C 275.88414 260.29774 275.66835 259.47909 275.66835 258.37687 C 275.66835 256.38577 276.05241 254.50098 276.79908 252.72321 C 277.54575 250.94543 278.53566 249.52392 279.7801 248.45726 C 281.0601 247.35501 282.44993 246.79669 283.94326 246.76116 z M 335.35306 246.76116 L 333.64411 255.87127 C 333.32411 257.72015 332.79747 259.14166 332.05081 260.13722 C 331.30414 261.13277 330.51717 261.64058 329.69939 261.64058 C 328.91718 261.64058 328.29848 261.36441 327.83625 260.83107 C 327.40959 260.29774 327.19379 259.47909 327.19379 258.37687 C 327.19379 256.38577 327.56501 254.50098 328.31168 252.72321 C 329.05834 250.94543 330.0611 249.52392 331.30555 248.45726 C 332.54999 247.35501 333.89528 246.79669 335.35306 246.76116 z M 357.10682 247.13379 C 357.74682 247.13379 358.25462 247.33673 358.61018 247.7634 C 359.00129 248.15451 359.1884 248.694 359.1884 249.36955 C 359.1884 250.68511 358.58554 251.84329 357.37665 252.83885 C 356.16777 253.8344 354.51463 254.57684 352.41685 255.07462 L 352.41685 254.97182 C 352.41685 252.80294 352.86428 250.94984 353.75317 249.42095 C 354.67761 247.89206 355.79127 247.13379 357.10682 247.13379 z M 331.51114 272.45964 C 330.48002 277.1174 329.39805 280.51575 328.26028 282.64908 C 327.15806 284.78241 326.16815 285.84854 325.27926 285.84854 C 324.74592 285.84854 324.34601 285.64859 324.09713 285.25748 C 323.88379 284.86637 323.7759 284.37141 323.7759 283.76696 C 323.7759 282.34475 324.37875 280.6916 325.58764 278.80716 C 326.79653 276.92271 328.77337 274.8063 331.51114 272.45964 z "
           style="stroke-width:0.98682149;stroke-dasharray:none;stroke:none" /><path
           id="path24603"
           d="M 397.69756 216.61685 C 394.63979 216.61685 392.01257 218.65406 389.80813 222.70739 C 387.63925 226.72516 385.9861 231.70043 384.84833 237.6382 C 383.74611 243.57597 383.19077 249.27784 383.19077 254.75338 L 383.13938 259.01933 C 383.10384 259.69488 383.08798 260.60559 383.08798 261.74337 C 383.08798 263.73448 383.2434 265.1243 383.5634 265.90652 C 383.91896 266.65319 384.62971 267.02441 385.69637 267.02441 C 388.36303 267.02441 390.03202 265.6029 390.70758 262.75846 C 391.24091 260.58958 391.93583 258.52068 392.78915 256.56513 C 393.64249 254.60958 394.50567 253.04849 395.359 251.87516 C 396.21233 250.66627 396.86272 250.06341 397.32494 250.06341 C 397.71605 250.06341 397.916 250.34258 397.916 250.91146 C 397.916 251.7648 397.68436 253.31004 397.22214 255.55004 C 396.72436 258.11003 396.47689 259.88691 396.47689 260.88247 C 396.47689 262.87358 396.94016 264.40298 397.8646 265.46965 C 398.78904 266.50076 400.15018 267.02441 401.96351 267.02441 C 404.16796 267.02441 406.12895 266.42156 407.83561 265.21266 C 408.83051 264.52233 409.80513 263.69479 410.76524 262.78416 C 411.4647 263.84726 412.32053 264.7425 413.37363 265.46965 C 414.90252 266.50076 416.73978 267.02441 418.87311 267.02441 C 421.39755 267.02441 423.65355 266.12954 425.64466 264.35177 C 427.63576 262.53843 428.96522 260.14286 429.64077 257.15619 C 431.44652 257.08095 433.14845 256.8303 434.74192 256.43664 C 434.82182 257.60131 434.87958 258.68946 434.98605 259.93163 C 435.19939 262.38495 435.71018 264.17768 436.52796 265.31546 C 437.38129 266.45324 438.53948 267.02441 439.99726 267.02441 C 441.20615 267.02441 442.22775 266.71656 443.08107 266.11211 C 443.96997 265.50767 444.86483 264.40986 445.75371 262.80986 C 446.67816 261.17431 447.69677 258.82625 448.79898 255.76847 C 448.87009 257.61736 448.93346 259.00718 449.00457 259.93163 C 449.18235 262.45607 449.61394 264.26464 450.2895 265.36686 C 451.00061 266.46908 452.06674 267.02441 453.48896 267.02441 C 454.80451 267.02441 455.97854 266.65319 457.00965 265.90652 C 458.04075 265.15986 459.19894 263.77004 460.47894 261.74337 C 463.03894 257.61893 465.75821 252.19623 468.63821 245.47624 C 468.92265 244.72957 469.06223 244.14256 469.06223 243.71589 C 469.06223 242.47145 468.08816 241.85275 466.13261 241.85275 C 465.17261 241.85275 464.3698 242.03986 463.7298 242.43097 C 463.0898 242.78653 462.56615 243.49727 462.17504 244.56394 C 460.85948 248.11949 459.66961 250.94667 458.60295 253.04444 C 457.57184 255.14221 456.24239 257.61401 454.60684 260.45845 C 454.57131 258.894 454.55544 256.343 454.55544 252.78745 L 454.55544 244.51254 C 454.55544 243.55254 454.30796 242.87347 453.81019 242.48236 C 453.31241 242.0557 452.55712 241.85275 451.56157 241.85275 C 450.8149 241.85275 450.16452 242.03986 449.59564 242.43097 C 449.0623 242.78653 448.59903 243.49727 448.20792 244.56394 C 446.89237 248.11949 445.73418 251.03872 444.73862 253.31427 C 443.74307 255.58982 442.66109 257.96956 441.48777 260.45845 C 440.98999 253.91623 440.74251 248.60142 440.74251 244.51254 C 440.74251 243.55254 440.51087 242.87347 440.04865 242.48236 C 439.62199 242.0557 438.94292 241.85275 438.01847 241.85275 C 436.73847 241.85275 435.81192 242.08439 435.24304 242.54661 C 434.67412 242.97328 434.37912 243.79193 434.34359 245.00081 L 434.34359 246.86395 C 434.34359 248.08995 434.40037 249.48702 434.44638 250.84722 C 432.82808 251.20883 431.33414 251.47372 430.07764 251.55392 C 429.7932 248.81615 428.80627 246.52847 427.13517 244.67958 C 425.49962 242.79514 423.33567 241.85275 420.63345 241.85275 C 418.42901 241.85275 416.42049 242.45561 414.60716 243.66449 C 412.79384 244.83782 411.37233 246.49097 410.34121 248.6243 C 409.3101 250.72207 408.79931 253.11765 408.79931 255.81987 C 408.79931 256.50737 408.84739 257.17076 408.94065 257.82435 C 408.3121 258.50061 407.51882 259.45179 407.03896 259.88023 C 406.07896 260.73356 405.23162 261.15231 404.52051 261.15231 C 403.4894 261.15231 402.9786 260.44155 402.9786 259.01933 C 402.9786 258.02378 403.31813 255.98358 403.99369 252.89025 C 404.77591 249.26358 405.16297 246.7601 405.16297 245.37344 C 405.16297 243.06233 404.00478 241.90415 401.69368 241.90415 C 400.52034 241.90415 399.22258 242.30705 397.80036 243.12482 C 396.4137 243.9426 394.99219 245.31658 393.53441 247.23658 C 392.11219 249.12103 390.81442 251.57698 389.64109 254.59919 C 389.64109 252.64364 389.70146 250.74302 389.80813 248.89413 C 394.53701 243.73858 397.9512 239.22957 400.04897 235.38958 C 402.14675 231.51403 403.19704 227.78901 403.19704 224.1979 C 403.19704 221.95791 402.67339 220.13649 401.64228 218.74982 C 400.64673 217.3276 399.33312 216.61685 397.69756 216.61685 z M 396.57968 221.89788 C 397.0419 221.89788 397.39728 222.20573 397.64617 222.81018 C 397.89506 223.41462 398.01879 224.2808 398.01879 225.41857 C 398.01879 227.90746 397.2922 230.6871 395.83442 233.74488 C 394.41221 236.80265 392.60363 239.62983 390.3992 242.22538 C 390.86142 238.56316 391.43559 235.18066 392.14669 232.08733 C 392.89336 228.95845 393.66448 226.48665 394.44671 224.67332 C 395.22893 222.82443 395.93968 221.89788 396.57968 221.89788 z M 420.41502 247.50641 L 420.68485 247.50641 C 420.57818 248.0753 420.53066 248.63363 420.53066 249.20251 C 420.53066 250.55363 420.80982 251.83555 421.37871 253.04444 C 421.98316 254.25332 422.83349 255.24025 423.93571 255.98691 C 423.65127 257.72913 423.08009 259.05858 422.22676 259.98302 C 421.40898 260.90747 420.43491 261.37074 419.29713 261.37074 C 418.26603 261.37074 417.36816 260.8471 416.58594 259.81598 C 415.83928 258.78487 415.45521 257.3 415.45521 255.34445 C 415.45521 252.85557 415.91849 250.9391 416.84293 249.58799 C 417.80293 248.20133 418.9928 247.50641 420.41502 247.50641 z "
           style="stroke-width:0.98682149;stroke-dasharray:none;stroke:none" /><path
           id="path24609"
           d="M 500.85125 216.61685 C 497.75792 216.61685 494.9149 218.93323 492.31935 223.55543 C 489.75936 228.1421 487.72215 233.95186 486.22882 240.99185 C 484.77104 247.99628 484.04444 254.91671 484.04444 261.74337 C 484.04444 269.0678 484.58394 274.53803 485.6506 278.1647 C 486.75283 281.79135 488.57723 283.61277 491.13722 283.61277 C 493.16389 283.61277 494.80119 282.59417 496.04563 280.5675 C 497.29007 278.54085 497.90877 275.60577 497.90877 271.76578 C 497.90877 270.02356 497.75335 267.82793 497.43335 265.16127 C 497.14891 262.45905 496.77769 260.0031 496.31547 257.79865 C 497.91546 258.11865 499.13702 258.27408 499.99035 258.27408 C 500.80851 258.27408 501.46984 258.17807 502.13617 258.08134 C 502.13506 258.16391 502.12332 258.24263 502.12332 258.32547 C 502.12332 260.92102 502.78655 263.0216 504.10211 264.6216 C 505.41766 266.2216 507.1787 267.02441 509.38314 267.02441 C 512.19203 267.02441 514.51139 265.52669 516.36028 262.54002 C 516.85805 263.92669 517.5975 265.0245 518.5575 265.84228 C 519.55305 266.6245 520.63502 267.02441 521.80836 267.02441 C 523.33725 267.02441 524.91417 266.40571 526.54972 265.16127 C 528.18528 263.91682 529.73053 262.38741 531.1883 260.57409 C 531.38314 260.34848 531.55077 260.08198 531.68942 259.80314 C 531.85737 259.59459 532.04042 259.39824 532.20339 259.18637 C 533.30562 257.79971 534.41627 256.0545 535.51849 253.95673 C 536.01627 254.52562 536.54291 255.20469 537.1118 255.98691 C 537.68068 256.73358 538.14396 257.50769 538.49952 258.32547 C 538.89065 259.14325 539.10645 260.02227 539.14198 260.94672 L 537.70286 260.77968 C 537.09842 260.67301 536.55893 260.62549 536.09671 260.62549 C 534.78115 260.62549 533.79124 260.96502 533.11569 261.64058 C 532.44013 262.31613 532.1006 263.10609 532.1006 264.03053 C 532.1006 265.0972 532.57971 266.06828 533.53971 266.92161 C 534.53526 267.77495 535.95677 268.19369 537.80566 268.19369 C 539.76121 268.19369 541.44603 267.59083 542.86826 266.38195 C 545.25048 266.31083 547.24316 265.87924 548.84315 265.09702 C 550.47871 264.27924 552.19223 262.77853 553.97 260.57409 C 554.01405 260.51845 554.04447 260.45196 554.08564 260.3942 C 554.38733 261.25254 554.73109 262.0677 555.13928 262.80986 C 556.70373 265.61875 559.17552 267.02441 562.55329 267.02441 C 564.89995 267.02441 567.00053 266.25329 568.84942 264.72439 C 569.38275 264.29773 569.76981 263.77109 570.0187 263.13109 C 570.30314 262.4911 570.44272 261.82786 570.44272 261.15231 C 570.44272 260.47675 570.30314 259.90558 570.0187 259.44336 C 569.76981 258.94558 569.43027 258.6981 569.00361 258.6981 C 568.6125 258.6981 568.22543 258.88222 567.83433 259.23777 C 567.19433 259.80666 566.48358 260.26993 565.70135 260.62549 C 564.91913 260.98104 564.24006 261.15231 563.67117 261.15231 C 562.56896 261.15231 561.70278 260.8573 561.06278 260.25286 C 560.45833 259.61286 560.0109 258.57842 559.72646 257.15619 C 559.47757 255.69842 559.35383 253.6899 559.35383 251.1299 C 559.35383 250.13435 559.38551 248.74452 559.45662 246.96675 L 565.97119 246.96675 C 569.98896 246.96675 571.99748 245.74519 571.99748 243.29186 C 571.99748 242.61631 571.87374 242.15303 571.62485 241.90415 C 571.37597 241.65526 570.96022 241.53152 570.39133 241.53152 L 564.41643 241.53152 C 569.03865 237.44264 571.35502 232.63862 571.35502 227.12752 C 571.35502 225.13641 570.92343 223.48327 570.07009 222.16772 C 569.21677 220.85217 568.04274 220.18893 566.5494 220.18893 C 564.52274 220.18893 562.62212 221.16002 560.84434 223.08001 C 559.10212 225 557.6044 227.56686 556.35996 230.80241 C 555.11551 234.03796 554.20182 237.62041 553.59737 241.53152 L 550.5521 241.53152 C 548.9521 241.53152 548.14929 242.52144 548.14929 244.51254 C 548.14929 245.36587 548.33341 245.98457 548.68896 246.37568 C 549.08008 246.76679 549.80667 246.96675 550.87333 246.96675 L 552.95491 246.96675 C 552.84824 248.56675 552.78787 250.15652 552.78787 251.72096 C 552.78787 252.8685 552.8426 253.95849 552.94206 254.99752 C 552.62338 255.11173 552.31714 255.294 552.04261 255.61428 C 549.69596 258.52983 547.65575 260.32256 545.91353 260.99811 C 545.98464 260.35812 546.01632 259.86316 546.01632 259.5076 C 546.01632 258.26316 545.72132 257.12081 545.11687 256.08971 C 544.54799 255.02304 543.6848 253.74112 542.54703 252.24778 C 541.7648 251.28778 541.17779 250.48498 540.78668 249.84498 C 540.43112 249.20498 540.25986 248.61796 540.25986 248.08463 C 540.25986 247.19574 540.58356 246.11377 541.22356 244.83377 C 541.47245 244.37155 541.65955 243.90828 541.80177 243.44606 C 541.94399 242.98383 542.02021 242.6443 542.02021 242.43097 C 542.02021 242.03986 541.82025 241.7607 541.42914 241.58292 C 541.03803 241.40514 540.34312 241.31308 539.34757 241.31308 C 537.21424 241.31308 535.82142 242.10005 535.14587 243.66449 C 534.36364 245.51338 533.56083 247.30611 532.74306 249.04832 C 531.92528 250.75499 531.21452 252.12897 530.61008 253.16008 C 529.66454 254.64592 528.24557 256.54531 526.43408 258.80089 C 526.07037 259.1803 525.67887 259.60391 525.38044 259.88023 C 524.42045 260.73356 523.6018 261.15231 522.92624 261.15231 C 522.49957 261.15231 522.14419 260.99688 521.85975 260.67688 C 521.61086 260.35688 521.48713 259.92529 521.48713 259.39196 C 521.48713 257.79196 521.89002 254.94894 522.7078 250.86007 C 523.24114 248.05118 523.5173 246.27429 523.5173 245.52763 C 523.5173 244.28319 522.63828 243.66449 520.89606 243.66449 C 520.07828 243.66449 519.30416 243.72786 518.5575 243.87008 C 518.37973 243.08786 518.14809 242.56122 517.86364 242.27677 C 517.61475 241.95678 517.09111 241.80135 516.30888 241.80135 C 513.85556 241.80135 511.53619 242.57547 509.33175 244.13991 C 507.16286 245.6688 505.41766 247.709 504.10211 250.269 C 503.81265 250.82444 503.56977 251.39417 503.344 251.9651 C 503.31145 251.96911 503.2733 251.97394 503.24121 251.97795 C 501.49899 252.22684 499.92206 252.35058 498.49984 252.35058 C 498.07317 252.35058 497.70195 252.33471 497.38195 252.29918 C 496.3864 252.22807 495.53607 252.19639 494.82496 252.19639 C 494.43385 252.19639 493.98641 252.45971 493.48863 252.99304 C 492.99086 253.52637 492.55926 254.14507 492.20371 254.85618 C 491.88373 255.56729 491.74415 256.1543 491.77969 256.61652 C 492.41969 259.49652 492.91464 262.24449 493.2702 264.84004 C 493.6613 267.43559 493.86126 270.11033 493.86126 272.88366 C 493.86126 276.58143 493.32177 278.43453 492.25511 278.43453 C 491.68622 278.43453 491.28332 276.50222 491.03443 272.62668 C 490.78554 268.78669 490.6618 265.03296 490.6618 261.37074 C 490.6618 258.73963 490.83307 255.68082 491.18862 252.19639 C 501.17972 242.34751 506.18368 233.24729 506.18368 224.89176 C 506.18368 222.36731 505.70457 220.35879 504.74457 218.86546 C 503.82012 217.37214 502.52235 216.61685 500.85125 216.61685 z M 499.72052 221.89788 C 500.6094 221.89788 501.05684 222.99271 501.05684 225.16159 C 501.02128 228.21937 500.24717 231.49697 498.71827 235.01696 C 497.18939 238.5014 494.99675 241.86806 492.15231 245.10361 C 492.82787 241.12139 493.63068 237.35183 494.55512 233.79628 C 495.47956 230.20517 496.40611 227.33048 497.33056 225.16159 C 498.29056 222.99271 499.08052 221.89788 499.72052 221.89788 z M 565.11029 225.31578 C 565.89251 225.31578 566.29242 226.36607 566.29242 228.46384 C 566.29242 230.31273 565.75293 232.36878 564.68626 234.64433 C 563.65516 236.88433 562.09407 238.92153 559.99629 240.73487 C 560.38741 237.85487 560.86652 235.23065 561.43541 232.88398 C 562.03985 230.50176 562.65855 228.66151 563.29855 227.34596 C 563.9741 225.99485 564.57696 225.31578 565.11029 225.31578 z M 517.05414 246.76116 L 515.0882 256.56513 C 514.7682 258.09401 514.24456 259.32841 513.53345 260.25286 C 512.82234 261.1773 512.0799 261.64058 511.29768 261.64058 C 510.51546 261.64058 509.89676 261.36441 509.43454 260.83107 C 509.00787 260.29774 508.79208 259.47909 508.79208 258.37687 C 508.79208 256.38577 509.1633 254.50098 509.90996 252.72321 C 510.65663 250.94543 511.6594 249.52392 512.90383 248.45726 C 514.18383 247.35501 515.56081 246.79669 517.05414 246.76116 z "
           style="stroke-width:0.98682149;stroke-dasharray:none;stroke:none" /><path
           d="m 172.09997,299.16933 q -2.24,0 -3.36,-1.01333 -1.12,-1.06667 -1.12,-2.93333 0,-1.86667 1.44,-3.09333 1.49333,-1.28 3.68,-1.28 1.97333,0 3.2,0.96 1.22666,0.96 1.22666,2.72 0,2.13333 -1.38666,3.41333 -1.38667,1.22666 -3.68,1.22666 z m -0.42667,28.63999 q -3.46666,0 -5.06666,-2.45334 -1.54667,-2.45333 -1.54667,-6.50666 0,-2.4 0.58667,-6.13333 0.64,-3.78666 1.6,-7.03999 0.48,-1.70667 1.28,-2.34667 0.8,-0.64 2.56,-0.64 2.72,0 2.72,1.81333 0,1.33334 -1.01334,6.18667 -1.28,5.86666 -1.28,7.94666 0,1.6 0.42667,2.45333 0.42667,0.85333 1.44,0.85333 0.96,0 2.4,-1.33333 1.44,-1.33333 3.83999,-4.21333 0.64,-0.74667 1.44,-0.74667 0.69334,0 1.06667,0.64 0.42667,0.64 0.42667,1.76 0,2.13333 -1.01334,3.30667 -5.27999,6.45333 -9.86666,6.45333 z"
           id="path24617"
           style="stroke-width:0.98682149;stroke-dasharray:none;stroke:none" /><path
           d="m 187.03331,307.75599 q -0.10667,2.66667 -0.10667,4.16 0,3.84 0.37334,6.02666 0.42666,2.13334 1.33333,3.09334 0.96,0.90666 2.61333,0.90666 0.85333,0 2.02667,-0.53333 1.17333,-0.53333 2.13333,-1.38667 0.58666,-0.53333 1.17333,-0.53333 0.64,0 1.01333,0.74667 0.42667,0.69333 0.42667,1.70666 0,1.01334 -0.42667,1.97333 -0.37333,0.96 -1.17333,1.6 -2.77333,2.29334 -6.29333,2.29334 -5.06666,0 -7.41333,-4.21334 -2.34666,-4.26666 -2.34666,-11.09332 0,-2.34667 0.16,-4.74667 h -2.08 q -1.6,0 -2.18667,-0.58666 -0.53333,-0.58667 -0.53333,-1.86667 0,-2.98666 2.4,-2.98666 h 3.04 q 0.90666,-5.86667 2.77333,-10.72 1.86666,-4.85333 4.48,-7.73333 2.66666,-2.87999 5.70666,-2.87999 2.24,0 3.52,1.97333 1.28,1.97333 1.28,4.96 0,8.26666 -6.93333,14.39999 h 5.97333 q 0.85333,0 1.22666,0.37333 0.37334,0.37333 0.37334,1.38667 0,3.67999 -6.02667,3.67999 z m 5.65333,-21.65332 q -0.8,0 -1.81333,2.02667 -0.96,1.97333 -1.86667,5.54666 -0.85333,3.52 -1.44,7.84 3.14667,-2.72 4.69333,-6.08 1.6,-3.41333 1.6,-6.18666 0,-3.14667 -1.17333,-3.14667 z"
           id="path24619"
           style="stroke-width:0.98682149;stroke-dasharray:none;stroke:none" /><path
           id="path24621"
           d="M 229.26975 277.40659 C 226.24753 277.40659 223.63616 279.30722 221.43171 283.11165 C 219.26283 286.88054 217.60969 291.46875 216.47191 296.87319 C 215.33413 302.24207 214.76296 307.21734 214.76296 311.804 C 214.76296 316.9951 215.58161 320.96463 217.21716 323.7024 C 218.85271 326.44017 221.46409 327.81415 225.0552 327.81415 C 227.43742 327.81415 229.61421 326.90345 231.56976 325.09011 C 233.56087 323.27678 234.90616 320.89705 235.61727 317.94594 C 237.29522 317.87602 238.85115 317.60979 240.34579 317.26493 C 240.69798 319.66589 241.31028 321.78753 242.23463 323.54821 C 243.76352 326.39265 246.09573 327.81415 249.22462 327.81415 C 251.50017 327.81415 253.52453 327.19845 255.3023 325.98956 C 256.17666 325.40666 257.01254 324.75074 257.82076 324.01078 L 257.82076 324.02363 C 258.01409 324.49918 258.24399 324.95106 258.50177 325.35995 C 259.56843 326.99551 261.25326 327.81415 263.56437 327.81415 C 265.80616 327.81415 268.17976 326.64445 270.66999 324.33201 C 270.77477 324.83718 270.88651 325.29915 271.02977 325.68118 C 271.59867 327.1034 272.5569 327.81415 273.908 327.81415 C 275.01022 327.81415 275.81303 327.52215 276.31081 326.95325 C 276.84414 326.34881 277.30741 325.21932 277.69853 323.54821 C 278.23186 321.37932 278.92677 319.31042 279.7801 317.35487 C 280.66899 315.39932 281.51933 313.83823 282.3371 312.6649 C 283.19043 311.45602 283.85366 310.85316 284.31588 310.85316 C 284.70699 310.85316 284.8941 311.13232 284.8941 311.70121 C 284.8941 312.55454 284.66246 314.09979 284.20024 316.33978 C 283.70246 318.89977 283.45499 320.67666 283.45499 321.67222 C 283.45499 323.66332 283.91826 325.19273 284.8427 326.25939 C 285.76714 327.29051 287.14113 327.81415 288.95446 327.81415 C 291.19446 327.81415 293.18714 327.19845 294.92936 325.98956 C 295.78627 325.40686 296.61017 324.75043 297.40926 324.01078 C 297.60254 325.09813 297.8597 326.02103 298.23161 326.63202 C 298.76494 327.41425 299.5836 327.81415 300.68581 327.81415 C 301.78804 327.81415 302.59085 327.52215 303.08862 326.95325 C 303.62195 326.34881 304.08523 325.21932 304.47634 323.54821 C 305.04523 321.2371 305.81935 318.99694 306.8149 316.82805 C 307.81046 314.62361 308.87659 312.81804 310.01436 311.43137 C 311.18769 310.04471 312.25382 309.3498 313.21382 309.3498 C 313.60493 309.3498 313.92863 309.51807 314.17751 309.83807 C 314.46195 310.15807 314.60154 310.63718 314.60154 311.27718 C 314.60154 312.3794 314.27485 313.32179 313.5993 314.10402 C 312.92375 314.85068 311.79724 315.56144 310.2328 316.23699 C 308.81058 316.84144 308.09982 317.83135 308.09982 319.21801 C 308.09982 321.81356 308.93431 323.8983 310.60543 325.46274 C 312.27653 327.02719 314.48501 327.81415 317.22278 327.81415 C 319.46278 327.81415 321.39508 327.22714 323.03064 326.05381 C 324.66619 324.88047 326.28765 323.30654 327.88765 321.35099 C 327.9978 321.22344 328.0396 321.03297 328.13179 320.88841 C 328.38645 320.57922 328.6592 320.27987 328.90274 319.96327 C 330.00496 318.5766 331.10278 316.84425 332.205 314.74648 C 332.70278 315.31536 333.24226 315.98159 333.81115 316.76381 C 334.38004 317.51047 334.84331 318.29744 335.19887 319.11522 C 335.58999 319.93299 335.79295 320.79917 335.82848 321.72361 L 334.38937 321.56942 C 333.78492 321.46276 333.25828 321.41523 332.79606 321.41523 C 331.4805 321.41523 330.47774 321.74192 329.80219 322.41747 C 329.12664 323.09303 328.7871 323.89583 328.7871 324.82028 C 328.7871 325.88695 329.27906 326.84518 330.23906 327.69851 C 331.23461 328.55184 332.65612 328.98343 334.50501 328.98343 C 336.10501 328.98343 337.52651 328.56769 338.77096 327.74991 C 340.0154 326.93213 340.97363 325.866 341.64919 324.55045 C 342.3603 323.19934 342.71567 321.77783 342.71567 320.2845 C 342.71567 319.04005 342.40782 317.91056 341.80338 316.87945 C 341.23449 315.81279 340.38415 314.53086 339.24638 313.03753 C 338.46415 312.07753 337.87714 311.27472 337.48603 310.63472 C 337.13047 309.99472 336.95921 309.40771 336.95921 308.87438 C 336.95921 307.98549 337.27006 306.90352 337.91006 305.62352 C 338.15895 305.1613 338.3589 304.69802 338.50112 304.2358 C 338.64334 303.77357 338.71956 303.43404 338.71956 303.22071 C 338.71956 302.8296 338.5196 302.55044 338.12849 302.37266 C 337.73738 302.19488 337.04247 302.10283 336.04692 302.10283 C 333.91359 302.10283 332.50792 302.88979 331.83237 304.45424 C 330.7657 306.90757 329.89953 308.83987 329.22397 310.26209 C 328.58397 311.68431 327.93659 312.90586 327.29659 313.93698 C 326.39916 315.3472 325.05506 317.15293 323.37757 319.25656 C 322.84505 319.80019 322.33696 320.30606 321.91276 320.65713 C 320.88164 321.51046 319.81551 321.94205 318.7133 321.94205 C 317.68218 321.94205 316.78732 321.66289 316.04065 321.094 C 315.32955 320.48955 314.91081 319.70259 314.76858 318.74259 C 317.18636 317.4626 318.88702 316.00941 319.88258 314.37385 C 320.87813 312.7383 321.38594 310.93272 321.38594 308.97717 C 321.38594 307.19939 320.8306 305.71452 319.72839 304.50563 C 318.66172 303.29675 317.24021 302.69389 315.46244 302.69389 C 313.54244 302.69389 311.47355 303.69965 309.26911 305.72631 C 307.06467 307.71742 305.11652 310.9445 303.40985 315.38894 C 303.40985 313.43338 303.45738 311.51991 303.56404 309.67103 C 308.29293 304.51548 311.70711 300.01932 313.80489 296.17933 C 315.90266 292.30378 316.95295 288.57875 316.95295 284.98764 C 316.95295 282.74765 316.44215 280.92623 315.41104 279.53957 C 314.41549 278.11735 313.08903 277.40659 311.45348 277.40659 C 308.39571 277.40659 305.76849 279.43096 303.56404 283.48428 C 301.39516 287.50205 299.74202 292.49017 298.60424 298.42795 C 297.50202 304.36571 296.95954 310.06758 296.95954 315.54313 C 296.95954 316.39009 297.0116 316.73076 297.02378 317.47052 C 295.8422 318.83289 294.8014 319.95683 294.01706 320.65713 C 293.05706 321.51046 292.22257 321.94205 291.51146 321.94205 C 290.48035 321.94205 289.96955 321.2313 289.96955 319.80908 C 289.96955 318.81352 290.30909 316.77332 290.98464 313.67999 C 291.76686 310.05333 292.15392 307.537 292.15392 306.15034 C 292.15392 303.83923 290.99573 302.69389 288.68463 302.69389 C 287.51129 302.69389 286.21353 303.09679 284.79131 303.91457 C 283.40464 304.73234 281.98314 306.10633 280.52536 308.02633 C 279.06759 309.94632 277.75398 312.43396 276.58064 315.49173 C 276.72286 313.92729 276.89413 312.61368 277.10746 311.54702 C 277.3208 310.48035 277.61281 309.23011 277.96836 307.80789 C 278.50169 305.81678 278.76501 304.53485 278.76501 303.96597 C 278.76501 303.46819 278.62543 303.12865 278.34099 302.95088 C 278.05654 302.7731 277.56159 302.69389 276.85048 302.69389 C 275.53493 302.69389 274.50048 302.94137 273.75381 303.43915 C 273.04271 303.90137 272.5319 304.6438 272.2119 305.67492 C 270.99402 309.52603 270.36209 313.58305 270.27167 317.83029 C 269.26496 318.98431 268.35899 319.97344 267.67612 320.60573 C 266.71612 321.49462 265.91331 321.94205 265.27331 321.94205 C 264.59775 321.94205 264.11864 321.66289 263.8342 321.094 C 263.54975 320.52511 263.41017 319.70646 263.41017 318.6398 C 263.41017 317.25313 263.82892 314.59722 264.68225 310.68612 C 265.3578 307.45057 265.69734 305.39453 265.69734 304.50563 C 265.69734 303.29675 264.79948 302.69389 262.98615 302.69389 C 261.81282 302.69389 260.94963 302.89684 260.4163 303.3235 C 259.88297 303.75017 259.46423 304.53714 259.14423 305.67492 C 258.50423 307.8438 257.96474 310.19186 257.53807 312.7163 C 257.21061 314.80012 257.0517 316.49806 256.9984 317.95879 C 255.93073 319.13098 254.95595 320.12406 254.18442 320.72137 C 253.0822 321.53915 251.80027 321.94205 250.3425 321.94205 C 249.41805 321.94205 248.66277 321.63419 248.09388 321.02975 C 247.52499 320.38976 247.12209 319.35232 246.8732 317.89454 C 250.89097 312.41899 254.07352 306.88839 256.42019 301.30617 C 258.76685 295.72397 259.94088 290.81206 259.94088 286.58095 C 259.94088 283.62984 259.44592 281.37384 258.45037 279.8094 C 257.49037 278.20941 256.14807 277.40659 254.44141 277.40659 C 251.41919 277.40659 248.80781 279.39927 246.60337 283.38149 C 244.43449 287.3637 242.78134 292.12319 241.64356 297.66984 C 240.60446 302.89892 240.08406 307.57225 240.02456 311.72691 C 238.56409 312.03834 237.19613 312.26996 236.0413 312.34367 C 235.75685 309.71256 234.87484 307.50408 233.3815 305.72631 C 231.88817 303.91298 229.94302 302.92307 227.5608 302.74529 C 230.1208 299.58085 231.95805 296.55372 233.06027 293.67373 C 234.16249 290.79374 234.71783 287.9032 234.71783 284.98764 C 234.71783 282.74765 234.21002 280.92623 233.21446 279.53957 C 232.21891 278.11735 230.9053 277.40659 229.26975 277.40659 z M 228.04907 282.68763 C 228.51129 282.68763 228.86666 282.99548 229.11556 283.59992 C 229.4 284.20436 229.53958 285.07054 229.53958 286.20832 C 229.53958 288.76832 228.82883 291.70338 227.40661 295.01005 C 226.01994 298.28115 224.151 302.06656 221.80434 306.36877 C 222.1599 302.06656 222.69939 298.09704 223.4105 294.47038 C 224.12161 290.84372 224.87989 287.98487 225.69766 285.88709 C 226.55099 283.75376 227.33796 282.68763 228.04907 282.68763 z M 253.27213 282.68763 C 254.26768 282.68763 254.76264 284.04577 254.76264 286.74799 C 254.76264 290.19687 254.0202 294.01396 252.52687 298.20951 C 251.03354 302.3695 249.02501 306.52612 246.50058 310.68612 C 246.57168 306.66834 247.00327 302.48004 247.7855 298.10671 C 248.56772 293.73339 249.46558 290.07172 250.49669 287.12062 C 251.5278 284.16951 252.45435 282.68763 253.27213 282.68763 z M 310.33559 282.68763 C 310.79781 282.68763 311.15319 282.99548 311.40208 283.59992 C 311.65097 284.20436 311.77471 285.07054 311.77471 286.20832 C 311.77471 288.6972 311.04812 291.47685 309.59034 294.53463 C 308.16812 297.5924 306.35955 300.41957 304.15511 303.01512 C 304.61733 299.35291 305.20434 295.9704 305.91545 292.87707 C 306.66212 289.74819 307.4204 287.2764 308.20262 285.46306 C 308.98484 283.61418 309.69559 282.68763 310.33559 282.68763 z M 264.63085 290.84689 C 263.17307 290.84689 261.95152 291.27849 260.95597 292.13182 C 259.99597 292.94959 259.51685 293.98404 259.51685 295.22848 C 259.51685 296.47292 259.88807 297.447 260.63474 298.15811 C 261.3814 298.83366 262.49506 299.1732 263.98839 299.1732 C 265.51728 299.1732 266.75168 298.75745 267.67612 297.93967 C 268.60056 297.08634 269.06384 295.95684 269.06384 294.53463 C 269.06384 293.36129 268.64808 292.45059 267.83031 291.81059 C 267.01253 291.17059 265.9464 290.84689 264.63085 290.84689 z M 226.55856 307.97493 L 226.71275 307.97493 C 226.57052 308.82826 226.49431 309.49449 226.49431 309.99226 C 226.49431 311.34337 226.78632 312.6253 227.35521 313.83418 C 227.95965 315.04307 228.80998 316.01714 229.91221 316.76381 C 229.62776 318.50603 229.05659 319.84832 228.20326 320.77277 C 227.34993 321.69722 226.37585 322.16049 225.27363 322.16049 C 224.24252 322.16049 223.33182 321.621 222.5496 320.55433 C 221.80293 319.48767 221.43171 317.94242 221.43171 315.91576 C 221.43171 313.49798 221.91083 311.58152 222.87083 310.1593 C 223.86638 308.70153 225.10078 307.97493 226.55856 307.97493 z "
           style="stroke-width:0.98682149;stroke-dasharray:none;stroke:none" /><path
           d="m 353.16651,315.06266 q -1.06667,0 -1.76,-0.48 -0.69333,-0.48 -0.69333,-1.49334 l 0.0533,-0.42666 q 0.90667,-5.97333 2.45333,-13.59999 1.54667,-7.62667 2.88,-13.17333 0.85333,-3.41333 4.64,-3.41333 3.41333,0 3.41333,2.18666 0,0.48 -0.16,1.06667 -1.38667,5.65333 -3.68,13.70666 -2.29333,7.99999 -4.37333,13.91999 -0.58666,1.70667 -2.77333,1.70667 z m -2.02667,12.74666 q -2.34666,0 -3.57333,-1.28 -1.17333,-1.28 -1.17333,-3.36 0,-2.4 1.33333,-3.84 1.38667,-1.44 3.84,-1.44 2.34667,0 3.52,1.17333 1.22666,1.12 1.22666,3.36 0,2.45333 -1.38666,3.94667 -1.38667,1.44 -3.78667,1.44 z"
           id="path24633"
           style="stroke-width:0.98682149;stroke-dasharray:none;stroke:none" /></g><path
         id="path24869"
         style="font-variation-settings:normal;opacity:1;fill:#000000;fill-opacity:1;stroke:#000000;stroke-width:3.61835;stroke-linecap:butt;stroke-linejoin:miter;stroke-miterlimit:4;stroke-dasharray:none;stroke-dashoffset:0;stroke-opacity:1;stop-color:#000000;stop-opacity:1"
         d="M 117.85638 66.276913 C 117.51074 66.361376 117.06289 66.607167 116.44911 66.928048 C 109.85145 71.282923 102.53893 74.294471 95.17526 76.994586 C 89.996035 78.727205 87.105777 79.776787 81.825223 81.22696 C 75.416319 82.987002 68.888848 84.191411 62.351664 85.316084 C 58.531378 86.190968 58.336762 85.419392 58.636982 92.179041 C 58.665582 92.824132 64.077086 93.592402 64.342126 93.637582 C 65.443244 93.825342 66.536922 94.012265 67.638431 94.197558 C 69.7747 94.544117 71.92388 94.806445 74.066227 95.122168 C 73.657688 96.051251 73.546186 97.132592 74.307111 98.32575 C 75.255108 99.792251 76.14494 101.28961 76.956833 102.8316 C 74.83677 103.81557 72.737815 104.83986 70.605106 105.80077 C 63.763053 109.03561 56.905702 112.2496 50.256759 115.89336 C 45.884633 118.28936 42.660916 120.28163 38.45345 122.95165 C 36.353132 124.2845 34.267459 125.66434 32.177791 127.01473 C 26.240287 131.15943 20.303827 135.28456 14.770763 139.99835 C 12.072466 142.29713 8.0987385 145.86168 5.9214506 148.80169 C 4.7954018 150.32219 3.9869553 152.06742 3.0181662 153.69822 C 2.8558264 154.87361 2.5669085 156.0276 2.5363985 157.21435 C 2.4861696 159.16585 2.8984445 161.01434 3.4872559 162.80108 C 0.70406486 164.3095 -2.1311678 165.72008 -4.8042201 167.39809 C -6.8793581 168.80694 -9.0031583 170.13506 -11.029166 171.61744 C -19.998357 178.17999 -28.235599 186.02023 -34.711853 195.18851 C -38.639309 201.67524 -42.667332 208.6867 -41.913013 216.62385 C -41.009093 221.22023 -34.670045 219.90493 -35.573964 215.30856 C -35.837373 209.14189 -32.405135 203.65465 -29.349018 198.6265 C -23.284254 190.11105 -15.616315 182.79798 -7.251093 176.69629 C -5.3419749 175.30376 -3.3379118 174.04526 -1.3811337 172.72437 C 1.1860751 171.13609 3.8995257 169.78477 6.5680336 168.34875 C 7.5589979 169.76435 8.434126 171.27465 9.6234552 172.47694 C 10.651024 173.31905 11.604984 174.26286 12.704233 175.00334 C 17.068889 177.94346 22.641431 179.28206 27.816526 179.23571 C 29.148334 179.22381 30.47051 179.00152 31.797448 178.8841 C 33.003517 178.54126 34.240297 178.31022 35.410706 177.85531 C 39.514652 176.26022 43.607595 172.88559 44.893923 168.41386 C 45.227093 167.25565 45.207253 166.02968 45.363013 164.83262 C 45.087843 163.59048 45.018966 162.2697 44.538937 161.09511 C 44.104607 160.03231 43.415007 159.08524 42.662578 158.23012 C 39.028182 154.09967 33.838375 153.45322 28.716671 153.75031 C 27.139402 154.01155 25.53699 154.18655 23.975062 154.53167 C 18.841807 155.66583 13.908201 157.47507 9.1416875 159.68866 C 8.922531 158.70874 8.8265204 157.69625 8.9008036 156.65437 C 8.9456036 156.02528 9.180731 155.41967 9.3191809 154.80515 C 16.429424 145.4842 26.248026 138.87899 35.676946 132.28892 C 47.490645 124.09573 60.293199 117.70834 73.204116 111.59587 C 75.215733 110.70157 77.188591 109.73871 79.188178 108.82204 C 79.204949 108.90589 79.236987 108.98513 79.251569 109.06947 C 79.515698 110.59717 79.261264 114.11666 80.760262 114.99479 C 84.895258 117.41713 86.290248 114.14352 87.796607 111.62191 C 90.313599 107.62041 93.149016 103.95169 96.03737 100.31822 C 97.010293 99.769739 98.029142 99.313797 98.991367 98.742476 C 101.00256 97.538589 102.92328 95.898389 101.99608 93.168765 C 104.30108 90.530187 106.56295 87.871278 108.95635 85.263993 C 112.087 81.727086 115.15641 78.141249 118.23672 74.559343 C 118.73874 73.975594 119.86548 73.598381 119.75809 72.827325 C 119.7408 72.703179 119.73669 72.738849 119.72006 72.618962 C 119.71905 72.611721 119.72106 72.613166 119.72006 72.60594 C 118.99744 67.39678 118.86864 66.029547 117.85638 66.276913 z M 105.26703 79.820509 C 104.94278 80.195753 104.62905 80.579145 104.30349 80.953483 C 101.58299 84.037308 98.822247 87.099927 96.113439 90.199592 C 94.70004 90.121262 93.19034 90.078155 92.398756 90.056343 C 87.082556 90.222854 81.81327 89.653918 76.563812 88.923369 C 78.807618 88.4075 81.086846 88.056729 83.30856 87.438782 C 88.841334 85.899898 91.678746 84.895233 97.10233 83.089204 C 99.869349 82.1132 102.56297 80.955418 105.26703 79.820509 z M 61.464197 86.40999 C 61.320158 86.36998 61.894169 86.298439 61.920609 86.449058 C 61.9259 86.479251 61.915498 86.471268 61.920609 86.501149 C 61.782319 86.468661 61.564994 86.438154 61.464197 86.40999 z M 80.379919 95.994689 C 83.41302 96.325197 86.466714 96.423054 89.520828 96.463505 C 87.26789 97.689335 85.05052 98.992952 82.750724 100.12288 C 82.025201 98.715247 81.216014 97.344031 80.379919 95.994689 z M 29.680206 160.1705 C 32.748833 160.1445 36.378271 160.16999 38.326669 163.04851 C 38.641558 163.51364 38.960703 164.011 39.100033 164.55914 C 39.206163 164.97668 39.06752 165.41726 39.04932 165.84839 C 38.222381 168.90851 35.48122 170.9517 32.634203 171.94301 C 31.837554 172.22039 31.005599 172.34178 30.18733 172.54205 C 25.233595 172.96684 19.905286 172.22932 15.72162 169.24731 C 14.978281 168.71748 14.353458 168.04349 13.667768 167.43716 C 13.089227 166.82756 12.695726 166.0269 12.171753 165.34051 C 16.475558 163.37815 20.925455 161.77021 25.559824 160.79559 C 26.921053 160.50935 28.305727 160.37959 29.680206 160.1705 z " /></g></g></svg>
