999
"DXF R12 Output" (www.mydxf.blogspot.com)
 0 
SECTION
 2 
HEADER
 9 
$ACADVER
 1 
AC1009
 9 
$EXTMIN
 10 
 0 
 20 
 0 
 9 
$EXTMAX
 10 
 8.5 
 20 
 11 
 0 
ENDSEC
 0 
SECTION
 2 
ENTITIES
0
LINE
8
Layer 1
10
22.806800
20
15.000600
11
22.806800
21
9.013340
0
LINE
8
Layer 1
10
22.806800
20
9.013340
11
22.806800
21
0.017513
0
LINE
8
Layer 1
10
22.806800
20
0.017513
11
10.800000
21
0.017513
0
LINE
8
Layer 1
10
10.800000
20
0.017513
11
10.800000
21
9.013340
0
LINE
8
Layer 1
10
10.800000
20
9.013340
11
1.764250
21
9.013340
0
LINE
8
Layer 1
10
1.764250
20
9.013340
11
1.764250
21
15.000600
0
LINE
8
Layer 1
10
1.764250
20
15.000600
11
22.806800
21
15.000600
0
LINE
8
Layer 1
10
8.690700
20
14.634100
11
8.265907
21
14.315427
0
LINE
8
Layer 1
10
8.265907
20
14.315427
11
7.998895
21
13.532853
0
LINE
8
Layer 1
10
7.998895
20
13.532853
11
7.909890
21
12.635653
0
LINE
8
Layer 1
10
7.909890
20
12.635653
11
7.908539
21
12.529947
0
LINE
8
Layer 1
10
7.908539
20
12.529947
11
7.740489
21
12.372996
0
LINE
8
Layer 1
10
7.740489
20
12.372996
11
7.522336
21
12.300278
0
LINE
8
Layer 1
10
7.522336
20
12.300278
11
7.298373
21
12.417705
0
LINE
8
Layer 1
10
7.298373
20
12.417705
11
7.229494
21
12.825693
0
LINE
8
Layer 1
10
7.229494
20
12.825693
11
7.235199
21
13.043743
0
LINE
8
Layer 1
10
7.235199
20
13.043743
11
7.585510
21
13.043700
0
LINE
8
Layer 1
10
7.585510
20
13.043700
11
7.828801
21
13.091909
0
LINE
8
Layer 1
10
7.828801
20
13.091909
11
7.909887
21
13.236543
0
LINE
8
Layer 1
10
7.909887
20
13.236543
11
7.889763
21
13.309261
0
LINE
8
Layer 1
10
7.889763
20
13.309261
11
7.823787
21
13.328763
0
LINE
8
Layer 1
10
7.823787
20
13.328763
11
7.502220
21
13.328800
0
LINE
8
Layer 1
10
7.502220
20
13.328800
11
7.782141
21
13.678186
0
LINE
8
Layer 1
10
7.782141
20
13.678186
11
7.875456
21
14.083469
0
LINE
8
Layer 1
10
7.875456
20
14.083469
11
7.806576
21
14.343428
0
LINE
8
Layer 1
10
7.806576
20
14.343428
11
7.617053
21
14.446748
0
LINE
8
Layer 1
10
7.617053
20
14.446748
11
7.309895
21
14.295814
0
LINE
8
Layer 1
10
7.309895
20
14.295814
11
7.068713
21
13.890627
0
LINE
8
Layer 1
10
7.068713
20
13.890627
11
6.919439
21
13.328800
0
LINE
8
Layer 1
10
6.919439
20
13.328800
11
6.755740
21
13.328800
0
LINE
8
Layer 1
10
6.755740
20
13.328800
11
6.626590
21
13.172265
0
LINE
8
Layer 1
10
6.626590
20
13.172265
11
6.655324
21
13.074443
0
LINE
8
Layer 1
10
6.655324
20
13.074443
11
6.772959
21
13.043738
0
LINE
8
Layer 1
10
6.772959
20
13.043738
11
6.885000
21
13.043700
0
LINE
8
Layer 1
10
6.885000
20
13.043700
11
6.876390
21
12.794945
0
LINE
8
Layer 1
10
6.876390
20
12.794945
11
7.022766
21
12.193320
0
LINE
8
Layer 1
10
7.022766
20
12.193320
11
7.461971
21
11.992765
0
LINE
8
Layer 1
10
7.461971
20
11.992765
11
7.797863
21
12.087890
0
LINE
8
Layer 1
10
7.797863
20
12.087890
11
7.907926
21
12.169632
0
LINE
8
Layer 1
10
7.907926
20
12.169632
11
7.930021
21
12.051478
0
LINE
8
Layer 1
10
7.930021
20
12.051478
11
8.044855
21
11.992765
0
LINE
8
Layer 1
10
8.044855
20
11.992765
11
8.314668
21
12.216417
0
LINE
8
Layer 1
10
8.314668
20
12.216417
11
8.426598
21
12.540588
0
LINE
8
Layer 1
10
8.426598
20
12.540588
11
8.564461
21
12.786543
0
LINE
8
Layer 1
10
8.564461
20
12.786543
11
8.670685
21
12.881563
0
LINE
8
Layer 1
10
8.670685
20
12.881563
11
8.702220
21
12.836854
0
LINE
8
Layer 1
10
8.702220
20
12.836854
11
8.664876
21
12.593700
0
LINE
8
Layer 1
10
8.664876
20
12.593700
11
8.624731
21
12.314239
0
LINE
8
Layer 1
10
8.624731
20
12.314239
11
8.699420
21
12.073886
0
LINE
8
Layer 1
10
8.699420
20
12.073886
11
8.920478
21
11.992765
0
LINE
8
Layer 1
10
8.920478
20
11.992765
11
9.236246
21
12.087890
0
LINE
8
Layer 1
10
9.236246
20
12.087890
11
9.373383
21
12.195048
0
LINE
8
Layer 1
10
9.373383
20
12.195048
11
9.411349
21
12.121396
0
LINE
8
Layer 1
10
9.411349
20
12.121396
11
9.684067
21
11.992765
0
LINE
8
Layer 1
10
9.684067
20
11.992765
11
10.215188
21
12.331044
0
LINE
8
Layer 1
10
10.215188
20
12.331044
11
10.240707
21
12.368285
0
LINE
8
Layer 1
10
10.240707
20
12.368285
11
10.269753
21
12.403658
0
LINE
8
Layer 1
10
10.269753
20
12.403658
11
10.447761
21
12.677621
0
LINE
8
Layer 1
10
10.447761
20
12.677621
11
10.533860
21
12.571397
0
LINE
8
Layer 1
10
10.533860
20
12.571397
11
10.608549
21
12.448368
0
LINE
8
Layer 1
10
10.608549
20
12.448368
11
10.642989
21
12.311438
0
LINE
8
Layer 1
10
10.642989
20
12.311438
11
10.565395
21
12.319841
0
LINE
8
Layer 1
10
10.565395
20
12.319841
11
10.479296
21
12.328243
0
LINE
8
Layer 1
10
10.479296
20
12.328243
11
10.318508
21
12.275131
0
LINE
8
Layer 1
10
10.318508
20
12.275131
11
10.264047
21
12.149301
0
LINE
8
Layer 1
10
10.264047
20
12.149301
11
10.341537
21
11.998367
0
LINE
8
Layer 1
10
10.341537
20
11.998367
11
10.571205
21
11.931355
0
LINE
8
Layer 1
10
10.571205
20
11.931355
11
10.800873
21
11.995567
0
LINE
8
Layer 1
10
10.800873
20
11.995567
11
10.955853
21
12.163306
0
LINE
8
Layer 1
10
10.955853
20
12.163306
11
11.013322
21
12.386854
0
LINE
8
Layer 1
10
11.013322
20
12.386854
11
10.964463
21
12.565796
0
LINE
8
Layer 1
10
10.964463
20
12.565796
11
10.826704
21
12.767041
0
LINE
8
Layer 1
10
10.826704
20
12.767041
11
10.731994
21
12.892768
0
LINE
8
Layer 1
10
10.731994
20
12.892768
11
10.703259
21
12.984987
0
LINE
8
Layer 1
10
10.703259
20
12.984987
11
10.754919
21
13.155527
0
LINE
8
Layer 1
10
10.754919
20
13.155527
11
10.786455
21
13.228142
0
LINE
8
Layer 1
10
10.786455
20
13.228142
11
10.797969
21
13.281254
0
LINE
8
Layer 1
10
10.797969
20
13.281254
11
10.766434
21
13.325964
0
LINE
8
Layer 1
10
10.766434
20
13.325964
11
10.654401
21
13.339968
0
LINE
8
Layer 1
10
10.654401
20
13.339968
11
10.427638
21
13.216939
0
LINE
8
Layer 1
10
10.427638
20
13.216939
11
10.286974
21
12.912374
0
LINE
8
Layer 1
10
10.286974
20
12.912374
11
10.183654
21
12.719532
0
LINE
8
Layer 1
10
10.183654
20
12.719532
11
9.954816
21
12.418079
0
LINE
8
Layer 1
10
9.954816
20
12.418079
11
9.905127
21
12.370154
0
LINE
8
Layer 1
10
9.905127
20
12.370154
11
9.775978
21
12.300237
0
LINE
8
Layer 1
10
9.775978
20
12.300237
11
9.698488
21
12.344946
0
LINE
8
Layer 1
10
9.698488
20
12.344946
11
9.675459
21
12.473577
0
LINE
8
Layer 1
10
9.675459
20
12.473577
11
9.744339
21
12.889967
0
LINE
8
Layer 1
10
9.744339
20
12.889967
11
9.798903
21
13.214242
0
LINE
8
Layer 1
10
9.798903
20
13.214242
11
9.652533
21
13.309263
0
LINE
8
Layer 1
10
9.652533
20
13.309263
11
9.514670
21
13.275653
0
LINE
8
Layer 1
10
9.514670
20
13.275653
11
9.445790
21
13.152728
0
LINE
8
Layer 1
10
9.445790
20
13.152728
11
9.359691
21
12.783744
0
LINE
8
Layer 1
10
9.359691
20
12.783744
11
9.329297
21
12.504698
0
LINE
8
Layer 1
10
9.329297
20
12.504698
11
9.193197
21
12.367354
0
LINE
8
Layer 1
10
9.193197
20
12.367354
11
9.058239
21
12.300237
0
LINE
8
Layer 1
10
9.058239
20
12.300237
11
8.974940
21
12.412063
0
LINE
8
Layer 1
10
8.974940
20
12.412063
11
9.029504
21
12.733433
0
LINE
8
Layer 1
10
9.029504
20
12.733433
11
9.092679
21
13.127521
0
LINE
8
Layer 1
10
9.092679
20
13.127521
11
8.906060
21
13.309264
0
LINE
8
Layer 1
10
8.906060
20
13.309264
11
8.696517
21
13.244948
0
LINE
8
Layer 1
10
8.696517
20
13.244948
11
8.466849
21
13.029699
0
LINE
8
Layer 1
10
8.466849
20
13.029699
11
8.257202
21
12.644014
0
LINE
8
Layer 1
10
8.257202
20
12.644014
11
8.265915
21
12.943081
0
LINE
8
Layer 1
10
8.265915
20
12.943081
11
8.817056
21
13.650239
0
LINE
8
Layer 1
10
8.817056
20
13.650239
11
8.986454
21
14.237170
0
LINE
8
Layer 1
10
8.986454
20
14.237170
11
8.903156
21
14.522233
0
LINE
8
Layer 1
10
8.903156
20
14.522233
11
8.690708
21
14.634059
0
LINE
8
Layer 1
10
8.690708
20
14.634059
11
8.690700
21
14.634100
0
LINE
8
Layer 1
10
16.976080
20
14.634100
11
16.551184
21
14.315427
0
LINE
8
Layer 1
10
16.551184
20
14.315427
11
16.284171
21
13.532853
0
LINE
8
Layer 1
10
16.284171
20
13.532853
11
16.195271
21
12.635653
0
LINE
8
Layer 1
10
16.195271
20
12.635653
11
16.193920
21
12.529947
0
LINE
8
Layer 1
10
16.193920
20
12.529947
11
15.979916
21
12.358992
0
LINE
8
Layer 1
10
15.979916
20
12.358992
11
15.727219
21
12.283577
0
LINE
8
Layer 1
10
15.727219
20
12.283577
11
15.509760
21
12.364610
0
LINE
8
Layer 1
10
15.509760
20
12.364610
11
15.437281
21
12.607748
0
LINE
8
Layer 1
10
15.437281
20
12.607748
11
15.471720
21
12.822997
0
LINE
8
Layer 1
10
15.471720
20
12.822997
11
15.563629
21
12.976628
0
LINE
8
Layer 1
10
15.563629
20
12.976628
11
15.687073
21
13.035342
0
LINE
8
Layer 1
10
15.687073
20
13.035342
11
15.738733
21
13.015840
0
LINE
8
Layer 1
10
15.738733
20
13.015840
11
15.758857
21
12.959927
0
LINE
8
Layer 1
10
15.758857
20
12.959927
11
15.744542
21
12.881607
0
LINE
8
Layer 1
10
15.744542
20
12.881607
11
15.735932
21
12.845300
0
LINE
8
Layer 1
10
15.735932
20
12.845300
11
15.730123
21
12.800591
0
LINE
8
Layer 1
10
15.730123
20
12.800591
11
15.761762
21
12.730673
0
LINE
8
Layer 1
10
15.761762
20
12.730673
11
15.850766
21
12.705570
0
LINE
8
Layer 1
10
15.850766
20
12.705570
11
15.988525
21
12.786586
0
LINE
8
Layer 1
10
15.988525
20
12.786586
11
16.043090
21
12.985030
0
LINE
8
Layer 1
10
16.043090
20
12.985030
11
15.954085
21
13.216981
0
LINE
8
Layer 1
10
15.954085
20
13.216981
11
15.709998
21
13.309305
0
LINE
8
Layer 1
10
15.709998
20
13.309305
11
15.402841
21
13.216981
0
LINE
8
Layer 1
10
15.402841
20
13.216981
11
15.164563
21
12.954325
0
LINE
8
Layer 1
10
15.164563
20
12.954325
11
15.072759
21
12.557436
0
LINE
8
Layer 1
10
15.072759
20
12.557436
11
15.227738
21
12.146543
0
LINE
8
Layer 1
10
15.227738
20
12.146543
11
15.666950
21
11.992809
0
LINE
8
Layer 1
10
15.666950
20
11.992809
11
16.028672
21
12.079531
0
LINE
8
Layer 1
10
16.028672
20
12.079531
11
16.192572
21
12.178391
0
LINE
8
Layer 1
10
16.192572
20
12.178391
11
16.215290
21
12.051523
0
LINE
8
Layer 1
10
16.215290
20
12.051523
11
16.330124
21
11.992809
0
LINE
8
Layer 1
10
16.330124
20
11.992809
11
16.600041
21
12.216461
0
LINE
8
Layer 1
10
16.600041
20
12.216461
11
16.711971
21
12.540632
0
LINE
8
Layer 1
10
16.711971
20
12.540632
11
16.849834
21
12.786587
0
LINE
8
Layer 1
10
16.849834
20
12.786587
11
16.955954
21
12.881608
0
LINE
8
Layer 1
10
16.955954
20
12.881608
11
16.987593
21
12.836898
0
LINE
8
Layer 1
10
16.987593
20
12.836898
11
16.950248
21
12.593744
0
LINE
8
Layer 1
10
16.950248
20
12.593744
11
16.910103
21
12.314283
0
LINE
8
Layer 1
10
16.910103
20
12.314283
11
16.984688
21
12.073930
0
LINE
8
Layer 1
10
16.984688
20
12.073930
11
17.205746
21
11.992810
0
LINE
8
Layer 1
10
17.205746
20
11.992810
11
17.521617
21
12.087934
0
LINE
8
Layer 1
10
17.521617
20
12.087934
11
17.641949
21
12.181088
0
LINE
8
Layer 1
10
17.641949
20
12.181088
11
17.685206
21
12.118640
0
LINE
8
Layer 1
10
17.685206
20
12.118640
11
17.969439
21
11.992810
0
LINE
8
Layer 1
10
17.969439
20
11.992810
11
18.345477
21
12.227665
0
LINE
8
Layer 1
10
18.345477
20
12.227665
11
18.463216
21
12.054324
0
LINE
8
Layer 1
10
18.463216
20
12.054324
11
18.638320
21
11.992809
0
LINE
8
Layer 1
10
18.638320
20
11.992809
11
18.893818
21
12.090631
0
LINE
8
Layer 1
10
18.893818
20
12.090631
11
18.994648
21
12.173826
0
LINE
8
Layer 1
10
18.994648
20
12.173826
11
19.014461
21
12.104635
0
LINE
8
Layer 1
10
19.014461
20
12.104635
11
19.169440
21
11.992809
0
LINE
8
Layer 1
10
19.169440
20
11.992809
11
19.298693
21
12.037622
0
LINE
8
Layer 1
10
19.298693
20
12.037622
11
19.373278
21
12.216460
0
LINE
8
Layer 1
10
19.373278
20
12.216460
11
19.485208
21
12.540631
0
LINE
8
Layer 1
10
19.485208
20
12.540631
11
19.623071
21
12.786586
0
LINE
8
Layer 1
10
19.623071
20
12.786586
11
19.729295
21
12.881607
0
LINE
8
Layer 1
10
19.729295
20
12.881607
11
19.760831
21
12.836897
0
LINE
8
Layer 1
10
19.760831
20
12.836897
11
19.723486
21
12.593743
0
LINE
8
Layer 1
10
19.723486
20
12.593743
11
19.683341
21
12.314282
0
LINE
8
Layer 1
10
19.683341
20
12.314282
11
19.758030
21
12.073929
0
LINE
8
Layer 1
10
19.758030
20
12.073929
11
19.979088
21
11.992809
0
LINE
8
Layer 1
10
19.979088
20
11.992809
11
20.300561
21
12.087933
0
LINE
8
Layer 1
10
20.300561
20
12.087933
11
20.417573
21
12.177249
0
LINE
8
Layer 1
10
20.417573
20
12.177249
11
20.458444
21
12.118639
0
LINE
8
Layer 1
10
20.458444
20
12.118639
11
20.742677
21
11.992809
0
LINE
8
Layer 1
10
20.742677
20
11.992809
11
20.897760
21
12.032021
0
LINE
8
Layer 1
10
20.897760
20
12.032021
11
21.026909
21
12.149345
0
LINE
8
Layer 1
10
21.026909
20
12.149345
11
21.009689
21
12.040424
0
LINE
8
Layer 1
10
21.009689
20
12.040424
11
20.406784
21
11.481398
0
LINE
8
Layer 1
10
20.406784
20
11.481398
11
20.245996
21
11.053804
0
LINE
8
Layer 1
10
20.245996
20
11.053804
11
20.337905
21
10.824550
0
LINE
8
Layer 1
10
20.337905
20
10.824550
11
20.576183
21
10.735131
0
LINE
8
Layer 1
10
20.576183
20
10.735131
11
20.824497
21
10.818269
0
LINE
8
Layer 1
10
20.824497
20
10.818269
11
21.024005
21
11.067704
0
LINE
8
Layer 1
10
21.024005
20
11.067704
11
21.311142
21
11.976108
0
LINE
8
Layer 1
10
21.311142
20
11.976108
11
21.494856
21
12.096233
0
LINE
8
Layer 1
10
21.494856
20
12.096233
11
21.782097
21
12.287416
0
LINE
8
Layer 1
10
21.782097
20
12.287416
11
21.873798
21
12.152146
0
LINE
8
Layer 1
10
21.873798
20
12.152146
11
22.301599
21
11.992810
0
LINE
8
Layer 1
10
22.301599
20
11.992810
11
22.611662
21
12.059926
0
LINE
8
Layer 1
10
22.611662
20
12.059926
11
22.824110
21
12.247167
0
LINE
8
Layer 1
10
22.824110
20
12.247167
11
22.872866
21
12.420508
0
LINE
8
Layer 1
10
22.872866
20
12.420508
11
22.849940
21
12.512728
0
LINE
8
Layer 1
10
22.849940
20
12.512728
11
22.792471
21
12.546234
0
LINE
8
Layer 1
10
22.792471
20
12.546234
11
22.714982
21
12.504325
0
LINE
8
Layer 1
10
22.714982
20
12.504325
11
22.536974
21
12.325487
0
LINE
8
Layer 1
10
22.536974
20
12.325487
11
22.344650
21
12.272375
0
LINE
8
Layer 1
10
22.344650
20
12.272375
11
22.112077
21
12.400902
0
LINE
8
Layer 1
10
22.112077
20
12.400902
11
22.594442
21
12.618952
0
LINE
8
Layer 1
10
22.594442
20
12.618952
11
22.737907
21
12.951525
0
LINE
8
Layer 1
10
22.737907
20
12.951525
11
22.637492
21
13.211484
0
LINE
8
Layer 1
10
22.637492
20
13.211484
11
22.370480
21
13.309306
0
LINE
8
Layer 1
10
22.370480
20
13.309306
11
22.034588
21
13.211484
0
LINE
8
Layer 1
10
22.034588
20
13.211484
11
21.804920
21
12.945924
0
LINE
8
Layer 1
10
21.804920
20
12.945924
11
21.721621
21
12.588143
0
LINE
8
Layer 1
10
21.721621
20
12.588143
11
21.722246
21
12.556089
0
LINE
8
Layer 1
10
21.722246
20
12.556089
11
21.368511
21
12.305881
0
LINE
8
Layer 1
10
21.368511
20
12.305881
11
21.394340
21
12.473620
0
LINE
8
Layer 1
10
21.394340
20
12.473620
11
21.420274
21
12.621753
0
LINE
8
Layer 1
10
21.420274
20
12.621753
11
21.491954
21
13.060550
0
LINE
8
Layer 1
10
21.491954
20
13.060550
11
21.494861
21
13.113663
0
LINE
8
Layer 1
10
21.494861
20
13.113663
11
21.463326
21
13.194679
0
LINE
8
Layer 1
10
21.463326
20
13.194679
11
21.362807
21
13.216982
0
LINE
8
Layer 1
10
21.362807
20
13.216982
11
21.236458
21
13.205883
0
LINE
8
Layer 1
10
21.236458
20
13.205883
11
21.199217
21
13.289700
0
LINE
8
Layer 1
10
21.199217
20
13.289700
11
21.115918
21
13.314804
0
LINE
8
Layer 1
10
21.115918
20
13.314804
11
20.739777
21
13.191879
0
LINE
8
Layer 1
10
20.739777
20
13.191879
11
20.458449
21
12.870509
0
LINE
8
Layer 1
10
20.458449
20
12.870509
11
20.352744
21
12.466566
0
LINE
8
Layer 1
10
20.352744
20
12.466566
11
20.251810
21
12.367396
0
LINE
8
Layer 1
10
20.251810
20
12.367396
11
20.116852
21
12.300279
0
LINE
8
Layer 1
10
20.116852
20
12.300279
11
20.033553
21
12.412105
0
LINE
8
Layer 1
10
20.033553
20
12.412105
11
20.088117
21
12.733475
0
LINE
8
Layer 1
10
20.088117
20
12.733475
11
20.151292
21
13.127563
0
LINE
8
Layer 1
10
20.151292
20
13.127563
11
19.964673
21
13.309306
0
LINE
8
Layer 1
10
19.964673
20
13.309306
11
19.755130
21
13.244991
0
LINE
8
Layer 1
10
19.755130
20
13.244991
11
19.525462
21
13.029742
0
LINE
8
Layer 1
10
19.525462
20
13.029742
11
19.313013
21
12.638454
0
LINE
8
Layer 1
10
19.313013
20
12.638454
11
19.341747
21
12.845301
0
LINE
8
Layer 1
10
19.341747
20
12.845301
11
19.387598
21
13.040945
0
LINE
8
Layer 1
10
19.387598
20
13.040945
11
19.430751
21
13.242190
0
LINE
8
Layer 1
10
19.430751
20
13.242190
11
19.407722
21
13.295303
0
LINE
8
Layer 1
10
19.407722
20
13.295303
11
19.327328
21
13.309307
0
LINE
8
Layer 1
10
19.327328
20
13.309307
11
19.160834
21
13.270095
0
LINE
8
Layer 1
10
19.160834
20
13.270095
11
19.077639
21
13.152771
0
LINE
8
Layer 1
10
19.077639
20
13.152771
11
18.972348
21
12.513558
0
LINE
8
Layer 1
10
18.972348
20
12.513558
11
18.830647
21
12.367396
0
LINE
8
Layer 1
10
18.830647
20
12.367396
11
18.698593
21
12.300280
0
LINE
8
Layer 1
10
18.698593
20
12.300280
11
18.641228
21
12.325487
0
LINE
8
Layer 1
10
18.641228
20
12.325487
11
18.621104
21
12.392500
0
LINE
8
Layer 1
10
18.621104
20
12.392500
11
18.687183
21
12.839700
0
LINE
8
Layer 1
10
18.687183
20
12.839700
11
18.730232
21
13.119161
0
LINE
8
Layer 1
10
18.730232
20
13.119161
11
18.589568
21
13.216983
0
LINE
8
Layer 1
10
18.589568
20
13.216983
11
18.463219
21
13.205883
0
LINE
8
Layer 1
10
18.463219
20
13.205883
11
18.425875
21
13.289701
0
LINE
8
Layer 1
10
18.425875
20
13.289701
11
18.342680
21
13.314804
0
LINE
8
Layer 1
10
18.342680
20
13.314804
11
17.966539
21
13.191879
0
LINE
8
Layer 1
10
17.966539
20
13.191879
11
17.685211
21
12.870509
0
LINE
8
Layer 1
10
17.685211
20
12.870509
11
17.579506
21
12.466566
0
LINE
8
Layer 1
10
17.579506
20
12.466566
11
17.478468
21
12.367396
0
LINE
8
Layer 1
10
17.478468
20
12.367396
11
17.343613
21
12.300280
0
LINE
8
Layer 1
10
17.343613
20
12.300280
11
17.260314
21
12.412106
0
LINE
8
Layer 1
10
17.260314
20
12.412106
11
17.314878
21
12.733476
0
LINE
8
Layer 1
10
17.314878
20
12.733476
11
17.378052
21
13.127564
0
LINE
8
Layer 1
10
17.378052
20
13.127564
11
17.191434
21
13.309307
0
LINE
8
Layer 1
10
17.191434
20
13.309307
11
16.981890
21
13.244991
0
LINE
8
Layer 1
10
16.981890
20
13.244991
11
16.752222
21
13.029742
0
LINE
8
Layer 1
10
16.752222
20
13.029742
11
16.542575
21
12.644057
0
LINE
8
Layer 1
10
16.542575
20
12.644057
11
16.551185
21
12.943124
0
LINE
8
Layer 1
10
16.551185
20
12.943124
11
17.102429
21
13.650282
0
LINE
8
Layer 1
10
17.102429
20
13.650282
11
17.271828
21
14.237213
0
LINE
8
Layer 1
10
17.271828
20
14.237213
11
17.188530
21
14.522276
0
LINE
8
Layer 1
10
17.188530
20
14.522276
11
16.976081
21
14.634102
0
LINE
8
Layer 1
10
16.976081
20
14.634102
11
16.976080
21
14.634100
0
LINE
8
Layer 1
10
12.784590
20
14.446755
11
12.477432
21
14.295821
0
LINE
8
Layer 1
10
12.477432
20
14.295821
11
12.236250
21
13.890634
0
LINE
8
Layer 1
10
12.236250
20
13.890634
11
12.086976
21
13.328807
0
LINE
8
Layer 1
10
12.086976
20
13.328807
11
11.923400
21
13.328800
0
LINE
8
Layer 1
10
11.923400
20
13.328800
11
11.794147
21
13.172265
0
LINE
8
Layer 1
10
11.794147
20
13.172265
11
11.822882
21
13.074443
0
LINE
8
Layer 1
10
11.822882
20
13.074443
11
11.940621
21
13.043738
0
LINE
8
Layer 1
10
11.940621
20
13.043738
11
12.052500
21
13.043700
0
LINE
8
Layer 1
10
12.052500
20
13.043700
11
12.043890
21
12.794945
0
LINE
8
Layer 1
10
12.043890
20
12.794945
11
12.190318
21
12.193320
0
LINE
8
Layer 1
10
12.190318
20
12.193320
11
12.629575
21
11.992765
0
LINE
8
Layer 1
10
12.629575
20
11.992765
11
12.965467
21
12.087890
0
LINE
8
Layer 1
10
12.965467
20
12.087890
11
13.120447
21
12.209571
0
LINE
8
Layer 1
10
13.120447
20
12.209571
11
13.252501
21
12.073886
0
LINE
8
Layer 1
10
13.252501
20
12.073886
11
13.542542
21
11.992765
0
LINE
8
Layer 1
10
13.542542
20
11.992765
11
13.855405
21
12.085089
0
LINE
8
Layer 1
10
13.855405
20
12.085089
11
14.082272
21
12.344944
0
LINE
8
Layer 1
10
14.082272
20
12.344944
11
14.165467
21
12.725131
0
LINE
8
Layer 1
10
14.165467
20
12.725131
11
14.105197
21
13.012995
0
LINE
8
Layer 1
10
14.105197
20
13.012995
11
13.924284
21
13.228140
0
LINE
8
Layer 1
10
13.924284
20
13.228140
11
13.634346
21
13.312061
0
LINE
8
Layer 1
10
13.634346
20
13.312061
11
13.318579
21
13.216937
0
LINE
8
Layer 1
10
13.318579
20
13.216937
11
13.094616
21
12.957082
0
LINE
8
Layer 1
10
13.094616
20
12.957082
11
13.014222
21
12.579799
0
LINE
8
Layer 1
10
13.014222
20
12.579799
11
13.021794
21
12.474301
0
LINE
8
Layer 1
10
13.021794
20
12.474301
11
12.907997
21
12.372951
0
LINE
8
Layer 1
10
12.907997
20
12.372951
11
12.689844
21
12.300234
0
LINE
8
Layer 1
10
12.689844
20
12.300234
11
12.465881
21
12.417661
0
LINE
8
Layer 1
10
12.465881
20
12.417661
11
12.397001
21
12.825649
0
LINE
8
Layer 1
10
12.397001
20
12.825649
11
12.402810
21
13.043699
0
LINE
8
Layer 1
10
12.402810
20
13.043699
11
12.753000
21
13.043700
0
LINE
8
Layer 1
10
12.753000
20
13.043700
11
12.996291
21
13.091909
0
LINE
8
Layer 1
10
12.996291
20
13.091909
11
13.077378
21
13.236543
0
LINE
8
Layer 1
10
13.077378
20
13.236543
11
13.057357
21
13.309261
0
LINE
8
Layer 1
10
13.057357
20
13.309261
11
12.991278
21
13.328763
0
LINE
8
Layer 1
10
12.991278
20
13.328763
11
12.669800
21
13.328800
0
LINE
8
Layer 1
10
12.669800
20
13.328800
11
12.949721
21
13.678186
0
LINE
8
Layer 1
10
12.949721
20
13.678186
11
13.043036
21
14.083469
0
LINE
8
Layer 1
10
13.043036
20
14.083469
11
12.974156
21
14.343428
0
LINE
8
Layer 1
10
12.974156
20
14.343428
11
12.784633
21
14.446748
0
LINE
8
Layer 1
10
12.784633
20
14.446748
11
12.784590
21
14.446755
0
LINE
8
Layer 1
10
1.507790
20
14.374140
11
0.669512
21
14.307024
0
LINE
8
Layer 1
10
0.669512
20
14.307024
11
0.184346
21
14.094680
0
LINE
8
Layer 1
10
0.184346
20
14.094680
11
0.026462
21
13.714493
0
LINE
8
Layer 1
10
0.026462
20
13.714493
11
0.063703
21
13.513248
0
LINE
8
Layer 1
10
0.063703
20
13.513248
11
0.158516
21
13.379119
0
LINE
8
Layer 1
10
0.158516
20
13.379119
11
0.238910
21
13.351214
0
LINE
8
Layer 1
10
0.238910
20
13.351214
11
0.370964
21
13.395924
0
LINE
8
Layer 1
10
0.370964
20
13.395924
11
0.436939
21
13.496547
0
LINE
8
Layer 1
10
0.436939
20
13.496547
11
0.425425
21
13.538455
0
LINE
8
Layer 1
10
0.425425
20
13.538455
11
0.368060
21
13.720094
0
LINE
8
Layer 1
10
0.368060
20
13.720094
11
0.434035
21
13.887833
0
LINE
8
Layer 1
10
0.434035
20
13.887833
11
0.663807
21
13.991257
0
LINE
8
Layer 1
10
0.663807
20
13.991257
11
1.105820
21
14.035967
0
LINE
8
Layer 1
10
1.105820
20
14.035967
11
1.079990
21
13.912938
0
LINE
8
Layer 1
10
1.079990
20
13.912938
11
1.059969
21
13.817917
0
LINE
8
Layer 1
10
1.059969
20
13.817917
11
0.979575
21
13.421028
0
LINE
8
Layer 1
10
0.979575
20
13.421028
11
0.907791
21
12.999035
0
LINE
8
Layer 1
10
0.907791
20
12.999035
11
0.858932
21
12.702769
0
LINE
8
Layer 1
10
0.858932
20
12.702769
11
0.807272
21
12.375798
0
LINE
8
Layer 1
10
0.807272
20
12.375798
11
0.787251
21
12.154947
0
LINE
8
Layer 1
10
0.787251
20
12.154947
11
0.838911
21
12.037623
0
LINE
8
Layer 1
10
0.838911
20
12.037623
11
0.985281
21
11.992810
0
LINE
8
Layer 1
10
0.985281
20
11.992810
11
1.137459
21
12.034822
0
LINE
8
Layer 1
10
1.137459
20
12.034822
11
1.206339
21
12.160549
0
LINE
8
Layer 1
10
1.206339
20
12.160549
11
1.252293
21
12.563039
0
LINE
8
Layer 1
10
1.252293
20
12.563039
11
1.318268
21
13.004637
0
LINE
8
Layer 1
10
1.318268
20
13.004637
11
1.513497
21
14.038767
0
LINE
8
Layer 1
10
1.513497
20
14.038767
11
1.892543
21
14.027564
0
LINE
8
Layer 1
10
1.892543
20
14.027564
11
2.297315
21
14.002356
0
LINE
8
Layer 1
10
2.297315
20
14.002356
11
2.463809
21
14.035967
0
LINE
8
Layer 1
10
2.463809
20
14.035967
11
2.518373
21
14.170096
0
LINE
8
Layer 1
10
2.518373
20
14.170096
11
2.472419
21
14.267917
0
LINE
8
Layer 1
10
2.472419
20
14.267917
11
2.340365
21
14.326631
0
LINE
8
Layer 1
10
2.340365
20
14.326631
11
2.010178
21
14.362938
0
LINE
8
Layer 1
10
2.010178
20
14.362938
11
1.507792
21
14.374141
0
LINE
8
Layer 1
10
1.507792
20
14.374141
11
1.507790
21
14.374140
0
LINE
8
Layer 1
10
8.630410
20
14.357336
11
8.687879
21
14.309825
0
LINE
8
Layer 1
10
8.687879
20
14.309825
11
8.708003
21
14.172895
0
LINE
8
Layer 1
10
8.708003
20
14.172895
11
8.590264
21
13.736899
0
LINE
8
Layer 1
10
8.590264
20
13.736899
11
8.297421
21
13.292500
0
LINE
8
Layer 1
10
8.297421
20
13.292500
11
8.392131
21
13.823517
0
LINE
8
Layer 1
10
8.392131
20
13.823517
11
8.515575
21
14.212003
0
LINE
8
Layer 1
10
8.515575
20
14.212003
11
8.630409
21
14.357335
0
LINE
8
Layer 1
10
8.630409
20
14.357335
11
8.630410
21
14.357336
0
LINE
8
Layer 1
10
16.915790
20
14.357336
11
16.973259
21
14.309825
0
LINE
8
Layer 1
10
16.973259
20
14.309825
11
16.993279
21
14.172895
0
LINE
8
Layer 1
10
16.993279
20
14.172895
11
16.875644
21
13.736899
0
LINE
8
Layer 1
10
16.875644
20
13.736899
11
16.582801
21
13.292500
0
LINE
8
Layer 1
10
16.582801
20
13.292500
11
16.677511
21
13.823517
0
LINE
8
Layer 1
10
16.677511
20
13.823517
11
16.800955
21
14.212003
0
LINE
8
Layer 1
10
16.800955
20
14.212003
11
16.915789
21
14.357335
0
LINE
8
Layer 1
10
16.915789
20
14.357335
11
16.915790
21
14.357336
0
LINE
8
Layer 1
10
7.539540
20
14.178498
11
7.602714
21
14.013560
0
LINE
8
Layer 1
10
7.602714
20
14.013560
11
7.516511
21
13.689389
0
LINE
8
Layer 1
10
7.516511
20
13.689389
11
7.263917
21
13.370717
0
LINE
8
Layer 1
10
7.263917
20
13.370717
11
7.341407
21
13.781610
0
LINE
8
Layer 1
10
7.341407
20
13.781610
11
7.441926
21
14.072274
0
LINE
8
Layer 1
10
7.441926
20
14.072274
11
7.539540
21
14.178498
0
LINE
8
Layer 1
10
7.539540
20
14.178498
11
7.539540
21
14.178498
0
LINE
8
Layer 1
10
12.707070
20
14.178498
11
12.770244
21
14.013560
0
LINE
8
Layer 1
10
12.770244
20
14.013560
11
12.684145
21
13.689389
0
LINE
8
Layer 1
10
12.684145
20
13.689389
11
12.431447
21
13.370717
0
LINE
8
Layer 1
10
12.431447
20
13.370717
11
12.509040
21
13.781610
0
LINE
8
Layer 1
10
12.509040
20
13.781610
11
12.609455
21
14.072274
0
LINE
8
Layer 1
10
12.609455
20
14.072274
11
12.707069
21
14.178498
0
LINE
8
Layer 1
10
12.707069
20
14.178498
11
12.707070
21
14.178498
0
LINE
8
Layer 1
10
9.741510
20
13.929742
11
9.543377
21
13.862625
0
LINE
8
Layer 1
10
9.543377
20
13.862625
11
9.465888
21
13.700592
0
LINE
8
Layer 1
10
9.465888
20
13.700592
11
9.526157
21
13.546857
0
LINE
8
Layer 1
10
9.526157
20
13.546857
11
9.707070
21
13.493745
0
LINE
8
Layer 1
10
9.707070
20
13.493745
11
9.905099
21
13.558061
0
LINE
8
Layer 1
10
9.905099
20
13.558061
11
9.979788
21
13.736899
0
LINE
8
Layer 1
10
9.979788
20
13.736899
11
9.913709
21
13.879430
0
LINE
8
Layer 1
10
9.913709
20
13.879430
11
9.741510
21
13.929741
0
LINE
8
Layer 1
10
9.741510
20
13.929741
11
9.741510
21
13.929742
0
LINE
8
Layer 1
10
2.346070
20
13.309305
11
2.182481
21
13.272894
0
LINE
8
Layer 1
10
2.182481
20
13.272894
11
2.102086
21
13.152769
0
LINE
8
Layer 1
10
2.102086
20
13.152769
11
2.007377
21
12.780984
0
LINE
8
Layer 1
10
2.007377
20
12.780984
11
1.978642
21
12.398100
0
LINE
8
Layer 1
10
1.978642
20
12.398100
11
2.059037
21
12.107436
0
LINE
8
Layer 1
10
2.059037
20
12.107436
11
2.271486
21
11.992809
0
LINE
8
Layer 1
10
2.271486
20
11.992809
11
2.481029
21
12.093432
0
LINE
8
Layer 1
10
2.481029
20
12.093432
11
2.627399
21
12.386897
0
LINE
8
Layer 1
10
2.627399
20
12.386897
11
2.690573
21
12.096233
0
LINE
8
Layer 1
10
2.690573
20
12.096233
11
2.894411
21
11.992810
0
LINE
8
Layer 1
10
2.894411
20
11.992810
11
3.215988
21
12.087934
0
LINE
8
Layer 1
10
3.215988
20
12.087934
11
3.333312
21
12.177665
0
LINE
8
Layer 1
10
3.333312
20
12.177665
11
3.353747
21
12.104636
0
LINE
8
Layer 1
10
3.353747
20
12.104636
11
3.508830
21
11.992810
0
LINE
8
Layer 1
10
3.508830
20
11.992810
11
3.637979
21
12.037623
0
LINE
8
Layer 1
10
3.637979
20
12.037623
11
3.712668
21
12.216461
0
LINE
8
Layer 1
10
3.712668
20
12.216461
11
3.824597
21
12.540632
0
LINE
8
Layer 1
10
3.824597
20
12.540632
11
3.962357
21
12.786587
0
LINE
8
Layer 1
10
3.962357
20
12.786587
11
4.077191
21
12.881608
0
LINE
8
Layer 1
10
4.077191
20
12.881608
11
4.108830
21
12.836898
0
LINE
8
Layer 1
10
4.108830
20
12.836898
11
4.103021
21
12.761483
0
LINE
8
Layer 1
10
4.103021
20
12.761483
11
4.094411
21
12.677666
0
LINE
8
Layer 1
10
4.094411
20
12.677666
11
4.172005
21
12.473620
0
LINE
8
Layer 1
10
4.172005
20
12.473620
11
4.404474
21
12.398101
0
LINE
8
Layer 1
10
4.404474
20
12.398101
11
4.617129
21
12.447064
0
LINE
8
Layer 1
10
4.617129
20
12.447064
11
4.659971
21
12.104636
0
LINE
8
Layer 1
10
4.659971
20
12.104636
11
4.815054
21
11.992810
0
LINE
8
Layer 1
10
4.815054
20
11.992810
11
4.944204
21
12.037623
0
LINE
8
Layer 1
10
4.944204
20
12.037623
11
5.018893
21
12.216461
0
LINE
8
Layer 1
10
5.018893
20
12.216461
11
5.130822
21
12.540632
0
LINE
8
Layer 1
10
5.130822
20
12.540632
11
5.268685
21
12.786587
0
LINE
8
Layer 1
10
5.268685
20
12.786587
11
5.374909
21
12.881608
0
LINE
8
Layer 1
10
5.374909
20
12.881608
11
5.406444
21
12.836898
0
LINE
8
Layer 1
10
5.406444
20
12.836898
11
5.372004
21
12.551835
0
LINE
8
Layer 1
10
5.372004
20
12.551835
11
5.331755
21
12.182955
0
LINE
8
Layer 1
10
5.331755
20
12.182955
11
5.374909
21
12.040424
0
LINE
8
Layer 1
10
5.374909
20
12.040424
11
5.512668
21
11.992810
0
LINE
8
Layer 1
10
5.512668
20
11.992810
11
5.656237
21
12.037623
0
LINE
8
Layer 1
10
5.656237
20
12.037623
11
5.702191
21
12.191254
0
LINE
8
Layer 1
10
5.702191
20
12.191254
11
5.719411
21
12.529533
0
LINE
8
Layer 1
10
5.719411
20
12.529533
11
5.765262
21
12.853704
0
LINE
8
Layer 1
10
5.765262
20
12.853704
11
5.796901
21
13.127563
0
LINE
8
Layer 1
10
5.796901
20
13.127563
11
5.748042
21
13.261796
0
LINE
8
Layer 1
10
5.748042
20
13.261796
11
5.610283
21
13.309307
0
LINE
8
Layer 1
10
5.610283
20
13.309307
11
5.400739
21
13.244991
0
LINE
8
Layer 1
10
5.400739
20
13.244991
11
5.171071
21
13.029742
0
LINE
8
Layer 1
10
5.171071
20
13.029742
11
4.958622
21
12.638455
0
LINE
8
Layer 1
10
4.958622
20
12.638455
11
4.987253
21
12.845302
0
LINE
8
Layer 1
10
4.987253
20
12.845302
11
5.033207
21
13.040946
0
LINE
8
Layer 1
10
5.033207
20
13.040946
11
5.076257
21
13.242191
0
LINE
8
Layer 1
10
5.076257
20
13.242191
11
5.053332
21
13.295303
0
LINE
8
Layer 1
10
5.053332
20
13.295303
11
4.972937
21
13.309307
0
LINE
8
Layer 1
10
4.972937
20
13.309307
11
4.806443
21
13.270096
0
LINE
8
Layer 1
10
4.806443
20
13.270096
11
4.723144
21
13.152772
0
LINE
8
Layer 1
10
4.723144
20
13.152772
11
4.636630
21
12.765427
0
LINE
8
Layer 1
10
4.636630
20
12.765427
11
4.513601
21
12.713975
0
LINE
8
Layer 1
10
4.513601
20
12.713975
11
4.441817
21
12.811796
0
LINE
8
Layer 1
10
4.441817
20
12.811796
11
4.464845
21
12.951527
0
LINE
8
Layer 1
10
4.464845
20
12.951527
11
4.490676
21
13.127564
0
LINE
8
Layer 1
10
4.490676
20
13.127564
11
4.304057
21
13.309307
0
LINE
8
Layer 1
10
4.304057
20
13.309307
11
4.094410
21
13.244991
0
LINE
8
Layer 1
10
4.094410
20
13.244991
11
3.864742
21
13.029742
0
LINE
8
Layer 1
10
3.864742
20
13.029742
11
3.652293
21
12.638455
0
LINE
8
Layer 1
10
3.652293
20
12.638455
11
3.681027
21
12.845302
0
LINE
8
Layer 1
10
3.681027
20
12.845302
11
3.726981
21
13.040946
0
LINE
8
Layer 1
10
3.726981
20
13.040946
11
3.770031
21
13.242191
0
LINE
8
Layer 1
10
3.770031
20
13.242191
11
3.747106
21
13.295303
0
LINE
8
Layer 1
10
3.747106
20
13.295303
11
3.666712
21
13.309307
0
LINE
8
Layer 1
10
3.666712
20
13.309307
11
3.500218
21
13.270095
0
LINE
8
Layer 1
10
3.500218
20
13.270095
11
3.416919
21
13.152771
0
LINE
8
Layer 1
10
3.416919
20
13.152771
11
3.311628
21
12.513766
0
LINE
8
Layer 1
10
3.311628
20
12.513766
11
3.167126
21
12.367397
0
LINE
8
Layer 1
10
3.167126
20
12.367397
11
3.032271
21
12.300281
0
LINE
8
Layer 1
10
3.032271
20
12.300281
11
2.971898
21
12.328289
0
LINE
8
Layer 1
10
2.971898
20
12.328289
11
2.948972
21
12.412107
0
LINE
8
Layer 1
10
2.948972
20
12.412107
11
3.029366
21
12.853705
0
LINE
8
Layer 1
10
3.029366
20
12.853705
11
3.101151
21
13.236589
0
LINE
8
Layer 1
10
3.101151
20
13.236589
11
3.075321
21
13.292502
0
LINE
8
Layer 1
10
3.075321
20
13.292502
11
2.983412
21
13.309307
0
LINE
8
Layer 1
10
2.983412
20
13.309307
11
2.839844
21
13.272896
0
LINE
8
Layer 1
10
2.839844
20
13.272896
11
2.770965
21
13.152771
0
LINE
8
Layer 1
10
2.770965
20
13.152771
11
2.627397
21
12.733476
0
LINE
8
Layer 1
10
2.627397
20
12.733476
11
2.489637
21
12.479223
0
LINE
8
Layer 1
10
2.489637
20
12.479223
11
2.383413
21
12.395302
0
LINE
8
Layer 1
10
2.383413
20
12.395302
11
2.337458
21
12.417708
0
LINE
8
Layer 1
10
2.337458
20
12.417708
11
2.323143
21
12.501526
0
LINE
8
Layer 1
10
2.323143
20
12.501526
11
2.380508
21
12.892813
0
LINE
8
Layer 1
10
2.380508
20
12.892813
11
2.426462
21
13.080054
0
LINE
8
Layer 1
10
2.426462
20
13.080054
11
2.458101
21
13.230987
0
LINE
8
Layer 1
10
2.458101
20
13.230987
11
2.432168
21
13.289701
0
LINE
8
Layer 1
10
2.432168
20
13.289701
11
2.346068
21
13.309307
0
LINE
8
Layer 1
10
2.346068
20
13.309307
11
2.346070
21
13.309305
0
LINE
8
Layer 1
10
18.382770
20
13.054948
11
18.276545
21
12.540632
0
LINE
8
Layer 1
10
18.276545
20
12.540632
11
18.193350
21
12.347790
0
LINE
8
Layer 1
10
18.193350
20
12.347790
11
18.072707
21
12.275175
0
LINE
8
Layer 1
10
18.072707
20
12.275175
11
17.972292
21
12.317084
0
LINE
8
Layer 1
10
17.972292
20
12.317084
11
17.937748
21
12.445611
0
LINE
8
Layer 1
10
17.937748
20
12.445611
11
17.998122
21
12.741877
0
LINE
8
Layer 1
10
17.998122
20
12.741877
11
18.158806
21
12.965529
0
LINE
8
Layer 1
10
18.158806
20
12.965529
11
18.382769
21
13.054948
0
LINE
8
Layer 1
10
18.382769
20
13.054948
11
18.382770
21
13.054948
0
LINE
8
Layer 1
10
21.150300
20
13.054948
11
21.058391
21
12.577043
0
LINE
8
Layer 1
10
21.058391
20
12.577043
11
20.972292
21
12.353391
0
LINE
8
Layer 1
10
20.972292
20
12.353391
11
20.845943
21
12.275175
0
LINE
8
Layer 1
10
20.845943
20
12.275175
11
20.745528
21
12.317084
0
LINE
8
Layer 1
10
20.745528
20
12.317084
11
20.711088
21
12.445611
0
LINE
8
Layer 1
10
20.711088
20
12.445611
11
20.771358
21
12.741877
0
LINE
8
Layer 1
10
20.771358
20
12.741877
11
20.932146
21
12.965529
0
LINE
8
Layer 1
10
20.932146
20
12.965529
11
21.150299
21
13.054948
0
LINE
8
Layer 1
10
21.150299
20
13.054948
11
21.150300
21
13.054948
0
LINE
8
Layer 1
10
22.321670
20
13.035342
11
22.401961
21
13.001836
0
LINE
8
Layer 1
10
22.401961
20
13.001836
11
22.433600
21
12.918018
0
LINE
8
Layer 1
10
22.433600
20
12.918018
11
22.335985
21
12.736275
0
LINE
8
Layer 1
10
22.335985
20
12.736275
11
22.068973
21
12.618951
0
LINE
8
Layer 1
10
22.068973
20
12.618951
11
22.069000
21
12.624500
0
LINE
8
Layer 1
10
22.069000
20
12.624500
11
22.140784
21
12.915165
0
LINE
8
Layer 1
10
22.140784
20
12.915165
11
22.321697
21
13.035290
0
LINE
8
Layer 1
10
22.321697
20
13.035290
11
22.321670
21
13.035342
0
LINE
8
Layer 1
10
13.611400
20
13.010238
11
13.749160
21
12.931918
0
LINE
8
Layer 1
10
13.749160
20
12.931918
11
13.806629
21
12.699967
0
LINE
8
Layer 1
10
13.806629
20
12.699967
11
13.737749
21
12.398100
0
LINE
8
Layer 1
10
13.737749
20
12.398100
11
13.574056
21
12.294677
0
LINE
8
Layer 1
10
13.574056
20
12.294677
11
13.430488
21
12.370196
0
LINE
8
Layer 1
10
13.430488
20
12.370196
11
13.373123
21
12.604947
0
LINE
8
Layer 1
10
13.373123
20
12.604947
11
13.439098
21
12.906815
0
LINE
8
Layer 1
10
13.439098
20
12.906815
11
13.611401
21
13.010238
0
LINE
8
Layer 1
10
13.611401
20
13.010238
11
13.611400
21
13.010238
0
LINE
8
Layer 1
10
20.943560
20
11.707748
11
20.768456
21
11.173930
0
LINE
8
Layer 1
10
20.768456
20
11.173930
11
20.607668
21
11.006295
0
LINE
8
Layer 1
10
20.607668
20
11.006295
11
20.544597
21
11.037001
0
LINE
8
Layer 1
10
20.544597
20
11.037001
11
20.527377
21
11.115216
0
LINE
8
Layer 1
10
20.527377
20
11.115216
11
20.624888
21
11.375175
0
LINE
8
Layer 1
10
20.624888
20
11.375175
11
20.943560
21
11.707748
0
LINE
8
Layer 1
10
20.943560
20
11.707748
11
20.943560
21
11.707748
0
LINE
8
Layer 1
10
12.764510
20
11.321856
11
12.339613
21
11.003287
0
LINE
8
Layer 1
10
12.339613
20
11.003287
11
12.072601
21
10.220713
0
LINE
8
Layer 1
10
12.072601
20
10.220713
11
11.983597
21
9.323513
0
LINE
8
Layer 1
10
11.983597
20
9.323513
11
11.980690
21
9.099965
0
LINE
8
Layer 1
10
11.980690
20
9.099965
11
11.977891
21
8.957434
0
LINE
8
Layer 1
10
11.977891
20
8.957434
11
12.003721
21
8.739384
0
LINE
8
Layer 1
10
12.003721
20
8.739384
11
12.118555
21
8.680671
0
LINE
8
Layer 1
10
12.118555
20
8.680671
11
12.388368
21
8.904323
0
LINE
8
Layer 1
10
12.388368
20
8.904323
11
12.500298
21
9.228494
0
LINE
8
Layer 1
10
12.500298
20
9.228494
11
12.638161
21
9.474449
0
LINE
8
Layer 1
10
12.638161
20
9.474449
11
12.744385
21
9.569469
0
LINE
8
Layer 1
10
12.744385
20
9.569469
11
12.775921
21
9.524760
0
LINE
8
Layer 1
10
12.775921
20
9.524760
11
12.738680
21
9.281606
0
LINE
8
Layer 1
10
12.738680
20
9.281606
11
12.698431
21
9.002145
0
LINE
8
Layer 1
10
12.698431
20
9.002145
11
12.773120
21
8.761792
0
LINE
8
Layer 1
10
12.773120
20
8.761792
11
12.994178
21
8.680671
0
LINE
8
Layer 1
10
12.994178
20
8.680671
11
13.309946
21
8.775693
0
LINE
8
Layer 1
10
13.309946
20
8.775693
11
13.467622
21
8.902145
0
LINE
8
Layer 1
10
13.467622
20
8.902145
11
13.608493
21
8.761792
0
LINE
8
Layer 1
10
13.608493
20
8.761792
11
13.904240
21
8.680671
0
LINE
8
Layer 1
10
13.904240
20
8.680671
11
14.268763
21
8.820402
0
LINE
8
Layer 1
10
14.268763
20
8.820402
11
14.484116
21
9.197788
0
LINE
8
Layer 1
10
14.484116
20
9.197788
11
14.756730
21
9.234406
0
LINE
8
Layer 1
10
14.756730
20
9.234406
11
14.771252
21
9.052456
0
LINE
8
Layer 1
10
14.771252
20
9.052456
11
14.854448
21
8.770090
0
LINE
8
Layer 1
10
14.854448
20
8.770090
11
15.041066
21
8.680671
0
LINE
8
Layer 1
10
15.041066
20
8.680671
11
15.207560
21
8.728182
0
LINE
8
Layer 1
10
15.207560
20
8.728182
11
15.351128
21
8.901523
0
LINE
8
Layer 1
10
15.351128
20
8.901523
11
15.514821
21
9.270403
0
LINE
8
Layer 1
10
15.514821
20
9.270403
11
15.526232
21
9.052457
0
LINE
8
Layer 1
10
15.526232
20
9.052457
11
15.595111
21
8.767394
0
LINE
8
Layer 1
10
15.595111
20
8.767394
11
15.767414
21
8.680672
0
LINE
8
Layer 1
10
15.767414
20
8.680672
11
15.956937
21
8.739385
0
LINE
8
Layer 1
10
15.956937
20
8.739385
11
16.143452
21
8.957435
0
LINE
8
Layer 1
10
16.143452
20
8.957435
11
16.582767
21
9.809822
0
LINE
8
Layer 1
10
16.582767
20
9.809822
11
16.605693
21
9.902042
0
LINE
8
Layer 1
10
16.605693
20
9.902042
11
16.447809
21
9.999864
0
LINE
8
Layer 1
10
16.447809
20
9.999864
11
16.318660
21
9.969159
0
LINE
8
Layer 1
10
16.318660
20
9.969159
11
16.235361
21
9.857333
0
LINE
8
Layer 1
10
16.235361
20
9.857333
11
16.043038
21
9.412934
0
LINE
8
Layer 1
10
16.043038
20
9.412934
11
15.827685
21
9.024448
0
LINE
8
Layer 1
10
15.827685
20
9.024448
11
15.824778
21
9.426938
0
LINE
8
Layer 1
10
15.824778
20
9.426938
11
15.824800
21
9.860090
0
LINE
8
Layer 1
10
15.824800
20
9.860090
11
15.784655
21
9.966314
0
LINE
8
Layer 1
10
15.784655
20
9.966314
11
15.664116
21
9.999820
0
LINE
8
Layer 1
10
15.664116
20
9.999820
11
15.557892
21
9.969115
0
LINE
8
Layer 1
10
15.557892
20
9.969115
11
15.483203
21
9.857289
0
LINE
8
Layer 1
10
15.483203
20
9.857289
11
15.296584
21
9.398989
0
LINE
8
Layer 1
10
15.296584
20
9.398989
11
15.121480
21
9.024403
0
LINE
8
Layer 1
10
15.121480
20
9.024403
11
15.081335
21
9.860089
0
LINE
8
Layer 1
10
15.081335
20
9.860089
11
15.043991
21
9.966313
0
LINE
8
Layer 1
10
15.043991
20
9.966313
11
14.934862
21
9.999819
0
LINE
8
Layer 1
10
14.934862
20
9.999819
11
14.785588
21
9.963512
0
LINE
8
Layer 1
10
14.785588
20
9.963512
11
14.736833
21
9.834985
0
LINE
8
Layer 1
10
14.736833
20
9.834985
11
14.736900
21
9.737170
0
LINE
8
Layer 1
10
14.736900
20
9.737170
11
14.741255
21
9.526382
0
LINE
8
Layer 1
10
14.741255
20
9.526382
11
14.507126
21
9.491216
0
LINE
8
Layer 1
10
14.507126
20
9.491216
11
14.349242
21
9.851694
0
LINE
8
Layer 1
10
14.349242
20
9.851694
11
13.999034
21
9.999827
0
LINE
8
Layer 1
10
13.999034
20
9.999827
11
13.674656
21
9.904805
0
LINE
8
Layer 1
10
13.674656
20
9.904805
11
13.444988
21
9.644950
0
LINE
8
Layer 1
10
13.444988
20
9.644950
11
13.361689
21
9.267564
0
LINE
8
Layer 1
10
13.361689
20
9.267564
11
13.370195
21
9.156775
0
LINE
8
Layer 1
10
13.370195
20
9.156775
11
13.266980
21
9.055219
0
LINE
8
Layer 1
10
13.266980
20
9.055219
11
13.132022
21
8.988103
0
LINE
8
Layer 1
10
13.132022
20
8.988103
11
13.048723
21
9.099929
0
LINE
8
Layer 1
10
13.048723
20
9.099929
11
13.103288
21
9.421299
0
LINE
8
Layer 1
10
13.103288
20
9.421299
11
13.166462
21
9.815387
0
LINE
8
Layer 1
10
13.166462
20
9.815387
11
12.979843
21
9.997026
0
LINE
8
Layer 1
10
12.979843
20
9.997026
11
12.770300
21
9.932815
0
LINE
8
Layer 1
10
12.770300
20
9.932815
11
12.540632
21
9.717566
0
LINE
8
Layer 1
10
12.540632
20
9.717566
11
12.331088
21
9.331881
0
LINE
8
Layer 1
10
12.331088
20
9.331881
11
12.339698
21
9.630948
0
LINE
8
Layer 1
10
12.339698
20
9.630948
11
12.890839
21
10.338003
0
LINE
8
Layer 1
10
12.890839
20
10.338003
11
13.060237
21
10.924933
0
LINE
8
Layer 1
10
13.060237
20
10.924933
11
12.977042
21
11.210099
0
LINE
8
Layer 1
10
12.977042
20
11.210099
11
12.764594
21
11.321821
0
LINE
8
Layer 1
10
12.764594
20
11.321821
11
12.764510
21
11.321856
0
LINE
8
Layer 1
10
18.316790
20
11.321856
11
18.077074
21
11.231052
0
LINE
8
Layer 1
10
18.077074
20
11.231052
11
17.857454
21
10.958577
0
LINE
8
Layer 1
10
17.857454
20
10.958577
11
17.530172
21
10.044572
0
LINE
8
Layer 1
10
17.530172
20
10.044572
11
17.412433
21
8.957432
0
LINE
8
Layer 1
10
17.412433
20
8.957432
11
17.498532
21
8.096539
0
LINE
8
Layer 1
10
17.498532
20
8.096539
11
17.794279
21
7.811477
0
LINE
8
Layer 1
10
17.794279
20
7.811477
11
18.058387
21
7.970813
0
LINE
8
Layer 1
10
18.058387
20
7.970813
11
18.158803
21
8.431914
0
LINE
8
Layer 1
10
18.158803
20
8.431914
11
18.132973
21
8.778491
0
LINE
8
Layer 1
10
18.132973
20
8.778491
11
18.072703
21
9.164176
0
LINE
8
Layer 1
10
18.072703
20
9.164176
11
18.270836
21
9.139072
0
LINE
8
Layer 1
10
18.270836
20
9.139072
11
18.385982
21
9.146126
0
LINE
8
Layer 1
10
18.385982
20
9.146126
11
18.385659
21
9.136271
0
LINE
8
Layer 1
10
18.385659
20
9.136271
11
18.491883
21
8.806499
0
LINE
8
Layer 1
10
18.491883
20
8.806499
11
18.776115
21
8.680669
0
LINE
8
Layer 1
10
18.776115
20
8.680669
11
19.152153
21
8.915421
0
LINE
8
Layer 1
10
19.152153
20
8.915421
11
19.269892
21
8.742184
0
LINE
8
Layer 1
10
19.269892
20
8.742184
11
19.444996
21
8.680670
0
LINE
8
Layer 1
10
19.444996
20
8.680670
11
19.700494
21
8.778491
0
LINE
8
Layer 1
10
19.700494
20
8.778491
11
19.950286
21
9.018844
0
LINE
8
Layer 1
10
19.950286
20
9.018844
11
19.975805
21
9.056189
0
LINE
8
Layer 1
10
19.975805
20
9.056189
11
20.004850
21
9.091562
0
LINE
8
Layer 1
10
20.004850
20
9.091562
11
20.182755
21
9.365422
0
LINE
8
Layer 1
10
20.182755
20
9.365422
11
20.268959
21
9.259198
0
LINE
8
Layer 1
10
20.268959
20
9.259198
11
20.343544
21
9.136272
0
LINE
8
Layer 1
10
20.343544
20
9.136272
11
20.377984
21
8.999343
0
LINE
8
Layer 1
10
20.377984
20
8.999343
11
20.300494
21
9.007745
0
LINE
8
Layer 1
10
20.300494
20
9.007745
11
20.214395
21
9.016044
0
LINE
8
Layer 1
10
20.214395
20
9.016044
11
20.053607
21
8.963036
0
LINE
8
Layer 1
10
20.053607
20
8.963036
11
19.999042
21
8.837206
0
LINE
8
Layer 1
10
19.999042
20
8.837206
11
20.076635
21
8.686273
0
LINE
8
Layer 1
10
20.076635
20
8.686273
11
20.306303
21
8.619260
0
LINE
8
Layer 1
10
20.306303
20
8.619260
11
20.579021
21
8.714281
0
LINE
8
Layer 1
10
20.579021
20
8.714281
11
20.900494
21
8.781294
0
LINE
8
Layer 1
10
20.900494
20
8.781294
11
21.176116
21
9.018846
0
LINE
8
Layer 1
10
21.176116
20
9.018846
11
21.182236
21
9.027144
0
LINE
8
Layer 1
10
21.182236
20
9.027144
11
21.239291
21
8.901522
0
LINE
8
Layer 1
10
21.239291
20
8.901522
11
21.638357
21
8.680671
0
LINE
8
Layer 1
10
21.638357
20
8.680671
11
21.977154
21
8.800899
0
LINE
8
Layer 1
10
21.977154
20
8.800899
11
22.040224
21
8.884717
0
LINE
8
Layer 1
10
22.040224
20
8.884717
11
22.063253
21
8.988140
0
LINE
8
Layer 1
10
22.063253
20
8.988140
11
22.040224
21
9.077559
0
LINE
8
Layer 1
10
22.040224
20
9.077559
11
21.985764
21
9.116667
0
LINE
8
Layer 1
10
21.985764
20
9.116667
11
21.922590
21
9.088763
0
LINE
8
Layer 1
10
21.922590
20
9.088763
11
21.807756
21
9.016044
0
LINE
8
Layer 1
10
21.807756
20
9.016044
11
21.698627
21
8.988140
0
LINE
8
Layer 1
10
21.698627
20
8.988140
11
21.557963
21
9.035651
0
LINE
8
Layer 1
10
21.557963
20
9.035651
11
21.486178
21
9.197788
0
LINE
8
Layer 1
10
21.486178
20
9.197788
11
21.466054
21
9.513556
0
LINE
8
Layer 1
10
21.466054
20
9.513556
11
21.471863
21
9.731606
0
LINE
8
Layer 1
10
21.471863
20
9.731606
11
21.822100
21
9.731560
0
LINE
8
Layer 1
10
21.822100
20
9.731560
11
22.065390
21
9.779769
0
LINE
8
Layer 1
10
22.065390
20
9.779769
11
22.146477
21
9.924402
0
LINE
8
Layer 1
10
22.146477
20
9.924402
11
22.126456
21
9.997016
0
LINE
8
Layer 1
10
22.126456
20
9.997016
11
22.060377
21
10.016622
0
LINE
8
Layer 1
10
22.060377
20
10.016622
11
21.738800
21
10.016600
0
LINE
8
Layer 1
10
21.738800
20
10.016600
11
22.018721
21
10.365985
0
LINE
8
Layer 1
10
22.018721
20
10.365985
11
22.112036
21
10.771269
0
LINE
8
Layer 1
10
22.112036
20
10.771269
11
22.043156
21
11.031124
0
LINE
8
Layer 1
10
22.043156
20
11.031124
11
21.853633
21
11.134547
0
LINE
8
Layer 1
10
21.853633
20
11.134547
11
21.546475
21
10.983613
0
LINE
8
Layer 1
10
21.546475
20
10.983613
11
21.305396
21
10.578426
0
LINE
8
Layer 1
10
21.305396
20
10.578426
11
21.156018
21
10.016600
0
LINE
8
Layer 1
10
21.156018
20
10.016600
11
20.992500
21
10.016600
0
LINE
8
Layer 1
10
20.992500
20
10.016600
11
20.863351
21
9.860064
0
LINE
8
Layer 1
10
20.863351
20
9.860064
11
20.891982
21
9.762243
0
LINE
8
Layer 1
10
20.891982
20
9.762243
11
21.009721
21
9.731537
0
LINE
8
Layer 1
10
21.009721
20
9.731537
11
21.121600
21
9.731560
0
LINE
8
Layer 1
10
21.121600
20
9.731560
11
21.112990
21
9.482804
0
LINE
8
Layer 1
10
21.112990
20
9.482804
11
21.120874
21
9.312886
0
LINE
8
Layer 1
10
21.120874
20
9.312886
11
21.072845
21
9.278757
0
LINE
8
Layer 1
10
21.072845
20
9.278757
11
20.742658
21
8.996495
0
LINE
8
Layer 1
10
20.742658
20
8.996495
11
20.748467
21
9.074711
0
LINE
8
Layer 1
10
20.748467
20
9.074711
11
20.699608
21
9.253653
0
LINE
8
Layer 1
10
20.699608
20
9.253653
11
20.561848
21
9.454794
0
LINE
8
Layer 1
10
20.561848
20
9.454794
11
20.467035
21
9.580624
0
LINE
8
Layer 1
10
20.467035
20
9.580624
11
20.438404
21
9.672845
0
LINE
8
Layer 1
10
20.438404
20
9.672845
11
20.490064
21
9.843385
0
LINE
8
Layer 1
10
20.490064
20
9.843385
11
20.521599
21
9.915999
0
LINE
8
Layer 1
10
20.521599
20
9.915999
11
20.533114
21
9.969111
0
LINE
8
Layer 1
10
20.533114
20
9.969111
11
20.501475
21
10.013820
0
LINE
8
Layer 1
10
20.501475
20
10.013820
11
20.389546
21
10.027825
0
LINE
8
Layer 1
10
20.389546
20
10.027825
11
20.162783
21
9.904796
0
LINE
8
Layer 1
10
20.162783
20
9.904796
11
20.033530
21
9.622534
0
LINE
8
Layer 1
10
20.033530
20
9.622534
11
19.918696
21
9.407285
0
LINE
8
Layer 1
10
19.918696
20
9.407285
11
19.690377
21
9.106559
0
LINE
8
Layer 1
10
19.690377
20
9.106559
11
19.637369
21
9.055210
0
LINE
8
Layer 1
10
19.637369
20
9.055210
11
19.505315
21
8.988094
0
LINE
8
Layer 1
10
19.505315
20
8.988094
11
19.447949
21
9.013197
0
LINE
8
Layer 1
10
19.447949
20
9.013197
11
19.427824
21
9.080314
0
LINE
8
Layer 1
10
19.427824
20
9.080314
11
19.493800
21
9.527514
0
LINE
8
Layer 1
10
19.493800
20
9.527514
11
19.536953
21
9.806975
0
LINE
8
Layer 1
10
19.536953
20
9.806975
11
19.396186
21
9.904796
0
LINE
8
Layer 1
10
19.396186
20
9.904796
11
19.269941
21
9.893697
0
LINE
8
Layer 1
10
19.269941
20
9.893697
11
19.232597
21
9.977514
0
LINE
8
Layer 1
10
19.232597
20
9.977514
11
19.149298
21
10.002618
0
LINE
8
Layer 1
10
19.149298
20
10.002618
11
18.773260
21
9.879693
0
LINE
8
Layer 1
10
18.773260
20
9.879693
11
18.491932
21
9.558220
0
LINE
8
Layer 1
10
18.491932
20
9.558220
11
18.450438
21
9.469319
0
LINE
8
Layer 1
10
18.450438
20
9.469319
11
18.445975
21
9.468795
0
LINE
8
Layer 1
10
18.445975
20
9.468795
11
18.190477
21
9.449293
0
LINE
8
Layer 1
10
18.190477
20
9.449293
11
18.130208
21
9.452091
0
LINE
8
Layer 1
10
18.130208
20
9.452091
11
17.992400
21
9.457590
0
LINE
8
Layer 1
10
17.992400
20
9.457590
11
17.920616
21
9.415681
0
LINE
8
Layer 1
10
17.920616
20
9.415681
11
17.851736
21
9.317860
0
LINE
8
Layer 1
10
17.851736
20
9.317860
11
17.828811
21
9.225639
0
LINE
8
Layer 1
10
17.828811
20
9.225639
11
17.909205
21
8.795244
0
LINE
8
Layer 1
10
17.909205
20
8.795244
11
17.940740
21
8.373251
0
LINE
8
Layer 1
10
17.940740
20
8.373251
11
17.854641
21
8.082483
0
LINE
8
Layer 1
10
17.854641
20
8.082483
11
17.788562
21
8.387152
0
LINE
8
Layer 1
10
17.788562
20
8.387152
11
17.768541
21
8.976883
0
LINE
8
Layer 1
10
17.768541
20
8.976883
11
17.797172
21
9.457589
0
LINE
8
Layer 1
10
17.797172
20
9.457589
11
18.402222
21
10.202445
0
LINE
8
Layer 1
10
18.402222
20
10.202445
11
18.603915
21
10.888609
0
LINE
8
Layer 1
10
18.603915
20
10.888609
11
18.526425
21
11.204481
0
LINE
8
Layer 1
10
18.526425
20
11.204481
11
18.316881
21
11.321805
0
LINE
8
Layer 1
10
18.316881
20
11.321805
11
18.316790
21
11.321856
0
LINE
8
Layer 1
10
12.704130
20
11.045196
11
12.761599
21
10.997686
0
LINE
8
Layer 1
10
12.761599
20
10.997686
11
12.781723
21
10.860757
0
LINE
8
Layer 1
10
12.781723
20
10.860757
11
12.663984
21
10.424760
0
LINE
8
Layer 1
10
12.663984
20
10.424760
11
12.371141
21
9.980361
0
LINE
8
Layer 1
10
12.371141
20
9.980361
11
12.465851
21
10.511378
0
LINE
8
Layer 1
10
12.465851
20
10.511378
11
12.589295
21
10.899864
0
LINE
8
Layer 1
10
12.589295
20
10.899864
11
12.704129
21
11.045196
0
LINE
8
Layer 1
10
12.704129
20
11.045196
11
12.704130
21
11.045196
0
LINE
8
Layer 1
10
18.256410
20
11.045196
11
18.328194
21
10.874656
0
LINE
8
Layer 1
10
18.328194
20
10.874656
11
18.201949
21
10.357643
0
LINE
8
Layer 1
10
18.201949
20
10.357643
11
17.848733
21
9.829427
0
LINE
8
Layer 1
10
17.848733
20
9.829427
11
17.977986
21
10.421959
0
LINE
8
Layer 1
10
17.977986
20
10.421959
11
18.127260
21
10.874657
0
LINE
8
Layer 1
10
18.127260
20
10.874657
11
18.256410
21
11.045197
0
LINE
8
Layer 1
10
18.256410
20
11.045197
11
18.256410
21
11.045196
0
LINE
8
Layer 1
10
21.776120
20
10.866358
11
21.839294
21
10.701420
0
LINE
8
Layer 1
10
21.839294
20
10.701420
11
21.753194
21
10.377249
0
LINE
8
Layer 1
10
21.753194
20
10.377249
11
21.500497
21
10.058577
0
LINE
8
Layer 1
10
21.500497
20
10.058577
11
21.578091
21
10.469470
0
LINE
8
Layer 1
10
21.578091
20
10.469470
11
21.678506
21
10.760134
0
LINE
8
Layer 1
10
21.678506
20
10.760134
11
21.776120
21
10.866358
0
LINE
8
Layer 1
10
21.776120
20
10.866358
11
21.776120
21
10.866358
0
LINE
8
Layer 1
10
19.189500
20
9.742808
11
19.083276
21
9.228492
0
LINE
8
Layer 1
10
19.083276
20
9.228492
11
18.999977
21
9.035650
0
LINE
8
Layer 1
10
18.999977
20
9.035650
11
18.879437
21
8.963036
0
LINE
8
Layer 1
10
18.879437
20
8.963036
11
18.778918
21
9.004945
0
LINE
8
Layer 1
10
18.778918
20
9.004945
11
18.744478
21
9.133472
0
LINE
8
Layer 1
10
18.744478
20
9.133472
11
18.804748
21
9.429738
0
LINE
8
Layer 1
10
18.804748
20
9.429738
11
18.965537
21
9.653286
0
LINE
8
Layer 1
10
18.965537
20
9.653286
11
19.189500
21
9.742809
0
LINE
8
Layer 1
10
19.189500
20
9.742809
11
19.189500
21
9.742808
0
LINE
8
Layer 1
10
13.987420
20
9.703596
11
14.001900
21
9.703560
0
LINE
8
Layer 1
10
14.001900
20
9.703560
11
13.993290
21
9.614141
0
LINE
8
Layer 1
10
13.993290
20
9.614141
11
14.039141
21
9.412896
0
LINE
8
Layer 1
10
14.039141
20
9.412896
11
14.177004
21
9.259162
0
LINE
8
Layer 1
10
14.177004
20
9.259162
11
14.085095
21
9.049618
0
LINE
8
Layer 1
10
14.085095
20
9.049618
11
13.927211
21
8.976900
0
LINE
8
Layer 1
10
13.927211
20
8.976900
11
13.780842
21
9.058020
0
LINE
8
Layer 1
10
13.780842
20
9.058020
11
13.720468
21
9.292771
0
LINE
8
Layer 1
10
13.720468
20
9.292771
11
13.795157
21
9.594639
0
LINE
8
Layer 1
10
13.795157
20
9.594639
11
13.987480
21
9.703560
0
LINE
8
Layer 1
10
13.987480
20
9.703560
11
13.987420
21
9.703596
0
LINE
8
Layer 1
10
15.620930
20
8.009716
11
15.198938
21
7.710649
0
LINE
8
Layer 1
10
15.198938
20
7.710649
11
14.931926
21
6.989590
0
LINE
8
Layer 1
10
14.931926
20
6.989590
11
14.840121
21
6.207016
0
LINE
8
Layer 1
10
14.840121
20
6.207016
11
14.972175
21
5.583779
0
LINE
8
Layer 1
10
14.972175
20
5.583779
11
15.394167
21
5.368530
0
LINE
8
Layer 1
10
15.394167
20
5.368530
11
15.744478
21
5.511061
0
LINE
8
Layer 1
10
15.744478
20
5.511061
11
15.962631
21
5.885647
0
LINE
8
Layer 1
10
15.962631
20
5.885647
11
16.215951
21
5.917702
0
LINE
8
Layer 1
10
16.215951
20
5.917702
11
16.318648
21
5.592079
0
LINE
8
Layer 1
10
16.318648
20
5.592079
11
16.694686
21
5.368531
0
LINE
8
Layer 1
10
16.694686
20
5.368531
11
17.021968
21
5.463552
0
LINE
8
Layer 1
10
17.021968
20
5.463552
11
17.157445
21
5.567390
0
LINE
8
Layer 1
10
17.157445
20
5.567390
11
17.194270
21
5.497057
0
LINE
8
Layer 1
10
17.194270
20
5.497057
11
17.466988
21
5.368530
0
LINE
8
Layer 1
10
17.466988
20
5.368530
11
17.848938
21
5.550480
0
LINE
8
Layer 1
10
17.848938
20
5.550480
11
17.868855
21
5.480356
0
LINE
8
Layer 1
10
17.868855
20
5.480356
11
18.023938
21
5.368530
0
LINE
8
Layer 1
10
18.023938
20
5.368530
11
18.153087
21
5.413240
0
LINE
8
Layer 1
10
18.153087
20
5.413240
11
18.227776
21
5.592078
0
LINE
8
Layer 1
10
18.227776
20
5.592078
11
18.339706
21
5.916352
0
LINE
8
Layer 1
10
18.339706
20
5.916352
11
18.477465
21
6.162307
0
LINE
8
Layer 1
10
18.477465
20
6.162307
11
18.583689
21
6.257328
0
LINE
8
Layer 1
10
18.583689
20
6.257328
11
18.615328
21
6.212618
0
LINE
8
Layer 1
10
18.615328
20
6.212618
11
18.577984
21
5.969464
0
LINE
8
Layer 1
10
18.577984
20
5.969464
11
18.537839
21
5.689900
0
LINE
8
Layer 1
10
18.537839
20
5.689900
11
18.612424
21
5.449547
0
LINE
8
Layer 1
10
18.612424
20
5.449547
11
18.833482
21
5.368531
0
LINE
8
Layer 1
10
18.833482
20
5.368531
11
19.155059
21
5.463551
0
LINE
8
Layer 1
10
19.155059
20
5.463551
11
19.287009
21
5.566144
0
LINE
8
Layer 1
10
19.287009
20
5.566144
11
19.333067
21
5.430044
0
LINE
8
Layer 1
10
19.333067
20
5.430044
11
19.465121
21
5.368530
0
LINE
8
Layer 1
10
19.465121
20
5.368530
11
19.594271
21
5.413240
0
LINE
8
Layer 1
10
19.594271
20
5.413240
11
19.668960
21
5.592078
0
LINE
8
Layer 1
10
19.668960
20
5.592078
11
19.795205
21
5.944256
0
LINE
8
Layer 1
10
19.795205
20
5.944256
11
19.967508
21
6.226622
0
LINE
8
Layer 1
10
19.967508
20
6.226622
11
20.139708
21
6.335543
0
LINE
8
Layer 1
10
20.139708
20
6.335543
11
20.191471
21
6.310439
0
LINE
8
Layer 1
10
20.191471
20
6.310439
11
20.214397
21
6.234921
0
LINE
8
Layer 1
10
20.214397
20
6.234921
11
20.159832
21
6.086788
0
LINE
8
Layer 1
10
20.159832
20
6.086788
11
19.979023
21
5.975066
0
LINE
8
Layer 1
10
19.979023
20
5.975066
11
19.864189
21
5.818531
0
LINE
8
Layer 1
10
19.864189
20
5.818531
11
19.999044
21
5.491560
0
LINE
8
Layer 1
10
19.999044
20
5.491560
11
20.355061
21
5.368531
0
LINE
8
Layer 1
10
20.355061
20
5.368531
11
20.668028
21
5.460750
0
LINE
8
Layer 1
10
20.668028
20
5.460750
11
20.929232
21
5.706705
0
LINE
8
Layer 1
10
20.929232
20
5.706705
11
20.954751
21
5.744050
0
LINE
8
Layer 1
10
20.954751
20
5.744050
11
20.983797
21
5.779424
0
LINE
8
Layer 1
10
20.983797
20
5.779424
11
21.161805
21
6.053283
0
LINE
8
Layer 1
10
21.161805
20
6.053283
11
21.247905
21
5.947059
0
LINE
8
Layer 1
10
21.247905
20
5.947059
11
21.322593
21
5.824134
0
LINE
8
Layer 1
10
21.322593
20
5.824134
11
21.357033
21
5.687204
0
LINE
8
Layer 1
10
21.357033
20
5.687204
11
21.279440
21
5.695502
0
LINE
8
Layer 1
10
21.279440
20
5.695502
11
21.193340
21
5.703905
0
LINE
8
Layer 1
10
21.193340
20
5.703905
11
21.032551
21
5.650793
0
LINE
8
Layer 1
10
21.032551
20
5.650793
11
20.978091
21
5.525067
0
LINE
8
Layer 1
10
20.978091
20
5.525067
11
21.055580
21
5.374133
0
LINE
8
Layer 1
10
21.055580
20
5.374133
11
21.285248
21
5.307016
0
LINE
8
Layer 1
10
21.285248
20
5.307016
11
21.514916
21
5.371332
0
LINE
8
Layer 1
10
21.514916
20
5.371332
11
21.669895
21
5.539071
0
LINE
8
Layer 1
10
21.669895
20
5.539071
11
21.727364
21
5.762619
0
LINE
8
Layer 1
10
21.727364
20
5.762619
11
21.678505
21
5.941457
0
LINE
8
Layer 1
10
21.678505
20
5.941457
11
21.540746
21
6.142702
0
LINE
8
Layer 1
10
21.540746
20
6.142702
11
21.446037
21
6.268532
0
LINE
8
Layer 1
10
21.446037
20
6.268532
11
21.417302
21
6.360752
0
LINE
8
Layer 1
10
21.417302
20
6.360752
11
21.468962
21
6.531188
0
LINE
8
Layer 1
10
21.468962
20
6.531188
11
21.500497
21
6.603906
0
LINE
8
Layer 1
10
21.500497
20
6.603906
11
21.512012
21
6.657018
0
LINE
8
Layer 1
10
21.512012
20
6.657018
11
21.480477
21
6.701727
0
LINE
8
Layer 1
10
21.480477
20
6.701727
11
21.368444
21
6.715732
0
LINE
8
Layer 1
10
21.368444
20
6.715732
11
21.141680
21
6.592703
0
LINE
8
Layer 1
10
21.141680
20
6.592703
11
21.001016
21
6.288034
0
LINE
8
Layer 1
10
21.001016
20
6.288034
11
20.897697
21
6.095192
0
LINE
8
Layer 1
10
20.897697
20
6.095192
11
20.686701
21
5.815731
0
LINE
8
Layer 1
10
20.686701
20
5.815731
11
20.607655
21
5.743012
0
LINE
8
Layer 1
10
20.607655
20
5.743012
11
20.435455
21
5.676000
0
LINE
8
Layer 1
10
20.435455
20
5.676000
11
20.291887
21
5.720709
0
LINE
8
Layer 1
10
20.291887
20
5.720709
11
20.223008
21
5.843635
0
LINE
8
Layer 1
10
20.223008
20
5.843635
11
20.498630
21
6.072888
0
LINE
8
Layer 1
10
20.498630
20
6.072888
11
20.579024
21
6.355150
0
LINE
8
Layer 1
10
20.579024
20
6.355150
11
20.490020
21
6.589901
0
LINE
8
Layer 1
10
20.490020
20
6.589901
11
20.260352
21
6.684922
0
LINE
8
Layer 1
10
20.260352
20
6.684922
11
19.927260
21
6.525586
0
LINE
8
Layer 1
10
19.927260
20
6.525586
11
19.611493
21
6.019776
0
LINE
8
Layer 1
10
19.611493
20
6.019776
11
19.620103
21
6.318843
0
LINE
8
Layer 1
10
19.620103
20
6.318843
11
20.171348
21
7.025898
0
LINE
8
Layer 1
10
20.171348
20
7.025898
11
20.340746
21
7.612828
0
LINE
8
Layer 1
10
20.340746
20
7.612828
11
20.257447
21
7.897891
0
LINE
8
Layer 1
10
20.257447
20
7.897891
11
20.044999
21
8.009717
0
LINE
8
Layer 1
10
20.044999
20
8.009717
11
19.620102
21
7.691148
0
LINE
8
Layer 1
10
19.620102
20
7.691148
11
19.353089
21
6.908574
0
LINE
8
Layer 1
10
19.353089
20
6.908574
11
19.264085
21
6.011374
0
LINE
8
Layer 1
10
19.264085
20
6.011374
11
19.264914
21
5.905254
0
LINE
8
Layer 1
10
19.264914
20
5.905254
11
19.106200
21
5.743013
0
LINE
8
Layer 1
10
19.106200
20
5.743013
11
18.971345
21
5.676001
0
LINE
8
Layer 1
10
18.971345
20
5.676001
11
18.888046
21
5.787723
0
LINE
8
Layer 1
10
18.888046
20
5.787723
11
18.942611
21
6.109196
0
LINE
8
Layer 1
10
18.942611
20
6.109196
11
19.005785
21
6.503284
0
LINE
8
Layer 1
10
19.005785
20
6.503284
11
18.819166
21
6.684923
0
LINE
8
Layer 1
10
18.819166
20
6.684923
11
18.609519
21
6.620711
0
LINE
8
Layer 1
10
18.609519
20
6.620711
11
18.379851
21
6.405462
0
LINE
8
Layer 1
10
18.379851
20
6.405462
11
18.167402
21
6.014175
0
LINE
8
Layer 1
10
18.167402
20
6.014175
11
18.196137
21
6.221022
0
LINE
8
Layer 1
10
18.196137
20
6.221022
11
18.242091
21
6.416666
0
LINE
8
Layer 1
10
18.242091
20
6.416666
11
18.285141
21
6.617911
0
LINE
8
Layer 1
10
18.285141
20
6.617911
11
18.262216
21
6.670919
0
LINE
8
Layer 1
10
18.262216
20
6.670919
11
18.181821
21
6.684924
0
LINE
8
Layer 1
10
18.181821
20
6.684924
11
18.015327
21
6.645816
0
LINE
8
Layer 1
10
18.015327
20
6.645816
11
17.932029
21
6.528388
0
LINE
8
Layer 1
10
17.932029
20
6.528388
11
17.826738
21
5.888968
0
LINE
8
Layer 1
10
17.826738
20
5.888968
11
17.688045
21
5.745814
0
LINE
8
Layer 1
10
17.688045
20
5.745814
11
17.558792
21
5.676001
0
LINE
8
Layer 1
10
17.558792
20
5.676001
11
17.481302
21
5.720710
0
LINE
8
Layer 1
10
17.481302
20
5.720710
11
17.458377
21
5.849237
0
LINE
8
Layer 1
10
17.458377
20
5.849237
11
17.527257
21
6.265731
0
LINE
8
Layer 1
10
17.527257
20
6.265731
11
17.581821
21
6.589902
0
LINE
8
Layer 1
10
17.581821
20
6.589902
11
17.435348
21
6.684923
0
LINE
8
Layer 1
10
17.435348
20
6.684923
11
17.297589
21
6.651417
0
LINE
8
Layer 1
10
17.297589
20
6.651417
11
17.228709
21
6.528388
0
LINE
8
Layer 1
10
17.228709
20
6.528388
11
17.142506
21
6.159508
0
LINE
8
Layer 1
10
17.142506
20
6.159508
11
17.112215
21
5.882018
0
LINE
8
Layer 1
10
17.112215
20
5.882018
11
16.961696
21
5.740213
0
LINE
8
Layer 1
10
16.961696
20
5.740213
11
16.754953
21
5.676001
0
LINE
8
Layer 1
10
16.754953
20
5.676001
11
16.634414
21
5.723511
0
LINE
8
Layer 1
10
16.634414
20
5.723511
11
16.568335
21
5.888345
0
LINE
8
Layer 1
10
16.568335
20
5.888345
11
17.082235
21
6.757641
0
LINE
8
Layer 1
10
17.082235
20
6.757641
11
17.271758
21
7.529011
0
LINE
8
Layer 1
10
17.271758
20
7.529011
11
17.191364
21
7.883991
0
LINE
8
Layer 1
10
17.191364
20
7.883991
11
16.976011
21
8.009717
0
LINE
8
Layer 1
10
16.976011
20
8.009717
11
16.554019
21
7.696750
0
LINE
8
Layer 1
10
16.554019
20
7.696750
11
16.287007
21
6.947682
0
LINE
8
Layer 1
10
16.287007
20
6.947682
11
16.198625
21
6.210026
0
LINE
8
Layer 1
10
16.198625
20
6.210026
11
15.985555
21
6.179113
0
LINE
8
Layer 1
10
15.985555
20
6.179113
11
15.841986
21
6.525587
0
LINE
8
Layer 1
10
15.841986
20
6.525587
11
15.529123
21
6.682122
0
LINE
8
Layer 1
10
15.529123
20
6.682122
11
15.824766
21
7.157330
0
LINE
8
Layer 1
10
15.824766
20
7.157330
11
15.913770
21
7.612829
0
LINE
8
Layer 1
10
15.913770
20
7.612829
11
15.833376
21
7.897892
0
LINE
8
Layer 1
10
15.833376
20
7.897892
11
15.620928
21
8.009718
0
LINE
8
Layer 1
10
15.620928
20
8.009718
11
15.620930
21
8.009716
0
LINE
8
Layer 1
10
13.729120
20
7.822475
11
13.421859
21
7.671541
0
LINE
8
Layer 1
10
13.421859
20
7.671541
11
13.180780
21
7.266250
0
LINE
8
Layer 1
10
13.180780
20
7.266250
11
13.031402
21
6.704527
0
LINE
8
Layer 1
10
13.031402
20
6.704527
11
12.867900
21
6.704480
0
LINE
8
Layer 1
10
12.867900
20
6.704480
11
12.738751
21
6.547945
0
LINE
8
Layer 1
10
12.738751
20
6.547945
11
12.767382
21
6.450123
0
LINE
8
Layer 1
10
12.767382
20
6.450123
11
12.885121
21
6.419418
0
LINE
8
Layer 1
10
12.885121
20
6.419418
11
12.997000
21
6.419420
0
LINE
8
Layer 1
10
12.997000
20
6.419420
11
12.988390
21
6.170664
0
LINE
8
Layer 1
10
12.988390
20
6.170664
11
12.996274
21
6.000747
0
LINE
8
Layer 1
10
12.996274
20
6.000747
11
12.948245
21
5.966618
0
LINE
8
Layer 1
10
12.948245
20
5.966618
11
12.741502
21
5.745767
0
LINE
8
Layer 1
10
12.741502
20
5.745767
11
12.612353
21
5.675953
0
LINE
8
Layer 1
10
12.612353
20
5.675953
11
12.534863
21
5.720663
0
LINE
8
Layer 1
10
12.534863
20
5.720663
11
12.511834
21
5.849190
0
LINE
8
Layer 1
10
12.511834
20
5.849190
11
12.580714
21
6.265684
0
LINE
8
Layer 1
10
12.580714
20
6.265684
11
12.635278
21
6.589855
0
LINE
8
Layer 1
10
12.635278
20
6.589855
11
12.488908
21
6.684876
0
LINE
8
Layer 1
10
12.488908
20
6.684876
11
12.351045
21
6.651370
0
LINE
8
Layer 1
10
12.351045
20
6.651370
11
12.282166
21
6.528341
0
LINE
8
Layer 1
10
12.282166
20
6.528341
11
12.196066
21
6.159461
0
LINE
8
Layer 1
10
12.196066
20
6.159461
11
12.164427
21
5.837988
0
LINE
8
Layer 1
10
12.164427
20
5.837988
11
12.247726
21
5.497012
0
LINE
8
Layer 1
10
12.247726
20
5.497012
11
12.520444
21
5.368485
0
LINE
8
Layer 1
10
12.520444
20
5.368485
11
13.051564
21
5.706659
0
LINE
8
Layer 1
10
13.051564
20
5.706659
11
13.057788
21
5.714542
0
LINE
8
Layer 1
10
13.057788
20
5.714542
11
13.114738
21
5.589335
0
LINE
8
Layer 1
10
13.114738
20
5.589335
11
13.513804
21
5.368484
0
LINE
8
Layer 1
10
13.513804
20
5.368484
11
13.852601
21
5.488712
0
LINE
8
Layer 1
10
13.852601
20
5.488712
11
13.915672
21
5.572530
0
LINE
8
Layer 1
10
13.915672
20
5.572530
11
13.938701
21
5.675953
0
LINE
8
Layer 1
10
13.938701
20
5.675953
11
13.915672
21
5.765372
0
LINE
8
Layer 1
10
13.915672
20
5.765372
11
13.861211
21
5.804480
0
LINE
8
Layer 1
10
13.861211
20
5.804480
11
13.798037
21
5.776576
0
LINE
8
Layer 1
10
13.798037
20
5.776576
11
13.683203
21
5.703858
0
LINE
8
Layer 1
10
13.683203
20
5.703858
11
13.574074
21
5.675953
0
LINE
8
Layer 1
10
13.574074
20
5.675953
11
13.433410
21
5.723464
0
LINE
8
Layer 1
10
13.433410
20
5.723464
11
13.361626
21
5.885601
0
LINE
8
Layer 1
10
13.361626
20
5.885601
11
13.341502
21
6.201369
0
LINE
8
Layer 1
10
13.341502
20
6.201369
11
13.347311
21
6.419419
0
LINE
8
Layer 1
10
13.347311
20
6.419419
11
13.697600
21
6.419420
0
LINE
8
Layer 1
10
13.697600
20
6.419420
11
13.940890
21
6.467629
0
LINE
8
Layer 1
10
13.940890
20
6.467629
11
14.021977
21
6.612262
0
LINE
8
Layer 1
10
14.021977
20
6.612262
11
14.001956
21
6.684876
0
LINE
8
Layer 1
10
14.001956
20
6.684876
11
13.935877
21
6.704482
0
LINE
8
Layer 1
10
13.935877
20
6.704482
11
13.614300
21
6.704480
0
LINE
8
Layer 1
10
13.614300
20
6.704480
11
13.894221
21
7.053814
0
LINE
8
Layer 1
10
13.894221
20
7.053814
11
13.987536
21
7.459045
0
LINE
8
Layer 1
10
13.987536
20
7.459045
11
13.918656
21
7.719004
0
LINE
8
Layer 1
10
13.918656
20
7.719004
11
13.729237
21
7.822427
0
LINE
8
Layer 1
10
13.729237
20
7.822427
11
13.729120
21
7.822475
0
LINE
8
Layer 1
10
22.697690
20
7.744260
11
22.447898
21
7.565318
0
LINE
8
Layer 1
10
22.447898
20
7.565318
11
22.292918
21
6.874964
0
LINE
8
Layer 1
10
22.292918
20
6.874964
11
22.160864
21
6.162307
0
LINE
8
Layer 1
10
22.160864
20
6.162307
11
22.157957
21
6.139900
0
LINE
8
Layer 1
10
22.157957
20
6.139900
11
22.195302
21
6.061685
0
LINE
8
Layer 1
10
22.195302
20
6.061685
11
22.290011
21
6.036477
0
LINE
8
Layer 1
10
22.290011
20
6.036477
11
22.439285
21
6.126000
0
LINE
8
Layer 1
10
22.439285
20
6.126000
11
22.674762
21
6.855462
0
LINE
8
Layer 1
10
22.674762
20
6.855462
11
22.872791
21
7.573720
0
LINE
8
Layer 1
10
22.872791
20
7.573720
11
22.881401
21
7.629633
0
LINE
8
Layer 1
10
22.881401
20
7.629633
11
22.697687
21
7.744260
0
LINE
8
Layer 1
10
22.697687
20
7.744260
11
22.697690
21
7.744260
0
LINE
8
Layer 1
10
15.554950
20
7.733056
11
15.612315
21
7.685546
0
LINE
8
Layer 1
10
15.612315
20
7.685546
11
15.635344
21
7.548617
0
LINE
8
Layer 1
10
15.635344
20
7.548617
11
15.520510
21
7.087413
0
LINE
8
Layer 1
10
15.520510
20
7.087413
11
15.219057
21
6.492080
0
LINE
8
Layer 1
10
15.219057
20
6.492080
11
15.305157
21
7.115318
0
LINE
8
Layer 1
10
15.305157
20
7.115318
11
15.428601
21
7.565319
0
LINE
8
Layer 1
10
15.428601
20
7.565319
11
15.554950
21
7.733058
0
LINE
8
Layer 1
10
15.554950
20
7.733058
11
15.554950
21
7.733056
0
LINE
8
Layer 1
10
16.912830
20
7.733056
11
16.993224
21
7.520608
0
LINE
8
Layer 1
10
16.993224
20
7.520608
11
16.872685
21
6.919673
0
LINE
8
Layer 1
10
16.872685
20
6.919673
11
16.548307
21
6.265730
0
LINE
8
Layer 1
10
16.548307
20
6.265730
11
16.617187
21
6.925275
0
LINE
8
Layer 1
10
16.617187
20
6.925275
11
16.763556
21
7.501106
0
LINE
8
Layer 1
10
16.763556
20
7.501106
11
16.912830
21
7.733057
0
LINE
8
Layer 1
10
16.912830
20
7.733057
11
16.912830
21
7.733056
0
LINE
8
Layer 1
10
19.984720
20
7.733056
11
20.042086
21
7.685546
0
LINE
8
Layer 1
10
20.042086
20
7.685546
11
20.062210
21
7.548617
0
LINE
8
Layer 1
10
20.062210
20
7.548617
11
19.944471
21
7.112517
0
LINE
8
Layer 1
10
19.944471
20
7.112517
11
19.651733
21
6.668222
0
LINE
8
Layer 1
10
19.651733
20
6.668222
11
19.746443
21
7.199239
0
LINE
8
Layer 1
10
19.746443
20
7.199239
11
19.869887
21
7.587725
0
LINE
8
Layer 1
10
19.869887
20
7.587725
11
19.984721
21
7.733057
0
LINE
8
Layer 1
10
19.984721
20
7.733057
11
19.984720
21
7.733056
0
LINE
8
Layer 1
10
13.651600
20
7.554070
11
13.714774
21
7.389236
0
LINE
8
Layer 1
10
13.714774
20
7.389236
11
13.628674
21
7.064962
0
LINE
8
Layer 1
10
13.628674
20
7.064962
11
13.375977
21
6.746393
0
LINE
8
Layer 1
10
13.375977
20
6.746393
11
13.453571
21
7.157286
0
LINE
8
Layer 1
10
13.453571
20
7.157286
11
13.553986
21
7.447950
0
LINE
8
Layer 1
10
13.553986
20
7.447950
11
13.651600
21
7.554071
0
LINE
8
Layer 1
10
13.651600
20
7.554071
11
13.651600
21
7.554070
0
LINE
8
Layer 1
10
12.577950
20
7.305418
11
12.379817
21
7.238302
0
LINE
8
Layer 1
10
12.379817
20
7.238302
11
12.302327
21
7.076165
0
LINE
8
Layer 1
10
12.302327
20
7.076165
11
12.362597
21
6.922431
0
LINE
8
Layer 1
10
12.362597
20
6.922431
11
12.543510
21
6.869318
0
LINE
8
Layer 1
10
12.543510
20
6.869318
11
12.741539
21
6.933634
0
LINE
8
Layer 1
10
12.741539
20
6.933634
11
12.816228
21
7.112472
0
LINE
8
Layer 1
10
12.816228
20
7.112472
11
12.750149
21
7.255107
0
LINE
8
Layer 1
10
12.750149
20
7.255107
11
12.577950
21
7.305418
0
LINE
8
Layer 1
10
12.577950
20
7.305418
11
12.577950
21
7.305418
0
LINE
8
Layer 1
10
17.524420
20
7.305418
11
17.326391
21
7.238302
0
LINE
8
Layer 1
10
17.326391
20
7.238302
11
17.248798
21
7.076165
0
LINE
8
Layer 1
10
17.248798
20
7.076165
11
17.309171
21
6.922431
0
LINE
8
Layer 1
10
17.309171
20
6.922431
11
17.489980
21
6.869318
0
LINE
8
Layer 1
10
17.489980
20
6.869318
11
17.688113
21
6.933634
0
LINE
8
Layer 1
10
17.688113
20
6.933634
11
17.762699
21
7.112472
0
LINE
8
Layer 1
10
17.762699
20
7.112472
11
17.696723
21
7.255107
0
LINE
8
Layer 1
10
17.696723
20
7.255107
11
17.524420
21
7.305418
0
LINE
8
Layer 1
10
17.524420
20
7.305418
11
17.524420
21
7.305418
0
LINE
8
Layer 1
10
15.474630
20
6.408218
11
15.483200
21
6.408220
0
LINE
8
Layer 1
10
15.483200
20
6.408220
11
15.471685
21
6.301996
0
LINE
8
Layer 1
10
15.471685
20
6.301996
11
15.517640
21
6.100751
0
LINE
8
Layer 1
10
15.517640
20
6.100751
11
15.655503
21
5.947016
0
LINE
8
Layer 1
10
15.655503
20
5.947016
11
15.563594
21
5.737472
0
LINE
8
Layer 1
10
15.563594
20
5.737472
11
15.405710
21
5.664754
0
LINE
8
Layer 1
10
15.405710
20
5.664754
11
15.259237
21
5.748572
0
LINE
8
Layer 1
10
15.259237
20
5.748572
11
15.198968
21
5.991726
0
LINE
8
Layer 1
10
15.198968
20
5.991726
11
15.276457
21
6.293594
0
LINE
8
Layer 1
10
15.276457
20
6.293594
11
15.474590
21
6.408220
0
LINE
8
Layer 1
10
15.474590
20
6.408220
11
15.474630
21
6.408218
0
LINE
8
Layer 1
10
22.203990
20
5.888300
11
21.997247
21
5.812885
0
LINE
8
Layer 1
10
21.997247
20
5.812885
11
21.925463
21
5.611640
0
LINE
8
Layer 1
10
21.925463
20
5.611640
11
21.988637
21
5.435603
0
LINE
8
Layer 1
10
21.988637
20
5.435603
11
22.180960
21
5.368487
0
LINE
8
Layer 1
10
22.180960
20
5.368487
11
22.384799
21
5.444005
0
LINE
8
Layer 1
10
22.384799
20
5.444005
11
22.459488
21
5.650748
0
LINE
8
Layer 1
10
22.459488
20
5.650748
11
22.393409
21
5.826889
0
LINE
8
Layer 1
10
22.393409
20
5.826889
11
22.203990
21
5.888300
0
LINE
8
Layer 1
10
22.203990
20
5.888300
11
22.203990
21
5.888300
 0 
ENDSEC
 0 
EOF