<?xml version="1.0" encoding="UTF-8" standalone="no"?>
<!-- Created with Inkscape (http://www.inkscape.org/) -->

<svg
   xmlns:dc="http://purl.org/dc/elements/1.1/"
   xmlns:cc="http://creativecommons.org/ns#"
   xmlns:rdf="http://www.w3.org/1999/02/22-rdf-syntax-ns#"
   xmlns:svg="http://www.w3.org/2000/svg"
   xmlns="http://www.w3.org/2000/svg"
   xmlns:sodipodi="http://sodipodi.sourceforge.net/DTD/sodipodi-0.dtd"
   xmlns:inkscape="http://www.inkscape.org/namespaces/inkscape"
   width="210mm"
   height="297mm"
   viewBox="0 0 210 297"
   version="1.1"
   id="svg1410"
   inkscape:version="0.92.4 (5da689c313, 2019-01-14)"
   sodipodi:docname="Flake.svg">
  <defs
     id="defs1404" />
  <sodipodi:namedview
     id="base"
     pagecolor="#ffffff"
     bordercolor="#666666"
     borderopacity="1.0"
     inkscape:pageopacity="0.0"
     inkscape:pageshadow="2"
     inkscape:zoom="0.35"
     inkscape:cx="-122.85714"
     inkscape:cy="560"
     inkscape:document-units="mm"
     inkscape:current-layer="layer1"
     showgrid="false"
     inkscape:window-width="1920"
     inkscape:window-height="1057"
     inkscape:window-x="-8"
     inkscape:window-y="-8"
     inkscape:window-maximized="1" />
  <metadata
     id="metadata1407">
    <rdf:RDF>
      <cc:Work
         rdf:about="">
        <dc:format>image/svg+xml</dc:format>
        <dc:type
           rdf:resource="http://purl.org/dc/dcmitype/StillImage" />
        <dc:title></dc:title>
      </cc:Work>
    </rdf:RDF>
  </metadata>
  <g
     inkscape:label="Layer 1"
     inkscape:groupmode="layer"
     id="layer1">
    <path
       style="opacity:0.95499998;vector-effect:none;fill:#ffe647;fill-opacity:1;stroke:none;stroke-width:0.19999999;stroke-linecap:round;stroke-linejoin:round;stroke-miterlimit:4;stroke-dasharray:none;stroke-dashoffset:0;stroke-opacity:1"
       d="m 105.00007,135.79955 c -0.068,0 -0.14117,0.005 -0.20921,0.021 -0.0877,0.0196 -0.17094,0.05 -0.24798,0.0899 -0.077,0.0398 -0.14796,0.0892 -0.21143,0.1464 -0.0635,0.0572 -0.11945,0.12238 -0.1664,0.19427 -0.0469,0.0719 -0.0848,0.1505 -0.11228,0.23425 l -0.35602,0.77988 c -0.0288,0.0628 -0.0506,0.12794 -0.0656,0.19427 -0.0151,0.0663 -0.0233,0.13382 -0.0247,0.20153 -0.002,0.0677 0.004,0.13557 0.0168,0.20255 0.0124,0.067 0.0318,0.13297 0.058,0.19709 -0.0262,0.0157 -0.0471,0.0366 -0.0733,0.0575 -0.0419,0.0367 -0.0805,0.0762 -0.11551,0.11834 -0.035,0.0421 -0.0664,0.0869 -0.0939,0.13369 -0.0275,0.0468 -0.051,0.0956 -0.0703,0.1462 -0.0193,0.0506 -0.0343,0.10305 -0.0448,0.1567 -0.0968,0.0183 -0.191,0.0509 -0.27868,0.0967 -0.0877,0.0458 -0.16884,0.10483 -0.2395,0.17549 -0.0628,0.0654 -0.1165,0.13594 -0.16034,0.21183 -0.0438,0.0759 -0.0778,0.15698 -0.10137,0.24334 -0.068,0.0419 -0.13083,0.089 -0.18841,0.14661 -0.0491,0.0491 -0.092,0.10185 -0.12884,0.15751 -0.0368,0.0556 -0.0673,0.11412 -0.0919,0.17447 -0.0245,0.0603 -0.0431,0.12261 -0.0553,0.18579 -0.0123,0.0632 -0.0184,0.12732 -0.0184,0.19144 0,0.0641 0.006,0.12825 0.0184,0.19143 0.0123,0.0632 0.0308,0.12543 0.0553,0.18579 0.0245,0.0603 0.0551,0.11882 0.0919,0.17447 0.0368,0.0557 0.0798,0.10844 0.12884,0.15751 l 1.22476,1.22477 c -0.0654,0.0628 -0.12308,0.1321 -0.17084,0.20799 -0.0478,0.0759 -0.0855,0.1584 -0.11167,0.24738 -0.0576,-0.0157 -0.11655,-0.0262 -0.17609,-0.0321 -0.0595,-0.006 -0.11974,-0.007 -0.17993,-0.004 -0.0104,-0.005 -0.0158,-0.005 -0.0263,-0.0105 h -0.005 c -0.0445,-0.0458 -0.0935,-0.0871 -0.1462,-0.12318 -0.0527,-0.0361 -0.10893,-0.0669 -0.16781,-0.0921 -0.0589,-0.0252 -0.12022,-0.0446 -0.18336,-0.0577 -0.0631,-0.0132 -0.12803,-0.0202 -0.19346,-0.0202 h -0.19891 c -0.085,0 -0.16872,0.0115 -0.24919,0.0333 -0.0805,0.0218 -0.15764,0.0542 -0.22961,0.0957 -0.072,0.0415 -0.13877,0.0923 -0.1983,0.15145 -0.0595,0.0591 -0.11191,0.12655 -0.15509,0.20113 l -0.0994,0.17266 c -0.0327,0.0576 -0.0594,0.11778 -0.0796,0.17952 -0.0202,0.0617 -0.0341,0.12502 -0.0416,0.18881 -0.008,0.0638 -0.009,0.12814 -0.003,0.19185 0.005,0.0637 0.017,0.12691 0.0353,0.18841 v 0.005 c -0.005,0.0104 -0.005,0.0156 -0.005,0.0261 -0.0314,0.0497 -0.0601,0.1022 -0.085,0.1565 -0.0249,0.0543 -0.0457,0.11044 -0.0614,0.16801 -0.089,-0.0209 -0.18071,-0.0301 -0.271,-0.0275 -0.0903,0.002 -0.17917,0.0171 -0.26292,0.0432 l -0.444874,-1.66963 c -0.01505,-0.055 -0.03447,-0.10775 -0.05775,-0.15812 -0.02325,-0.0504 -0.05055,-0.0982 -0.08118,-0.14338 -0.06125,-0.0903 -0.136349,-0.16963 -0.22173,-0.23506 -0.08538,-0.0654 -0.180847,-0.11693 -0.28332,-0.15226 -0.05124,-0.0177 -0.104134,-0.0312 -0.158319,-0.0404 -0.05419,-0.009 -0.109726,-0.0139 -0.165994,-0.0139 -0.08897,0 -0.177967,0.0156 -0.261714,0.0365 -0.07851,0.0209 -0.151867,0.0524 -0.219909,0.0891 -0.08113,-0.0209 -0.168745,-0.0329 -0.257068,-0.0335 -0.08832,-7.8e-4 -0.177365,0.01 -0.261109,0.0335 -0.09944,0.0262 -0.192261,0.0665 -0.276657,0.11954 -0.0844,0.053 -0.160343,0.11858 -0.225767,0.19447 -0.04972,-0.017 -0.101766,-0.0297 -0.155087,-0.0382 -0.05333,-0.008 -0.107811,-0.0127 -0.162766,-0.0123 -0.05496,3.6e-4 -0.110347,0.005 -0.164982,0.0144 -0.05463,0.009 -0.108604,0.0231 -0.160945,0.0414 -0.03138,0.0104 -0.06289,0.0261 -0.08906,0.0365 -0.04188,-0.055 -0.08931,-0.10507 -0.141154,-0.14964 -0.05185,-0.0446 -0.108073,-0.0837 -0.167612,-0.11672 -0.05953,-0.033 -0.122262,-0.06 -0.187197,-0.0804 -0.06494,-0.0204 -0.132078,-0.034 -0.20012,-0.0406 l -0.858241,-0.0838 c -0.05757,-0.0118 -0.116162,-0.0179 -0.17488,-0.0188 -0.05872,-0.001 -0.117659,0.004 -0.175888,0.0129 -0.05823,0.009 -0.115748,0.024 -0.171852,0.0434 -0.0561,0.0194 -0.110824,0.0435 -0.163168,0.0723 -0.05626,0.0301 -0.108933,0.0655 -0.15751,0.10541 -0.04858,0.0399 -0.09297,0.0845 -0.132876,0.13287 -0.03991,0.0484 -0.07535,0.10069 -0.105615,0.15631 -0.03025,0.0556 -0.05529,0.11459 -0.07492,0.17609 -0.02747,0.085 -0.04324,0.17159 -0.04766,0.25787 -0.0044,0.0863 0.0027,0.17224 0.0202,0.25566 0.01766,0.0834 0.04605,0.16444 0.08481,0.24091 0.03876,0.0765 0.08772,0.14843 0.146607,0.21385 l 0.497376,0.69609 c 0.04057,0.0563 0.08638,0.10751 0.136513,0.15347 0.05013,0.046 0.104458,0.0867 0.162356,0.12136 0.05791,0.0347 0.119288,0.0634 0.18316,0.0858 0.06387,0.0224 0.130261,0.0383 0.198303,0.0475 l 0.01575,0.0943 c 0.01043,0.0563 0.0256,0.11055 0.04483,0.16256 0.01919,0.052 0.04252,0.10173 0.06967,0.14883 0.02716,0.0471 0.05801,0.0917 0.09229,0.13328 0.03427,0.0416 0.07191,0.08 0.112477,0.11531 -0.03404,0.0916 -0.05358,0.18856 -0.05815,0.28736 -0.0046,0.0988 0.0057,0.19942 0.03189,0.29887 0.02356,0.089 0.05891,0.17284 0.103392,0.24939 0.04449,0.0765 0.09813,0.14579 0.158319,0.20598 0.0052,0.0785 0.01583,0.15694 0.03673,0.23546 0.01442,0.0549 0.03314,0.10794 0.05594,0.15832 0.02278,0.0504 0.04946,0.0982 0.07976,0.14338 0.03029,0.0451 0.06424,0.0876 0.101173,0.12682 0.03693,0.0393 0.07706,0.0753 0.119749,0.10803 0.04269,0.0327 0.08794,0.0619 0.135501,0.0874 0.04757,0.0255 0.09747,0.0474 0.149031,0.065 0.05156,0.0177 0.104852,0.0312 0.159533,0.0404 0.05468,0.009 0.110688,0.0139 0.167608,0.0139 0.08898,0 0.177971,-0.0156 0.26171,-0.0365 l 1.669633,-0.45012 c 0.01833,0.089 0.04976,0.17407 0.09229,0.25323 0.04253,0.0792 0.09612,0.15225 0.158928,0.21769 -0.04187,0.0419 -0.08119,0.0878 -0.116521,0.13691 -0.03533,0.0491 -0.06672,0.10135 -0.09289,0.1563 -0.0053,0.005 -0.01575,0.0105 -0.02098,0.0157 l -0.005,0.005 c -0.06281,0.0157 -0.123763,0.0372 -0.181746,0.0644 -0.05798,0.0272 -0.113017,0.06 -0.16438,0.0979 -0.05136,0.0379 -0.09902,0.0812 -0.141961,0.12924 -0.04293,0.0481 -0.08118,0.10095 -0.113896,0.15852 l -0.09955,0.17286 c -0.04318,0.0733 -0.07534,0.151 -0.09693,0.23122 -0.02157,0.0802 -0.03251,0.1628 -0.03251,0.24556 0,0.0828 0.01094,0.16568 0.03251,0.24657 0.02161,0.0809 0.05375,0.15986 0.09693,0.23445 l 0.09955,0.17266 c 0.03271,0.0563 0.07096,0.10865 0.113896,0.1565 0.04294,0.0478 0.0906,0.0912 0.141961,0.12944 0.05136,0.0383 0.106396,0.0716 0.16438,0.0992 0.05798,0.0276 0.11894,0.0493 0.181746,0.065 l 0.005,0.005 c 0.0052,0.005 0.01575,0.0105 0.02098,0.0157 0.02876,0.0523 0.06024,0.10344 0.09491,0.15185 0.0347,0.0484 0.07263,0.094 0.114501,0.13591 -0.06281,0.0654 -0.11524,0.13877 -0.157111,0.21729 -0.04187,0.0785 -0.07316,0.16222 -0.0941,0.24858 l -1.669633,-0.45012 c -0.08374,-0.0261 -0.17273,-0.0365 -0.26171,-0.0365 -0.05692,0 -0.11293,0.005 -0.167608,0.0139 -0.05468,0.009 -0.107971,0.0231 -0.159534,0.041 -0.05156,0.0179 -0.101465,0.0399 -0.14903,0.0656 -0.04757,0.0257 -0.09281,0.0552 -0.135501,0.088 -0.08538,0.0658 -0.160324,0.14522 -0.220922,0.23526 -0.03028,0.045 -0.05698,0.0925 -0.07976,0.14257 -0.02278,0.05 -0.04155,0.1024 -0.05594,0.15671 -0.02095,0.0785 -0.03673,0.15715 -0.03673,0.23566 -0.06281,0.0628 -0.116506,0.1321 -0.160339,0.208 -0.04383,0.0759 -0.07782,0.15819 -0.101372,0.24717 -0.02876,0.0994 -0.03912,0.20028 -0.03454,0.29907 0.0046,0.0988 0.02411,0.19557 0.05553,0.28716 -0.04057,0.0353 -0.07821,0.074 -0.112481,0.11551 -0.03427,0.0415 -0.06513,0.086 -0.09229,0.13307 -0.02716,0.0471 -0.05065,0.0968 -0.06987,0.14884 -0.01919,0.052 -0.03419,0.10649 -0.04463,0.16276 -0.01043,0.0314 -0.01051,0.0627 -0.01575,0.0941 -0.06804,0.009 -0.134435,0.0252 -0.198303,0.0477 -0.06387,0.0224 -0.12526,0.0512 -0.183161,0.0858 -0.0579,0.0347 -0.112231,0.0754 -0.162359,0.12137 -0.05013,0.046 -0.09595,0.0972 -0.13651,0.15347 l -0.502424,0.70133 c -0.03925,0.0445 -0.07438,0.0922 -0.104807,0.14258 -0.0304,0.0504 -0.05621,0.10336 -0.07714,0.15831 -0.02094,0.055 -0.03685,0.11201 -0.04765,0.17024 -0.01082,0.0582 -0.01637,0.11771 -0.01637,0.17791 -0.0016,0.0641 0.0035,0.12755 0.01434,0.18962 0.01082,0.0621 0.02743,0.12279 0.04968,0.18134 0.02224,0.0585 0.05016,0.11484 0.0832,0.16842 0.03302,0.0536 0.07132,0.10434 0.114501,0.15145 0.0471,0.051 0.09895,0.0967 0.154884,0.13671 0.05594,0.04 0.115908,0.0744 0.178717,0.10218 0.06281,0.0278 0.128573,0.0491 0.196287,0.0636 0.06772,0.0145 0.137334,0.022 0.207994,0.022 0.06804,0 0.130872,-0.005 0.198909,-0.0208 l 0.853197,-0.0838 c 0.06935,-0.008 0.136959,-0.0224 0.20214,-0.043 0.06518,-0.0206 0.127784,-0.0473 0.186994,-0.08 0.05921,-0.0327 0.115158,-0.0713 0.1666,-0.11551 0.05144,-0.0442 0.09848,-0.0939 0.140347,-0.14883 0.02614,0.0157 0.05745,0.0261 0.08885,0.0365 0.104677,0.034 0.214645,0.0511 0.32391,0.0511 0.05463,0 0.109198,-0.004 0.162762,-0.0129 0.05357,-0.008 0.106275,-0.0212 0.15731,-0.0382 0.06281,0.0733 0.137382,0.1388 0.221125,0.19245 0.08374,0.0537 0.176603,0.0954 0.276048,0.12157 0.08637,0.0236 0.175407,0.0353 0.263734,0.0353 0.08832,0 0.175947,-0.0118 0.259694,-0.0353 0.06804,0.0367 0.141199,0.0681 0.219706,0.0891 0.08374,0.0261 0.172735,0.0365 0.261714,0.0365 0.05692,0 0.112927,-0.005 0.167612,-0.0137 0.05468,-0.009 0.10817,-0.0227 0.159733,-0.0404 0.05156,-0.0177 0.101262,-0.0395 0.148827,-0.065 0.04757,-0.0255 0.09281,-0.0549 0.135502,-0.0876 0.04269,-0.0327 0.08282,-0.0688 0.119749,-0.10803 0.03693,-0.0393 0.07068,-0.0815 0.100969,-0.12662 0.03028,-0.0451 0.05718,-0.0932 0.07997,-0.14358 0.02278,-0.0504 0.04154,-0.10316 0.05594,-0.15811 l 0.450115,-1.66964 c 0.0837,0.0262 0.17289,0.0406 0.26252,0.0432 0.0896,0.003 0.17979,-0.007 0.26616,-0.0277 0.0157,0.0576 0.0353,0.11391 0.0596,0.16822 0.0242,0.0543 0.053,0.10678 0.087,0.1565 0.005,0.0104 0.005,0.0156 0.005,0.0261 v 0.005 c -0.0183,0.0628 -0.0302,0.12668 -0.0356,0.19063 -0.005,0.064 -0.004,0.12798 0.003,0.19144 0.007,0.0635 0.0214,0.12626 0.0416,0.1876 0.0202,0.0613 0.0466,0.12114 0.0794,0.17872 l 0.0994,0.17286 c 0.0432,0.0746 0.0956,0.1418 0.15509,0.20092 0.0595,0.0591 0.12634,0.11012 0.1983,0.15166 0.072,0.0415 0.14914,0.0737 0.22961,0.0955 0.0805,0.0218 0.16434,0.0333 0.24939,0.0333 h 0.19891 c 0.0654,0 0.13012,-0.007 0.19326,-0.02 0.0631,-0.0132 0.12468,-0.0326 0.18356,-0.0577 0.0589,-0.0252 0.11515,-0.0562 0.16781,-0.0923 0.0527,-0.0361 0.10172,-0.0772 0.1462,-0.12298 h 0.005 c 0.0104,-0.005 0.0158,-0.005 0.0263,-0.0105 0.0602,0.002 0.12039,0.002 0.17993,-0.004 0.0595,-0.006 0.11852,-0.0164 0.17609,-0.0321 0.0262,0.089 0.0641,0.17265 0.11188,0.2492 0.0478,0.0765 0.10521,0.14599 0.17063,0.20618 l -1.22475,1.22475 c -0.0491,0.0491 -0.0918,0.10186 -0.12864,0.15752 -0.0368,0.0557 -0.0675,0.11412 -0.0921,0.17448 -0.0245,0.0603 -0.0429,0.12261 -0.0551,0.18578 -0.0123,0.0632 -0.0186,0.12732 -0.0186,0.19144 0,0.0641 0.006,0.12826 0.0186,0.19143 0.0123,0.0632 0.0306,0.12523 0.0551,0.18559 0.0245,0.0603 0.0553,0.11903 0.0921,0.17467 0.0368,0.0557 0.0796,0.10845 0.12864,0.15752 0.0576,0.0576 0.12037,0.10453 0.18841,0.1464 0.0209,0.0864 0.0537,0.16881 0.0975,0.24536 0.0439,0.0766 0.0988,0.14721 0.16418,0.21001 0.0707,0.0707 0.15183,0.12969 0.2395,0.17549 0.0877,0.0458 0.18185,0.0784 0.27867,0.0967 0.0104,0.055 0.0255,0.10837 0.0448,0.15973 0.0193,0.0514 0.0428,0.10071 0.0703,0.14782 0.0275,0.0471 0.0591,0.0919 0.0941,0.13409 0.035,0.0422 0.0734,0.0819 0.11531,0.11854 0.0209,0.0209 0.0471,0.0418 0.0733,0.0575 -0.0261,0.0641 -0.0453,0.13011 -0.0577,0.19709 -0.0124,0.067 -0.0181,0.13483 -0.0168,0.20255 0.002,0.0677 0.01,0.1352 0.0247,0.20153 0.0151,0.0663 0.0368,0.13146 0.0656,0.19427 l 0.35581,0.78514 c 0.0196,0.0563 0.044,0.11046 0.0725,0.16215 0.0286,0.0517 0.0614,0.10081 0.0983,0.14661 0.037,0.0458 0.0781,0.0884 0.12297,0.12702 0.0449,0.0386 0.0937,0.0733 0.14601,0.10339 0.0785,0.0471 0.16218,0.0825 0.24919,0.10602 0.087,0.0236 0.17739,0.0351 0.26898,0.0351 0.068,0 0.13594,-0.005 0.20921,-0.0208 0.089,-0.0196 0.17324,-0.05 0.25101,-0.0899 0.0778,-0.0398 0.14927,-0.0891 0.21305,-0.14641 0.0638,-0.0572 0.11978,-0.12257 0.1668,-0.19446 0.047,-0.0719 0.085,-0.15031 0.11248,-0.23405 l 0.35582,-0.77989 c 0.0288,-0.0628 0.0508,-0.12794 0.0658,-0.19427 0.015,-0.0663 0.0231,-0.13381 0.0244,-0.20153 0.002,-0.0677 -0.004,-0.13556 -0.0166,-0.20254 -0.0124,-0.067 -0.0318,-0.13298 -0.058,-0.1971 0.0261,-0.0157 0.0471,-0.0366 0.0733,-0.0575 0.0419,-0.0366 0.0805,-0.0764 0.11551,-0.11854 0.035,-0.0421 0.0664,-0.0867 0.0939,-0.13348 0.0275,-0.0468 0.051,-0.0958 0.0703,-0.14641 0.0193,-0.0506 0.0344,-0.10285 0.0448,-0.1565 0.0994,-0.0183 0.19363,-0.0511 0.2813,-0.0975 0.0877,-0.0465 0.16885,-0.10645 0.24213,-0.17972 0.0654,-0.0628 0.11898,-0.13352 0.16216,-0.20941 0.0432,-0.0759 0.076,-0.15697 0.0996,-0.24071 0.068,-0.0419 0.13084,-0.089 0.18841,-0.14661 0.0491,-0.0491 0.092,-0.10186 0.12884,-0.15751 0.0368,-0.0557 0.0673,-0.11432 0.0919,-0.17468 0.0245,-0.0603 0.0431,-0.1224 0.0553,-0.18558 0.0123,-0.0632 0.0184,-0.12752 0.0184,-0.19164 0,-0.0641 -0.006,-0.12806 -0.0184,-0.19124 -0.0123,-0.0632 -0.0308,-0.12543 -0.0553,-0.18578 -0.0245,-0.0604 -0.0551,-0.11882 -0.0919,-0.17448 -0.0368,-0.0557 -0.0798,-0.10844 -0.12884,-0.15751 l -1.22476,-1.22476 c 0.0654,-0.0602 0.12308,-0.12963 0.17084,-0.20618 0.0478,-0.0765 0.0857,-0.16022 0.11188,-0.24919 0.0576,0.0157 0.11635,0.026 0.17589,0.0319 0.0595,0.006 0.11973,0.007 0.17992,0.005 0.0104,0.005 0.0158,0.005 0.0263,0.0105 h 0.005 c 0.0445,0.0458 0.0933,0.0869 0.146,0.12298 0.0527,0.0361 0.10913,0.0671 0.16802,0.0923 0.0589,0.0252 0.12022,0.0446 0.18336,0.0578 0.0631,0.0132 0.12803,0.0202 0.19345,0.0202 h 0.19892 c 0.0851,0 0.16871,-0.0115 0.24919,-0.0333 0.0805,-0.0218 0.15764,-0.0542 0.2296,-0.0957 0.072,-0.0415 0.13877,-0.0923 0.19831,-0.15145 0.0595,-0.0591 0.1119,-0.12655 0.15508,-0.20114 l 0.0994,-0.17265 c 0.0327,-0.0576 0.0592,-0.11778 0.0794,-0.17952 0.0202,-0.0617 0.0341,-0.12522 0.0416,-0.18902 0.007,-0.0638 0.009,-0.12794 0.003,-0.19164 -0.005,-0.0637 -0.017,-0.12691 -0.0353,-0.18841 v -0.005 c 0.005,-0.0104 0.005,-0.0156 0.005,-0.0261 0.0314,-0.0497 0.0602,-0.1022 0.085,-0.1565 0.0249,-0.0543 0.0459,-0.11045 0.0616,-0.16802 0.089,0.0209 0.18052,0.0301 0.2708,0.0275 0.0903,-0.003 0.17919,-0.0171 0.26293,-0.0432 l 0.44487,1.66963 c 0.015,0.055 0.0345,0.10774 0.0578,0.15812 0.0233,0.0504 0.0506,0.0984 0.0812,0.14358 0.0613,0.0903 0.13615,0.16943 0.22153,0.23485 0.0854,0.0654 0.18105,0.11714 0.28352,0.15247 0.0512,0.0177 0.10434,0.0312 0.15853,0.0404 0.0542,0.009 0.10952,0.0139 0.16579,0.0139 0.089,0 0.17796,-0.0156 0.26171,-0.0365 0.0785,-0.0209 0.15167,-0.0524 0.21971,-0.0891 0.0811,0.0209 0.16895,0.0327 0.25727,0.0333 0.0883,7.9e-4 0.17736,-0.01 0.26111,-0.0333 0.0994,-0.0261 0.1923,-0.0681 0.27605,-0.12177 0.0837,-0.0537 0.15832,-0.11917 0.22112,-0.19245 0.0497,0.017 0.10138,0.0299 0.15428,0.0384 0.0529,0.008 0.10713,0.0124 0.16176,0.0121 0.0546,-3.9e-4 0.1097,-0.005 0.16458,-0.0143 0.0549,-0.009 0.10951,-0.0231 0.16317,-0.0414 0.0314,-0.0104 0.0627,-0.0261 0.0888,-0.0365 0.0419,0.0549 0.0895,0.10507 0.14136,0.14963 0.0518,0.0446 0.10807,0.0835 0.16761,0.11652 0.0595,0.0331 0.12226,0.0602 0.18719,0.0806 0.0649,0.0204 0.13208,0.034 0.20012,0.0406 l 0.85845,0.0838 c 0.10206,0.0183 0.20796,0.0221 0.31199,0.0103 0.052,-0.006 0.10338,-0.0158 0.15368,-0.0297 0.0503,-0.0139 0.0995,-0.0317 0.1466,-0.0539 0.0707,-0.0337 0.13402,-0.0693 0.19064,-0.10642 0.0566,-0.0371 0.10653,-0.0757 0.15003,-0.11591 0.0435,-0.0402 0.0807,-0.0821 0.11208,-0.125 0.0314,-0.0429 0.057,-0.087 0.0774,-0.13227 0.0203,-0.0453 0.0352,-0.0915 0.0454,-0.13874 0.0102,-0.0472 0.0156,-0.0954 0.0168,-0.14418 0.002,-0.0976 -0.0125,-0.19795 -0.0406,-0.29968 -0.028,-0.10174 -0.0691,-0.20488 -0.11935,-0.30776 -0.0503,-0.10287 -0.10963,-0.2055 -0.17407,-0.30654 -0.12887,-0.20205 -0.27809,-0.39734 -0.41539,-0.57411 -0.0406,-0.0563 -0.0864,-0.10771 -0.13651,-0.15367 -0.0501,-0.046 -0.10445,-0.0865 -0.16236,-0.12117 -0.0579,-0.0347 -0.11929,-0.0634 -0.18316,-0.0858 -0.0639,-0.0224 -0.13026,-0.0385 -0.1983,-0.0477 l -0.0157,-0.0943 c -0.0104,-0.0563 -0.0254,-0.11055 -0.0446,-0.16256 -0.0192,-0.052 -0.0427,-0.10172 -0.0699,-0.14883 -0.0272,-0.0471 -0.058,-0.0915 -0.0923,-0.13307 -0.0343,-0.0416 -0.0719,-0.0802 -0.11248,-0.11551 0.034,-0.0916 0.0538,-0.18837 0.0583,-0.28716 0.005,-0.0988 -0.006,-0.19963 -0.0323,-0.29907 -0.0236,-0.089 -0.0587,-0.17286 -0.1032,-0.2494 -0.0445,-0.0765 -0.0981,-0.14578 -0.15831,-0.20597 -0.005,-0.0785 -0.0158,-0.15696 -0.0368,-0.23546 -0.015,-0.055 -0.0345,-0.10795 -0.0578,-0.15833 -0.0232,-0.0504 -0.0503,-0.0982 -0.081,-0.14337 -0.0613,-0.0903 -0.13635,-0.16943 -0.22173,-0.23486 -0.0854,-0.0654 -0.18105,-0.11713 -0.28352,-0.15246 -0.0512,-0.0177 -0.10413,-0.0312 -0.15832,-0.0404 -0.0542,-0.009 -0.10973,-0.0139 -0.166,-0.0139 -0.089,0 -0.17796,0.0156 -0.26171,0.0365 l -1.66963,0.44487 c -0.005,-0.0261 -0.0105,-0.0522 -0.021,-0.0784 -0.0236,-0.0759 -0.0549,-0.14662 -0.0935,-0.21204 -0.0386,-0.0654 -0.0844,-0.12558 -0.13671,-0.18053 0.0419,-0.0445 0.0812,-0.0903 0.11652,-0.13873 0.0354,-0.0484 0.0667,-0.0995 0.0929,-0.15449 0.005,-0.005 0.0157,-0.0103 0.021,-0.0155 l 0.005,-0.005 c 0.0628,-0.0157 0.12376,-0.0373 0.18174,-0.0644 0.058,-0.0272 0.11302,-0.06 0.16438,-0.0979 0.0514,-0.038 0.099,-0.0812 0.14197,-0.12925 0.0429,-0.0481 0.0812,-0.10094 0.11389,-0.15852 l 0.0994,-0.17266 c 0.0432,-0.0733 0.0757,-0.15139 0.0973,-0.23162 0.0216,-0.0802 0.0323,-0.1626 0.0323,-0.24536 0,-0.0828 -0.0108,-0.16568 -0.0323,-0.24656 -0.0216,-0.0809 -0.0542,-0.15987 -0.0973,-0.23445 l -0.0994,-0.17266 c -0.0327,-0.0563 -0.071,-0.10866 -0.11389,-0.1565 -0.0429,-0.0479 -0.0906,-0.0912 -0.14197,-0.12945 -0.0514,-0.0383 -0.10639,-0.0714 -0.16438,-0.099 -0.058,-0.0275 -0.11893,-0.0495 -0.18174,-0.0652 l -0.005,-0.005 c -0.005,-0.005 -0.0157,-0.0105 -0.021,-0.0157 -0.0288,-0.0523 -0.0602,-0.10324 -0.0949,-0.15166 -0.0347,-0.0484 -0.0726,-0.0944 -0.1145,-0.1363 0.0628,-0.0654 0.11503,-0.13858 0.15691,-0.21709 0.0419,-0.0785 0.0734,-0.16222 0.0943,-0.24859 l 1.67488,0.45013 c 0.0838,0.0209 0.16749,0.0313 0.25647,0.0313 0.0569,0 0.11293,-0.005 0.16761,-0.0142 0.0547,-0.009 0.10817,-0.0229 0.15973,-0.0408 0.0516,-0.0179 0.10127,-0.0399 0.14883,-0.0656 0.0476,-0.0257 0.093,-0.0552 0.1357,-0.088 0.0854,-0.0658 0.15992,-0.14523 0.22052,-0.23527 0.0303,-0.045 0.0572,-0.0925 0.08,-0.14256 0.0228,-0.05 0.0416,-0.10241 0.0559,-0.15671 0.0209,-0.0785 0.0368,-0.15695 0.0368,-0.23546 0.0628,-0.0628 0.1163,-0.13231 0.16013,-0.2082 0.0438,-0.0759 0.0778,-0.15839 0.10138,-0.24737 0.0288,-0.0994 0.0393,-0.20008 0.0347,-0.29887 -0.005,-0.0988 -0.0241,-0.19556 -0.0555,-0.28716 0.0406,-0.0353 0.0782,-0.074 0.11249,-0.11551 0.0343,-0.0415 0.0651,-0.086 0.0923,-0.13307 0.0272,-0.0471 0.0504,-0.0968 0.0697,-0.14884 0.0192,-0.052 0.0344,-0.10649 0.0448,-0.16276 0.0104,-0.0314 0.0105,-0.0627 0.0157,-0.0941 0.068,-0.009 0.13444,-0.0252 0.1983,-0.0477 0.0639,-0.0224 0.12506,-0.0512 0.18296,-0.0858 0.0579,-0.0347 0.11243,-0.0752 0.16256,-0.12117 0.0501,-0.046 0.0959,-0.0974 0.13651,-0.15367 l 0.50242,-0.70133 c 0.0393,-0.0445 0.0742,-0.0922 0.10461,-0.14258 0.0304,-0.0504 0.0564,-0.10336 0.0773,-0.15831 0.0209,-0.055 0.037,-0.11201 0.0479,-0.17024 0.0108,-0.0582 0.0164,-0.11772 0.0164,-0.17791 0.002,-0.0641 -0.003,-0.12715 -0.0137,-0.18881 -0.0103,-0.0617 -0.0263,-0.1219 -0.0479,-0.18013 -0.0216,-0.0582 -0.0488,-0.1144 -0.0814,-0.16822 -0.0326,-0.0538 -0.0703,-0.10526 -0.11349,-0.15367 -0.0471,-0.0523 -0.0995,-0.0992 -0.1559,-0.13994 -0.0564,-0.0407 -0.11707,-0.0755 -0.18053,-0.1036 -0.0635,-0.0281 -0.1299,-0.0495 -0.19811,-0.064 -0.0682,-0.0145 -0.13814,-0.0222 -0.2088,-0.0222 -0.068,0 -0.13086,0.005 -0.19891,0.021 l -0.85318,0.0838 c -0.0694,0.008 -0.13696,0.0222 -0.20214,0.0428 -0.0652,0.0206 -0.12799,0.0475 -0.1872,0.0802 -0.0592,0.0327 -0.11496,0.0711 -0.1664,0.11531 -0.0514,0.0442 -0.0985,0.0939 -0.14034,0.14883 -0.0314,-0.0157 -0.0577,-0.0261 -0.0891,-0.0365 -0.0523,-0.0183 -0.10591,-0.0322 -0.16014,-0.0414 -0.0542,-0.009 -0.10894,-0.014 -0.16357,-0.0143 -0.0546,-3.6e-4 -0.10919,0.004 -0.16276,0.0123 -0.0536,0.008 -0.10608,0.0212 -0.15711,0.0382 -0.0654,-0.0759 -0.14005,-0.14147 -0.22314,-0.19446 -0.0831,-0.053 -0.17479,-0.0934 -0.27423,-0.11955 -0.0864,-0.0236 -0.17521,-0.0353 -0.26354,-0.0353 -0.0883,0 -0.17595,0.0118 -0.25969,0.0353 -0.068,-0.0367 -0.1414,-0.0681 -0.21991,-0.0891 -0.0837,-0.0261 -0.17273,-0.0365 -0.26171,-0.0365 -0.0569,0 -0.11293,0.005 -0.16761,0.014 -0.0547,0.009 -0.10797,0.0225 -0.15953,0.0402 -0.0516,0.0177 -0.10147,0.0395 -0.14903,0.065 -0.0476,0.0255 -0.093,0.0547 -0.13571,0.0874 -0.0427,0.0327 -0.0826,0.069 -0.11955,0.10824 -0.0369,0.0393 -0.0707,0.0817 -0.10096,0.12682 -0.0303,0.0452 -0.0572,0.093 -0.08,0.14338 -0.0228,0.0504 -0.0416,0.10316 -0.0559,0.15812 l -0.45012,1.66963 c -0.0837,-0.0262 -0.17284,-0.0404 -0.26313,-0.043 -0.0903,-0.002 -0.18182,0.007 -0.2708,0.0275 -0.0157,-0.0576 -0.0353,-0.11392 -0.0596,-0.16822 -0.0242,-0.0543 -0.053,-0.10677 -0.087,-0.1565 -0.005,-0.0104 -0.005,-0.0156 -0.005,-0.0261 v -0.005 c 0.0183,-0.0628 0.0302,-0.12668 0.0356,-0.19063 0.005,-0.064 0.004,-0.12798 -0.003,-0.19144 -0.007,-0.0635 -0.0214,-0.12626 -0.0416,-0.1876 -0.0202,-0.0613 -0.0466,-0.12134 -0.0794,-0.17892 l -0.0996,-0.17266 c -0.0432,-0.0746 -0.0956,-0.1418 -0.15508,-0.20093 -0.0595,-0.0591 -0.12614,-0.11011 -0.19811,-0.15165 -0.072,-0.0416 -0.14933,-0.0737 -0.22981,-0.0955 -0.0805,-0.0218 -0.16414,-0.0333 -0.24919,-0.0333 h -0.19891 c -0.0654,0 -0.13012,0.007 -0.19325,0.02 -0.0631,0.0132 -0.12468,0.0327 -0.18357,0.0579 -0.0589,0.0252 -0.11514,0.056 -0.16781,0.0921 -0.0527,0.0361 -0.10172,0.0774 -0.1462,0.12318 h -0.005 c -0.0105,0.005 -0.0158,0.005 -0.0263,0.0103 -0.0602,-0.003 -0.12038,-0.002 -0.17992,0.005 -0.0595,0.006 -0.11831,0.0164 -0.17589,0.0321 -0.0262,-0.089 -0.0641,-0.17285 -0.11188,-0.2494 -0.0478,-0.0765 -0.10541,-0.14578 -0.17084,-0.20597 l 1.22476,-1.22477 c 0.0491,-0.0491 0.092,-0.10185 0.12884,-0.15751 0.0368,-0.0556 0.0673,-0.11412 0.0919,-0.17447 0.0245,-0.0603 0.0431,-0.12262 0.0553,-0.18579 0.0123,-0.0632 0.0184,-0.12732 0.0184,-0.19143 0,-0.0641 -0.006,-0.12826 -0.0184,-0.19144 -0.0123,-0.0632 -0.0308,-0.12543 -0.0553,-0.18579 -0.0245,-0.0603 -0.0551,-0.11882 -0.0919,-0.17447 -0.0368,-0.0557 -0.0798,-0.10845 -0.12884,-0.15751 -0.0576,-0.0576 -0.12036,-0.10474 -0.18841,-0.14661 -0.0236,-0.0837 -0.0575,-0.16482 -0.10137,-0.24071 -0.0438,-0.0759 -0.0975,-0.14661 -0.16034,-0.20942 -0.0733,-0.0733 -0.15445,-0.13347 -0.24213,-0.17992 -0.0877,-0.0464 -0.18185,-0.079 -0.2813,-0.0973 -0.0104,-0.055 -0.0255,-0.10838 -0.0448,-0.15974 -0.0193,-0.0514 -0.0428,-0.10071 -0.0703,-0.14782 -0.0275,-0.0471 -0.0589,-0.0919 -0.0939,-0.13409 -0.035,-0.0422 -0.0736,-0.0819 -0.11551,-0.11854 -0.0209,-0.0209 -0.0471,-0.0419 -0.0733,-0.0575 0.0261,-0.0641 0.0455,-0.13011 0.058,-0.19709 0.0124,-0.067 0.0179,-0.13483 0.0166,-0.20254 -0.002,-0.0677 -0.009,-0.13521 -0.0244,-0.20154 -0.0151,-0.0663 -0.037,-0.13146 -0.0658,-0.19426 l -0.35563,-0.78514 c -0.0196,-0.0563 -0.044,-0.11068 -0.0725,-0.16236 -0.0286,-0.0517 -0.0614,-0.10061 -0.0983,-0.14641 -0.037,-0.0458 -0.0781,-0.0884 -0.12298,-0.12702 -0.0449,-0.0386 -0.0937,-0.0733 -0.146,-0.10339 -0.0759,-0.0471 -0.15819,-0.0825 -0.24455,-0.10602 -0.0864,-0.0236 -0.17678,-0.0353 -0.26837,-0.0353 z m 0.0717,0.83098 h 3.9e-4 c 0.0209,0.004 0.0405,0.0118 0.0588,0.0222 0.0236,0.0104 0.042,0.0262 0.0557,0.0452 0.0138,0.019 0.0228,0.0411 0.0281,0.0646 l 0.38207,0.83744 c 0.0157,0.0419 0.0157,0.0942 0,0.13611 l -0.38207,0.89499 v 0.005 0.63853 l 0.44488,-0.51293 c 0.0314,-0.034 0.0734,-0.0537 0.11591,-0.0569 0.0213,-0.002 0.0426,7.8e-4 0.063,0.008 0.0204,0.007 0.0395,0.0178 0.0565,0.0335 0.034,0.0314 0.0537,0.0734 0.057,0.11592 0.002,0.0213 -7.8e-4,0.0426 -0.007,0.063 -0.007,0.0204 -0.018,0.0397 -0.0337,0.0567 l -0.65933,0.75888 0.39762,0.60703 0.80614,-0.80594 c 0.0157,-0.0157 0.0344,-0.0275 0.0545,-0.0353 0.0201,-0.008 0.0416,-0.0117 0.0632,-0.0117 0.0216,0 0.0433,0.004 0.0634,0.0117 0.0201,0.008 0.0386,0.0196 0.0543,0.0353 0.0157,0.0157 0.0275,0.0344 0.0353,0.0545 0.008,0.0201 0.0119,0.0416 0.0119,0.0632 0,0.0216 -0.004,0.0433 -0.0119,0.0634 -0.008,0.0201 -0.0196,0.0388 -0.0353,0.0545 l -0.85824,0.85824 0.22496,0.34551 0.84269,-0.84269 c 0.0157,-0.0157 0.0344,-0.0274 0.0545,-0.0353 0.0201,-0.008 0.0416,-0.0117 0.0632,-0.0117 0.0216,0 0.0433,0.004 0.0634,0.0117 0.0201,0.008 0.0386,0.0196 0.0543,0.0353 0.0157,0.0157 0.0275,0.0342 0.0353,0.0543 0.008,0.0201 0.0119,0.0418 0.0119,0.0634 0,0.0216 -0.004,0.0433 -0.0119,0.0634 -0.008,0.0201 -0.0196,0.0386 -0.0353,0.0543 l -1.81624,1.81099 c 0,0.0445 0.004,0.11383 0.0218,0.18841 0.009,0.0373 0.021,0.076 0.0379,0.11349 0.0169,0.0375 0.0383,0.0737 0.0658,0.10642 0.0419,0.0497 0.0943,0.0877 0.15771,0.1139 0.0635,0.0261 0.1382,0.0404 0.22456,0.043 0.0445,0.002 0.0849,0.0224 0.11369,0.0531 0.0144,0.0154 0.026,0.0335 0.0335,0.0537 0.008,0.0202 0.011,0.0425 0.01,0.066 -0.003,0.0445 -0.0222,0.0835 -0.0523,0.11167 -0.0301,0.0281 -0.0708,0.0452 -0.1153,0.0452 h -0.005 c -0.0654,-0.003 -0.12735,-0.0101 -0.18558,-0.0224 -0.0582,-0.0123 -0.11274,-0.0296 -0.16377,-0.0515 -0.051,-0.0219 -0.0985,-0.0487 -0.14237,-0.08 -0.0438,-0.0313 -0.0841,-0.0673 -0.12076,-0.10784 v 0.20416 l 0.0473,0.0263 c 0.0183,0.0131 0.0339,0.0286 0.045,0.0469 0.0111,0.0183 0.0176,0.0395 0.0176,0.063 v 0.17791 c 0,0.0104 2.1e-4,0.0261 -0.005,0.0365 0.0236,-0.0104 0.0496,-0.0118 0.0745,-0.005 0.0249,0.007 0.0483,0.0209 0.0666,0.0418 0.0209,0.0288 0.0288,0.0628 0.0249,0.0949 -0.004,0.032 -0.0196,0.0623 -0.0458,0.0832 l -0.22496,0.17791 v 0.52868 l 0.21991,-0.21467 c -0.0288,-0.0261 -0.0525,-0.0574 -0.0689,-0.0921 -0.0164,-0.0347 -0.0254,-0.0728 -0.0254,-0.11207 0,-0.0367 0.008,-0.0717 0.0212,-0.1036 0.0136,-0.0319 0.0332,-0.0606 0.0573,-0.0848 0.0242,-0.0242 0.0529,-0.0438 0.0848,-0.0573 0.0319,-0.0136 0.067,-0.0212 0.10359,-0.0212 0.0367,0 0.0717,0.008 0.1036,0.0212 0.0319,0.0136 0.0606,0.0331 0.0848,0.0573 0.0242,0.0242 0.044,0.0529 0.0576,0.0848 0.0136,0.0319 0.021,0.067 0.021,0.1036 0,0.0367 -0.007,0.0706 -0.019,0.10137 -0.0124,0.0307 -0.0308,0.0582 -0.0543,0.0818 l -0.59148,0.59148 v 0.15711 l 0.72234,-0.72234 c 0.0262,-0.0236 0.0588,-0.0353 0.0909,-0.0353 0.032,0 0.0635,0.0118 0.087,0.0353 0.0236,0.0262 0.0353,0.059 0.0353,0.0911 0,0.032 -0.0118,0.0633 -0.0353,0.0868 l -0.89499,0.895 c 0,0.0157 0.002,0.12434 0.005,0.23425 0.004,0.10991 0.0105,0.22118 0.021,0.24212 0.0183,-0.0288 0.0446,-0.0536 0.0753,-0.0713 0.0307,-0.0177 0.0659,-0.0281 0.10258,-0.0281 0.0301,0 0.0587,0.006 0.0844,0.0166 0.0258,0.0107 0.0488,0.0261 0.0681,0.0454 0.0193,0.0193 0.0347,0.0423 0.0454,0.0681 0.0108,0.0257 0.0168,0.0543 0.0168,0.0844 0,0.0393 -0.0117,0.0758 -0.0313,0.10723 -0.0196,0.0314 -0.0472,0.0576 -0.0786,0.0759 l -0.32472,0.80069 v 1.21446 l 0.61773,-1.0729 0.25647,-1.26677 c -0.0209,-0.034 -0.0326,-0.0732 -0.0339,-0.11308 -0.002,-0.0399 0.008,-0.0805 0.0287,-0.11713 0.0183,-0.034 0.0472,-0.0616 0.0812,-0.0806 0.034,-0.019 0.0732,-0.0295 0.11248,-0.0295 0.0366,0 0.0732,0.0105 0.10985,0.0315 0.0367,0.0236 0.0654,0.0549 0.0844,0.0909 0.019,0.036 0.0282,0.0767 0.0256,0.11854 0.0314,-0.0157 0.0877,-0.089 0.13873,-0.16297 0.051,-0.0739 0.0968,-0.14847 0.10723,-0.1668 l -0.36631,-1.3661 c -0.008,-0.0314 -0.003,-0.0654 0.0129,-0.0935 0.0157,-0.0281 0.0419,-0.0503 0.0759,-0.0582 0.0314,-0.008 0.0654,-0.003 0.0935,0.0129 0.0281,0.0157 0.0505,0.0419 0.0584,0.0759 l 0.31926,1.19871 0.10986,-0.18841 -0.25647,-0.9683 c -0.008,-0.034 -0.009,-0.0695 -0.004,-0.1042 0.005,-0.0347 0.0172,-0.0686 0.0356,-0.1 0.0262,-0.0445 0.0627,-0.0798 0.10521,-0.104 0.0425,-0.0242 0.091,-0.0374 0.14075,-0.0374 0.0471,0 0.0993,0.0103 0.14115,0.0365 0.0314,0.0183 0.0589,0.0433 0.0812,0.0727 0.0222,0.0294 0.0392,0.0635 0.0497,0.10016 0.0105,0.0366 0.0132,0.0733 0.009,0.10925 -0.005,0.036 -0.0164,0.0712 -0.0347,0.10521 -0.0236,0.0393 -0.0551,0.0721 -0.0911,0.0963 -0.036,0.0242 -0.0765,0.0398 -0.11833,0.045 l 0.12035,0.44487 0.31927,-0.55473 -0.14136,-0.36126 c -0.0131,-0.0314 -0.0118,-0.0653 7.8e-4,-0.0947 0.0124,-0.0294 0.036,-0.0544 0.0675,-0.0674 0.0314,-0.0131 0.0655,-0.0117 0.0949,7.8e-4 0.0294,0.0124 0.0544,0.0358 0.0674,0.0673 l 0.005,0.0105 c -0.005,-0.0314 -1e-4,-0.0627 0.0156,-0.0889 l 0.0996,-0.17286 c 0.0131,-0.0183 0.0287,-0.0339 0.047,-0.045 0.0183,-0.0111 0.0393,-0.0178 0.0628,-0.0178 h 0.19891 c 0.0236,0 0.0458,0.007 0.0648,0.0178 0.019,0.0111 0.0346,0.0267 0.045,0.045 l 0.0996,0.17286 c 0.0105,0.0183 0.0157,0.0404 0.0157,0.0626 0,0.0222 -0.005,0.0447 -0.0157,0.063 l -0.0996,0.17266 c -0.0157,0.0314 -0.0417,0.0471 -0.0679,0.0575 h 0.0156 c 0.034,-0.005 0.0668,0.004 0.0923,0.0228 0.0255,0.019 0.0438,0.0478 0.0491,0.0818 0.005,0.034 -0.004,0.0668 -0.0228,0.0923 -0.019,0.0255 -0.0478,0.0438 -0.0818,0.0491 l -0.38227,0.0576 -0.31926,0.55493 0.44507,-0.12036 c -0.0157,-0.0392 -0.0236,-0.0824 -0.0216,-0.12561 0.002,-0.0432 0.0136,-0.0865 0.0372,-0.1258 0.0262,-0.0445 0.0629,-0.0798 0.10541,-0.104 0.0425,-0.0242 0.0908,-0.0372 0.14055,-0.0372 0.0471,0 0.0995,0.0104 0.14136,0.0365 0.0314,0.0183 0.0589,0.043 0.0812,0.0725 0.0222,0.0294 0.0392,0.0637 0.0497,0.10036 0.0104,0.0367 0.0131,0.0731 0.008,0.10905 -0.005,0.036 -0.0164,0.0714 -0.0347,0.10541 -0.0183,0.0314 -0.0418,0.0589 -0.0693,0.0812 -0.0275,0.0222 -0.0589,0.0392 -0.0929,0.0497 l -0.96829,0.26171 -0.10986,0.18841 1.19851,-0.31927 c 0.0314,-0.008 0.0654,-0.002 0.0935,0.0131 0.0281,0.0157 0.0505,0.0417 0.0584,0.0757 0.008,0.0314 0.003,0.0654 -0.0131,0.0935 -0.0157,0.0281 -0.0419,0.0505 -0.0759,0.0584 l -1.36591,0.36631 c -0.0104,0.0183 -0.0525,0.0956 -0.0911,0.1767 -0.0386,0.0811 -0.0739,0.1661 -0.0713,0.20012 0.0367,-0.0209 0.0785,-0.0365 0.12561,-0.0365 0.0366,0 0.0734,0.0105 0.11005,0.0315 0.0261,0.0157 0.0484,0.0352 0.066,0.0582 0.0177,0.0229 0.0307,0.049 0.0386,0.0778 0.008,0.0288 0.0104,0.059 0.007,0.0884 -0.003,0.0294 -0.0123,0.0582 -0.0281,0.0844 -0.0183,0.034 -0.0472,0.0614 -0.0812,0.0804 -0.034,0.019 -0.0732,0.0295 -0.11247,0.0295 h -0.005 l -0.9683,0.85844 -0.62298,1.07291 1.0521,-0.60703 0.83744,-0.85845 c 0,-0.0367 0.009,-0.072 0.0268,-0.10339 0.0177,-0.0314 0.0439,-0.0588 0.078,-0.0798 0.0249,-0.0144 0.0519,-0.0229 0.0796,-0.0261 0.0277,-0.003 0.0558,-7.8e-4 0.0826,0.006 0.0268,0.007 0.0523,0.0194 0.0747,0.036 0.0224,0.0165 0.0417,0.0374 0.0561,0.0622 0.013,0.0236 0.0223,0.0499 0.0263,0.0773 0.004,0.0275 0.003,0.0562 -0.005,0.085 -0.005,0.0157 -0.0105,0.0261 -0.0157,0.0418 0.0471,0 0.0889,-0.0209 0.12036,-0.0365 l 0.32976,-1.2195 c 0.008,-0.034 0.0288,-0.0602 0.0563,-0.0759 0.0275,-0.0157 0.0613,-0.021 0.0953,-0.0131 0.034,0.008 0.0602,0.0289 0.0759,0.0564 0.0157,0.0275 0.021,0.0615 0.0131,0.0955 l -0.26696,0.9893 0.13611,-0.0785 0.21466,-0.80614 c 0.0104,-0.0314 0.0262,-0.0601 0.0465,-0.0856 0.0203,-0.0255 0.0451,-0.0479 0.0739,-0.0662 0.0419,-0.0261 0.0888,-0.0365 0.1359,-0.0365 0.0471,0 0.0932,0.013 0.13308,0.0365 0.0399,0.0236 0.0738,0.0577 0.0973,0.0995 0.0183,0.0314 0.029,0.0654 0.0329,0.1 0.004,0.0345 0.001,0.0694 -0.008,0.10279 -0.009,0.0334 -0.0245,0.0651 -0.0454,0.0931 -0.0209,0.028 -0.0476,0.0521 -0.079,0.0705 -0.0419,0.0262 -0.0888,0.0368 -0.1359,0.0368 -0.0314,0 -0.0629,-0.005 -0.0891,-0.0157 l -0.0785,0.29826 0.45537,-0.26171 0.042,-0.28776 c 0.005,-0.034 0.0236,-0.0628 0.0491,-0.0818 0.0255,-0.019 0.0581,-0.0283 0.0921,-0.023 0.0288,0.005 0.0524,0.0185 0.0701,0.0368 0.0177,0.0183 0.0295,0.0419 0.0347,0.0681 0.0104,-0.0104 0.0208,-0.0211 0.0313,-0.0263 l 0.15186,-0.0889 c 0.0183,-0.0104 0.0406,-0.0157 0.0628,-0.0157 0.0222,0 0.0445,0.005 0.0628,0.0157 l 0.0471,0.0261 0.17811,-0.1046 c -0.0536,-0.0118 -0.10522,-0.0287 -0.15428,-0.0511 -0.0491,-0.0223 -0.0957,-0.05 -0.14015,-0.083 -0.0445,-0.0331 -0.0867,-0.0716 -0.12662,-0.11551 -0.0399,-0.0439 -0.0776,-0.0933 -0.11288,-0.14823 -0.0236,-0.0393 -0.0301,-0.0849 -0.021,-0.12681 0.005,-0.0209 0.0129,-0.0409 0.0252,-0.0586 0.0123,-0.0177 0.0284,-0.033 0.0481,-0.0448 0.0393,-0.0236 0.0851,-0.0302 0.12702,-0.021 0.0209,0.005 0.0409,0.0131 0.0586,0.0254 0.0177,0.0123 0.0328,0.0282 0.0446,0.0479 0.0445,0.0733 0.0943,0.13099 0.14863,0.17286 0.0543,0.0419 0.11307,0.0679 0.17589,0.0784 0.0432,0.008 0.086,0.009 0.12722,0.004 0.0412,-0.004 0.0809,-0.0132 0.11753,-0.0246 0.0733,-0.0229 0.13481,-0.0556 0.17407,-0.0792 l 0.66472,-2.47576 c 0.005,-0.0222 0.0149,-0.0425 0.0281,-0.06 0.0132,-0.0175 0.0299,-0.0323 0.0485,-0.0434 0.0186,-0.0111 0.0393,-0.0187 0.061,-0.0218 0.0216,-0.003 0.0444,-0.002 0.0666,0.005 0.0445,0.0131 0.0809,0.0419 0.10319,0.0786 0.0111,0.0183 0.0187,0.0385 0.0218,0.0598 0.003,0.0213 0.002,0.0436 -0.005,0.0658 l -0.30877,1.14621 0.41358,0.0261 0.31401,-1.17226 c 0.005,-0.0222 0.0151,-0.0427 0.0283,-0.0602 0.0132,-0.0175 0.0296,-0.0321 0.0483,-0.0432 0.0186,-0.0111 0.0395,-0.0187 0.0612,-0.0218 0.0217,-0.003 0.0442,-0.002 0.0664,0.005 0.0222,0.005 0.0425,0.0149 0.06,0.0281 0.0175,0.0132 0.0323,0.0299 0.0434,0.0485 0.0111,0.0186 0.0185,0.0393 0.0216,0.061 0.003,0.0216 0.002,0.0442 -0.005,0.0664 l -0.29846,1.10441 0.72759,0.0418 0.32977,-0.9473 c 0.008,-0.0222 0.0197,-0.0419 0.0343,-0.0584 0.0146,-0.0164 0.032,-0.0297 0.0513,-0.0392 0.0193,-0.01 0.0406,-0.0152 0.0624,-0.0166 0.0219,-0.002 0.0444,0.002 0.0666,0.009 0.0222,0.008 0.0417,0.0195 0.0582,0.0341 0.0164,0.0146 0.0297,0.0324 0.0392,0.0517 0.01,0.0193 0.0154,0.0402 0.0168,0.062 0.002,0.0218 -0.002,0.0444 -0.009,0.0666 l -0.22516,0.64399 0.54967,-0.31927 0.59673,-0.78514 c 0.0131,-0.0209 0.0301,-0.0367 0.0497,-0.0479 0.0196,-0.0111 0.0419,-0.0176 0.0654,-0.0202 l 0.91579,-0.0891 c 0.0314,-0.0104 0.0655,-0.0119 0.0975,-0.004 0.032,0.008 0.0623,0.0251 0.0858,0.0513 0.0157,0.0183 0.0261,0.0379 0.0327,0.0582 0.007,0.0203 0.009,0.0411 0.009,0.062 0,0.0236 -0.005,0.0473 -0.0149,0.0689 -0.01,0.0216 -0.0241,0.0412 -0.0424,0.0569 l -0.53918,0.74839 c -0.013,0.0183 -0.0301,0.034 -0.0497,0.0458 -0.0196,0.0118 -0.0419,0.0196 -0.0654,0.0222 l -0.9683,0.11511 h -0.005 l -0.54968,0.31926 0.67003,0.13086 c 0.0222,0.004 0.0425,0.0123 0.0602,0.0242 0.0177,0.0119 0.0327,0.0274 0.0444,0.045 0.0236,0.0354 0.0341,0.0799 0.0263,0.1244 -0.008,0.0392 -0.0288,0.0733 -0.0576,0.0975 -0.0288,0.0242 -0.0655,0.0384 -0.1048,0.0384 -0.0104,0 -0.0208,-0.005 -0.0313,-0.005 l -0.9788,-0.1884 -0.32977,0.65408 1.09916,0.28796 c 0.0445,0.013 0.0798,0.0419 0.10137,0.0786 0.0216,0.0367 0.0295,0.0811 0.019,0.1256 -0.0105,0.0393 -0.0326,0.0705 -0.0614,0.0921 -0.0288,0.0216 -0.0641,0.0335 -0.10077,0.0335 -0.0157,0 -0.0261,-1e-5 -0.0418,-0.005 l -1.1672,-0.30877 -0.18336,0.36632 1.14115,0.30352 c 0.0445,0.013 0.0812,0.0419 0.1034,0.0785 0.0111,0.0183 0.0187,0.0387 0.0218,0.06 0.003,0.0212 0.002,0.0434 -0.005,0.0656 -0.005,0.0222 -0.0151,0.0425 -0.0282,0.06 -0.0132,0.0175 -0.0297,0.0323 -0.0483,0.0434 -0.0186,0.0111 -0.0395,0.0187 -0.0612,0.0218 -0.0217,0.003 -0.0442,0.002 -0.0664,-0.005 l -2.47558,-0.66479 c -0.0393,0.0236 -0.0982,0.0615 -0.15448,0.11389 -0.0281,0.0262 -0.0557,0.0559 -0.0798,0.0893 -0.0241,0.0334 -0.0446,0.0703 -0.059,0.11086 -0.0236,0.0602 -0.03,0.12441 -0.0208,0.19245 0.009,0.068 0.0338,0.13998 0.0731,0.21587 0.0104,0.0209 0.0165,0.0429 0.0182,0.0646 0.002,0.0218 -10e-4,0.0433 -0.008,0.0636 -0.007,0.0203 -0.017,0.0392 -0.0311,0.0557 -0.0141,0.0165 -0.0316,0.0305 -0.0525,0.041 -0.0262,0.0157 -0.0524,0.021 -0.0786,0.021 -0.0288,0 -0.0577,-0.008 -0.0832,-0.0228 -0.0255,-0.0151 -0.0477,-0.0372 -0.0634,-0.066 -0.0301,-0.0576 -0.0542,-0.11497 -0.0725,-0.17165 -0.0183,-0.0567 -0.0308,-0.11272 -0.0374,-0.16801 -0.007,-0.0553 -0.007,-0.10976 -0.002,-0.16316 0.005,-0.0534 0.0164,-0.10568 0.0333,-0.15671 l -0.17791,0.10481 v 0.0575 c 0,0.0236 -0.006,0.0456 -0.0176,0.0646 -0.0111,0.019 -0.0269,0.0348 -0.0452,0.0452 l -0.15186,0.0889 c -0.0104,0.0104 -0.0261,0.0105 -0.0365,0.0157 0.0209,0.0157 0.0353,0.0379 0.0418,0.0628 0.007,0.0249 0.005,0.0524 -0.005,0.0786 -0.008,0.0236 -0.0236,0.0432 -0.0438,0.057 -0.0203,0.0137 -0.0451,0.0216 -0.0713,0.0216 -0.0157,0 -0.0313,-0.005 -0.047,-0.0105 l -0.26696,-0.1046 -0.45538,0.26171 0.29847,0.0784 c 0.005,-0.0104 0.005,-0.0157 0.005,-0.021 0.0104,-0.034 0.0261,-0.0654 0.047,-0.0929 0.0209,-0.0275 0.0472,-0.0509 0.0786,-0.0693 0.0419,-0.0262 0.0888,-0.0365 0.13591,-0.0365 0.0471,0 0.093,0.013 0.13287,0.0365 0.0399,0.0236 0.074,0.0577 0.0975,0.0995 0.0183,0.0314 0.0302,0.0653 0.0347,0.1 0.005,0.0347 0.002,0.07 -0.008,0.104 -0.0104,0.034 -0.0263,0.0654 -0.0472,0.0929 -0.0209,0.0275 -0.0472,0.0512 -0.0786,0.0695 -0.0419,0.0262 -0.0888,0.0365 -0.1359,0.0365 -0.0209,0 -0.0421,0 -0.063,-0.005 l -0.80594,-0.21446 -0.1361,0.0784 0.98929,0.26696 c 0.034,0.008 0.0602,0.0288 0.0759,0.0563 0.0157,0.0275 0.021,0.0615 0.0131,0.0955 -0.008,0.034 -0.0288,0.0602 -0.0563,0.0759 -0.0275,0.0157 -0.0615,0.0208 -0.0955,0.0129 l -1.21951,-0.32956 c -0.0314,0.0209 -0.0681,0.047 -0.0943,0.0889 0.0366,0.002 0.072,0.013 0.10279,0.0307 0.0307,0.0177 0.0568,0.0425 0.0751,0.0739 0.0131,0.0236 0.0223,0.0499 0.0263,0.0773 0.004,0.0275 0.003,0.0562 -0.005,0.085 -0.008,0.0288 -0.0209,0.0549 -0.0379,0.0771 -0.017,0.0222 -0.038,0.0406 -0.0616,0.0537 -0.0314,0.0157 -0.068,0.0261 -0.1046,0.0261 -0.0419,0 -0.0785,-0.0104 -0.10986,-0.0313 l -1.16196,0.29827 -1.04685,0.60198 h 1.24051 l 1.1567,-0.40832 c 0.0183,-0.034 0.0458,-0.0627 0.0792,-0.083 0.0333,-0.0203 0.0726,-0.0321 0.11451,-0.0321 0.0314,0 0.0611,0.006 0.088,0.0176 0.027,0.0113 0.0512,0.0276 0.0715,0.0479 0.0203,0.0203 0.0368,0.0445 0.0481,0.0715 0.0113,0.027 0.0174,0.0566 0.0174,0.088 0,0.0445 -0.0129,0.0851 -0.0351,0.11915 -0.0222,0.034 -0.0536,0.0614 -0.0903,0.0798 0.0288,0.0183 0.1373,0.0302 0.24394,0.0374 0.10664,0.007 0.21129,0.01 0.23223,0.01 l 0.9998,-0.9996 c 0.0262,-0.0236 0.0588,-0.0353 0.0909,-0.0353 0.032,0 0.0635,0.0118 0.087,0.0353 0.0236,0.0262 0.0353,0.0588 0.0353,0.0909 0,0.032 -0.0118,0.0635 -0.0353,0.087 l -0.87944,0.87945 h 0.21466 l 0.70659,-0.70659 c 0.0262,-0.0236 0.0563,-0.0432 0.0891,-0.057 0.0327,-0.0137 0.068,-0.0216 0.10461,-0.0216 0.0393,0 0.0766,0.008 0.11046,0.022 0.0338,0.0142 0.0641,0.0349 0.0897,0.0604 0.0255,0.0255 0.0464,0.0558 0.0606,0.0897 0.0142,0.0338 0.022,0.0712 0.022,0.11046 0,0.0393 -0.008,0.0766 -0.022,0.11046 -0.0142,0.0338 -0.035,0.0643 -0.0606,0.0899 -0.0255,0.0255 -0.0558,0.046 -0.0897,0.0602 -0.0338,0.0142 -0.0712,0.0222 -0.11046,0.0222 -0.0471,0 -0.0903,-0.0105 -0.12823,-0.0295 -0.0379,-0.019 -0.0706,-0.0463 -0.0967,-0.0804 l -0.32452,0.32451 h 0.63853 l 0.24071,-0.30351 c 0.0236,-0.0261 0.055,-0.0419 0.087,-0.0458 0.032,-0.004 0.0647,0.004 0.0909,0.0249 0.0262,0.0236 0.0419,0.055 0.0458,0.087 0.004,0.032 -0.004,0.0647 -0.0249,0.0909 l -0.0105,0.0105 c 0.0262,-0.0209 0.0524,-0.0315 0.0838,-0.0315 h 0.19891 c 0.0236,0 0.0459,0.007 0.0648,0.0178 0.019,0.0111 0.0346,0.0267 0.045,0.045 l 0.0994,0.17286 c 0.0104,0.0183 0.0157,0.0404 0.0157,0.0626 0,0.0222 -0.005,0.0447 -0.0157,0.063 l -0.0994,0.17266 c -0.013,0.0183 -0.0287,0.0339 -0.047,0.045 -0.0183,0.0111 -0.0392,0.0178 -0.0628,0.0178 h -0.19891 c -0.0314,0 -0.0629,-0.0104 -0.0838,-0.0313 l 0.0105,0.0103 c 0.0209,0.0288 0.0288,0.0628 0.0249,0.0949 -0.004,0.032 -0.0196,0.0623 -0.0458,0.0832 -0.0262,0.0157 -0.0524,0.0261 -0.0786,0.0261 -0.0367,0 -0.0732,-0.0156 -0.0994,-0.047 l -0.24072,-0.30372 h -0.63853 l 0.32452,0.32472 c 0.0262,-0.034 0.0602,-0.0616 0.0987,-0.0806 0.0386,-0.019 0.0817,-0.0295 0.12621,-0.0295 0.0393,0 0.0766,0.008 0.11046,0.0222 0.0338,0.0142 0.0641,0.0349 0.0897,0.0604 0.0255,0.0255 0.0464,0.0558 0.0606,0.0897 0.0142,0.0338 0.022,0.0712 0.022,0.11046 0,0.0393 -0.008,0.0764 -0.022,0.11025 -0.0142,0.0338 -0.035,0.0643 -0.0606,0.0899 -0.0255,0.0255 -0.0558,0.0462 -0.0897,0.0604 -0.0338,0.0142 -0.0712,0.0222 -0.11046,0.0222 -0.0366,0 -0.0719,-0.008 -0.1046,-0.0216 -0.0327,-0.0137 -0.0629,-0.0334 -0.0891,-0.0569 l -0.70659,-0.70659 h -0.21466 l 0.8742,0.87399 c 0.0236,0.0262 0.0353,0.059 0.0353,0.0911 0,0.0321 -0.0118,0.0633 -0.0353,0.0868 -0.0262,0.0262 -0.0576,0.0367 -0.0891,0.0367 -0.0314,0 -0.0627,-0.0106 -0.0888,-0.0367 l -0.9998,-0.9996 c -0.0209,0 -0.12559,0.002 -0.23223,0.01 -0.10664,0.007 -0.21536,0.0188 -0.24414,0.0372 0.0367,0.0183 0.0682,0.046 0.0905,0.08 0.0222,0.034 0.0353,0.0745 0.0353,0.11894 0,0.0314 -0.006,0.0613 -0.0176,0.0882 -0.0113,0.027 -0.0278,0.0512 -0.0481,0.0715 -0.0203,0.0203 -0.0443,0.0366 -0.0713,0.0478 -0.027,0.0113 -0.0568,0.0176 -0.0883,0.0176 -0.0419,0 -0.0811,-0.0118 -0.1145,-0.0321 -0.0333,-0.0203 -0.0608,-0.049 -0.0792,-0.083 l -1.1567,-0.40832 h -1.24577 l 1.05736,0.60703 1.16721,0.29847 c 0.0314,-0.0157 0.068,-0.025 0.1046,-0.0256 0.0367,-7.8e-4 0.0732,0.007 0.1046,0.0256 0.0236,0.0157 0.0446,0.034 0.0616,0.0555 0.017,0.0216 0.0301,0.0465 0.0379,0.0753 0.008,0.0262 0.009,0.0549 0.005,0.083 -0.004,0.0281 -0.0132,0.0556 -0.0263,0.0792 -0.0183,0.0314 -0.0444,0.0562 -0.0751,0.0739 -0.0307,0.0177 -0.0661,0.0281 -0.10279,0.0307 0.0262,0.0419 0.0629,0.0681 0.0943,0.0891 l 1.21951,-0.32452 c 0.0314,-0.008 0.0654,-0.002 0.0935,0.0131 0.0281,0.0157 0.0505,0.0417 0.0584,0.0757 0.008,0.0314 0.003,0.0656 -0.0131,0.0937 -0.0157,0.0281 -0.0419,0.0503 -0.0759,0.0582 l -0.9893,0.26171 0.13611,0.0786 0.80594,-0.21466 c 0.0209,0 0.0421,-0.005 0.063,-0.005 0.0471,0 0.094,0.0104 0.13591,0.0365 0.0314,0.0183 0.0576,0.042 0.0786,0.0695 0.0209,0.0275 0.0368,0.0589 0.0472,0.0929 0.0104,0.034 0.0131,0.0693 0.008,0.104 -0.005,0.0347 -0.0164,0.0687 -0.0347,0.10016 -0.0236,0.0419 -0.0576,0.0758 -0.0975,0.0994 -0.0399,0.0236 -0.0858,0.0367 -0.13288,0.0367 -0.0471,0 -0.094,-0.0105 -0.1359,-0.0367 -0.0314,-0.0183 -0.0576,-0.0418 -0.0786,-0.0693 -0.0209,-0.0275 -0.0366,-0.0589 -0.047,-0.0929 -0.005,-0.005 -0.005,-0.0105 -0.005,-0.0157 l -0.29846,0.0786 0.45537,0.26172 0.26696,-0.10481 c 0.0314,-0.0131 0.0655,-0.0117 0.0949,7.8e-4 0.0294,0.0124 0.0542,0.036 0.0673,0.0675 0.0104,0.0262 0.0118,0.0537 0.005,0.0786 -0.007,0.0249 -0.0209,0.0469 -0.0418,0.0626 0.0157,0.005 0.0261,0.0105 0.0365,0.0157 l 0.15186,0.0891 c 0.0183,0.013 0.0341,0.0287 0.0452,0.047 0.0111,0.0183 0.0176,0.0393 0.0176,0.0628 v 0.0575 l 0.17266,0.0995 c -0.017,-0.051 -0.0281,-0.1035 -0.0333,-0.1569 -0.005,-0.0534 -0.005,-0.10768 0.002,-0.16297 0.007,-0.0553 0.019,-0.11154 0.0374,-0.16821 0.0183,-0.0567 0.0424,-0.11388 0.0725,-0.17145 0.0104,-0.0209 0.0247,-0.0386 0.0412,-0.0527 0.0165,-0.0141 0.0352,-0.0246 0.0555,-0.0311 0.0203,-0.007 0.0421,-0.009 0.0638,-0.007 0.0218,0.002 0.0437,0.007 0.0646,0.018 0.0209,0.0104 0.0384,0.0247 0.0525,0.0412 0.0141,0.0165 0.0246,0.0354 0.0311,0.0557 0.007,0.0203 0.009,0.0419 0.007,0.0636 -0.002,0.0218 -0.007,0.0437 -0.018,0.0646 -0.0393,0.0759 -0.0628,0.14784 -0.0713,0.21588 -0.008,0.068 -0.002,0.13225 0.019,0.19244 0.0144,0.0406 0.0349,0.0779 0.059,0.11168 0.0241,0.0338 0.0516,0.064 0.0798,0.0905 0.0563,0.053 0.11523,0.091 0.15448,0.11188 l 2.47557,-0.66479 c 0.0445,-0.0104 0.089,-0.003 0.12561,0.019 0.0367,0.0216 0.0655,0.0569 0.0786,0.10137 0.0104,0.0445 0.002,0.089 -0.019,0.1256 -0.0216,0.0367 -0.0571,0.0655 -0.10157,0.0786 l -1.14075,0.30351 0.18315,0.36652 1.16701,-0.30896 c 0.0445,-0.0104 0.0903,-0.003 0.12762,0.019 0.0186,0.0108 0.0351,0.0251 0.0483,0.0422 0.0132,0.0171 0.023,0.0371 0.0282,0.0594 0.0104,0.0445 0.002,0.0901 -0.0188,0.12742 -0.0108,0.0186 -0.0251,0.0353 -0.0422,0.0485 -0.0171,0.0132 -0.0371,0.023 -0.0594,0.0283 l -1.09915,0.28776 0.32976,0.65428 0.9788,-0.18841 c 0.0222,-0.005 0.0445,-0.005 0.0656,-0.001 0.0211,0.004 0.0411,0.013 0.0588,0.0251 0.0177,0.0121 0.0329,0.0277 0.0448,0.0458 0.0119,0.018 0.0205,0.0388 0.0244,0.061 0.005,0.0222 0.005,0.0443 0.001,0.0654 -0.004,0.0211 -0.0131,0.0411 -0.0252,0.0588 -0.0121,0.0177 -0.0276,0.0331 -0.0456,0.045 -0.0181,0.012 -0.0387,0.0203 -0.061,0.0242 l -0.67003,0.13085 0.54968,0.31927 h 0.005 l 0.9683,0.12055 c 0.0236,0.003 0.0458,0.0103 0.0654,0.022 0.0196,0.0118 0.0366,0.0275 0.0497,0.0458 l 0.53372,0.74333 c 0.0183,0.0157 0.0341,0.0353 0.0452,0.0575 0.0111,0.0222 0.0178,0.0471 0.0178,0.0733 0,0.034 -0.0106,0.0667 -0.0303,0.0935 -0.0196,0.0268 -0.0484,0.0479 -0.085,0.0584 -0.0209,0.0104 -0.0469,0.0155 -0.0731,0.0155 -0.0157,0 -0.0368,-0.005 -0.0525,-0.0105 l -0.9158,-0.0889 c -0.0236,-0.003 -0.0458,-0.0105 -0.0654,-0.0222 -0.0196,-0.0118 -0.0368,-0.0275 -0.0499,-0.0458 l -0.58623,-0.77989 -0.54948,-0.31926 0.21971,0.64378 c 0.013,0.0445 0.009,0.0902 -0.009,0.12884 -0.009,0.0193 -0.022,0.0368 -0.0379,0.0515 -0.016,0.0146 -0.0353,0.0264 -0.0576,0.0343 -0.0157,0.005 -0.0366,0.0103 -0.0523,0.0103 -0.034,-0.002 -0.0666,-0.0143 -0.0941,-0.0339 -0.0275,-0.0196 -0.0499,-0.0472 -0.063,-0.0812 l -0.32452,-0.94729 -0.72738,0.0418 0.29301,1.10441 c 0.0104,0.0445 0.003,0.089 -0.019,0.1256 -0.0216,0.0367 -0.0569,0.0655 -0.10137,0.0786 -0.0104,0.005 -0.0261,0.005 -0.0418,0.005 -0.0367,0 -0.072,-0.013 -0.10077,-0.0353 -0.0288,-0.0222 -0.0511,-0.0536 -0.0616,-0.0903 l -0.31401,-1.17246 -0.41357,0.0263 0.30896,1.14621 c 0.0104,0.0445 0.003,0.089 -0.019,0.1256 -0.0216,0.0367 -0.0571,0.0653 -0.10157,0.0784 -0.0104,0.005 -0.0261,0.005 -0.0418,0.005 -0.0366,0 -0.072,-0.0131 -0.10077,-0.0353 -0.0288,-0.0222 -0.0511,-0.0536 -0.0616,-0.0903 l -0.66458,-2.47557 c -0.0392,-0.0236 -0.10079,-0.0563 -0.17407,-0.0792 -0.0366,-0.0114 -0.0761,-0.0205 -0.11732,-0.0247 -0.0412,-0.004 -0.0842,-0.004 -0.12743,0.004 -0.0628,0.0104 -0.12022,0.0367 -0.17387,0.0786 -0.0536,0.0419 -0.10334,0.0994 -0.15044,0.17266 -0.0118,0.0196 -0.0274,0.0358 -0.045,0.0481 -0.0177,0.0123 -0.0376,0.0207 -0.0586,0.0252 -0.0419,0.009 -0.0876,0.003 -0.12681,-0.0208 -0.0196,-0.0118 -0.0356,-0.0273 -0.0479,-0.045 -0.0123,-0.0177 -0.0208,-0.0374 -0.0254,-0.0584 -0.009,-0.0419 -0.002,-0.0878 0.021,-0.12701 0.0353,-0.055 0.073,-0.10471 0.11289,-0.14903 0.0399,-0.0443 0.0821,-0.0832 0.12661,-0.11653 0.0445,-0.0333 0.0913,-0.0613 0.14035,-0.0834 0.0491,-0.0221 0.10023,-0.0384 0.15387,-0.0489 l -0.1779,-0.0994 -0.0471,0.0261 c -0.0209,0.0104 -0.0419,0.0157 -0.0628,0.0157 -0.0209,0 -0.0419,-0.005 -0.0628,-0.0157 l -0.15186,-0.0889 c -0.0157,-0.0104 -0.0208,-0.0158 -0.0313,-0.0263 -0.005,0.0262 -0.0171,0.0497 -0.0347,0.0681 -0.0177,0.0183 -0.0411,0.0315 -0.0699,0.0367 h -0.0157 c -0.0314,0 -0.0602,-0.0105 -0.0824,-0.0289 -0.0222,-0.0183 -0.0382,-0.0443 -0.0434,-0.0757 l -0.0418,-0.28271 -0.45537,-0.26171 0.0785,0.29301 c 0.0314,-0.0104 0.0577,-0.0157 0.0891,-0.0157 0.0471,0 0.0942,0.0106 0.13611,0.0368 0.0314,0.0183 0.0574,0.0418 0.0784,0.0693 0.0209,0.0275 0.0368,0.0589 0.0473,0.0929 0.0105,0.034 0.013,0.0695 0.008,0.1042 -0.005,0.0347 -0.0164,0.0685 -0.0347,0.1 -0.0236,0.0419 -0.0576,0.076 -0.0975,0.0996 -0.0399,0.0236 -0.0856,0.0365 -0.13267,0.0365 -0.0471,0 -0.0942,-0.0104 -0.13611,-0.0365 -0.0288,-0.0157 -0.0536,-0.0381 -0.0739,-0.0642 -0.0203,-0.0261 -0.0361,-0.0562 -0.0466,-0.0876 l -0.21446,-0.80594 -0.13611,-0.0786 0.26171,0.9893 c 0.008,0.0314 0.002,0.0654 -0.0131,0.0935 -0.0157,0.0281 -0.0419,0.0503 -0.0759,0.0582 -0.0104,0.005 -0.0208,0.005 -0.0313,0.005 -0.0262,0 -0.0523,-0.009 -0.0739,-0.0256 -0.0216,-0.0164 -0.0386,-0.0399 -0.0465,-0.0687 l -0.32451,-1.2193 c -0.0314,-0.0157 -0.0733,-0.0315 -0.12036,-0.0368 0.005,0.0104 0.0104,0.0261 0.0156,0.0418 0.008,0.0261 0.009,0.0551 0.005,0.0832 -0.004,0.0281 -0.013,0.0556 -0.0261,0.0792 -0.0183,0.0314 -0.0445,0.0574 -0.0759,0.0757 -0.0314,0.0183 -0.068,0.0289 -0.10723,0.0289 -0.0367,0 -0.0734,-0.005 -0.1048,-0.0263 -0.034,-0.0183 -0.0601,-0.0457 -0.0778,-0.0778 -0.0177,-0.032 -0.0268,-0.0688 -0.0268,-0.10541 l -0.8322,-0.85318 -1.0521,-0.60702 0.61773,1.06765 0.93175,0.78513 h 0.005 c 0.0393,0 0.0771,0.0105 0.11046,0.0295 0.0333,0.019 0.062,0.0464 0.083,0.0804 0.0131,0.0262 0.0223,0.0552 0.0263,0.0846 0.004,0.0294 0.003,0.0595 -0.005,0.0882 -0.008,0.0288 -0.0209,0.0549 -0.0386,0.0778 -0.0177,0.0229 -0.0398,0.0427 -0.066,0.0584 -0.0314,0.0209 -0.0682,0.0313 -0.11005,0.0313 -0.0471,0 -0.089,-0.0104 -0.12561,-0.0365 -0.002,0.034 0.0419,0.13743 0.0897,0.23688 0.0478,0.0994 0.0988,0.19492 0.10925,0.21324 l 1.36612,0.36632 c 0.034,0.008 0.0602,0.0288 0.0759,0.0563 0.0157,0.0275 0.0208,0.0615 0.0129,0.0955 -0.008,0.0288 -0.0235,0.0523 -0.0444,0.0687 -0.0209,0.0164 -0.0469,0.0254 -0.0757,0.0254 -0.0105,0 -0.021,0 -0.0315,-0.005 l -1.19851,-0.32431 0.10986,0.18841 0.9683,0.26151 c 0.034,0.0104 0.0654,0.0274 0.0929,0.0497 0.0275,0.0222 0.051,0.0498 0.0693,0.0812 0.0196,0.034 0.0315,0.0705 0.036,0.10703 0.004,0.0366 0.002,0.0734 -0.008,0.10844 -0.009,0.035 -0.0256,0.068 -0.0479,0.0973 -0.0223,0.0293 -0.0508,0.0551 -0.0848,0.0747 -0.0419,0.0209 -0.089,0.0365 -0.14136,0.0365 -0.0497,0 -0.098,-0.0131 -0.14055,-0.0374 -0.0425,-0.0242 -0.0792,-0.0595 -0.10541,-0.10399 -0.0183,-0.0314 -0.0302,-0.0668 -0.0347,-0.1034 -0.005,-0.0367 -0.002,-0.0746 0.008,-0.11126 0,-0.0104 0.005,-0.021 0.0105,-0.0315 l -0.44487,-0.12016 0.31927,0.55473 0.38206,0.0575 c 0.034,0.005 0.0628,0.0236 0.0818,0.0491 0.019,0.0255 0.0281,0.0583 0.0228,0.0923 -0.005,0.034 -0.0236,0.0628 -0.0491,0.0818 -0.0255,0.019 -0.0583,0.0281 -0.0923,0.0228 h -0.0157 c 0.0262,0.0104 0.0525,0.0314 0.0683,0.0575 l 0.0994,0.17266 c 0.0104,0.0183 0.0157,0.0408 0.0157,0.063 0,0.0222 -0.005,0.0445 -0.0157,0.0628 l -0.0994,0.17266 c -0.0131,0.0183 -0.0289,0.0339 -0.0473,0.045 -0.0183,0.0111 -0.0392,0.0178 -0.0628,0.0178 h -0.19891 c -0.0236,0 -0.0457,-0.007 -0.0646,-0.0178 -0.019,-0.0111 -0.0348,-0.0267 -0.0452,-0.045 l -0.0993,-0.17266 c -0.0157,-0.0262 -0.021,-0.0576 -0.0157,-0.089 l -0.005,0.0105 c -0.008,0.0236 -0.0236,0.0432 -0.0438,0.057 -0.0203,0.0138 -0.0451,0.0216 -0.0713,0.0216 -0.0157,0 -0.0315,-0.005 -0.0473,-0.0105 -0.0314,-0.013 -0.0548,-0.0378 -0.0673,-0.0673 -0.0124,-0.0294 -0.0137,-0.0635 -7.8e-4,-0.0949 l 0.14136,-0.36127 -0.31926,-0.55473 -0.12057,0.44487 c 0.0445,0.008 0.0864,0.0235 0.12238,0.0471 0.036,0.0236 0.0661,0.055 0.087,0.0943 0.0183,0.0314 0.0302,0.0666 0.0347,0.10319 0.005,0.0366 0.002,0.0746 -0.008,0.11127 -0.008,0.0366 -0.0236,0.0707 -0.0459,0.10016 -0.0222,0.0294 -0.051,0.0544 -0.085,0.0727 -0.0419,0.021 -0.089,0.0365 -0.14136,0.0365 -0.0497,0 -0.098,-0.0131 -0.14055,-0.0374 -0.0425,-0.0242 -0.0792,-0.0595 -0.10541,-0.104 -0.0183,-0.0314 -0.0301,-0.0653 -0.0353,-0.1 -0.005,-0.0347 -0.004,-0.07 0.004,-0.104 l 0.26171,-0.96829 -0.10985,-0.18841 -0.32452,1.1985 c -0.008,0.0288 -0.0237,0.0523 -0.0446,0.0687 -0.0209,0.0164 -0.0469,0.0254 -0.0757,0.0254 -0.0105,0 -0.021,2.1e-4 -0.0315,-0.005 -0.034,-0.008 -0.0602,-0.0288 -0.0759,-0.0563 -0.0157,-0.0275 -0.0208,-0.0615 -0.0129,-0.0955 l 0.36632,-1.36612 c -0.0131,-0.0183 -0.0681,-0.11109 -0.12763,-0.20335 -0.0595,-0.0922 -0.12347,-0.18381 -0.15488,-0.19951 0,0.0262 -2.1e-4,0.0469 -0.005,0.0731 -0.008,0.0288 -0.0207,0.055 -0.0384,0.0779 -0.0177,0.0229 -0.0401,0.0425 -0.0662,0.0582 -0.0314,0.0209 -0.0732,0.0315 -0.10986,0.0315 -0.0392,0 -0.0771,-0.0105 -0.11046,-0.0295 -0.0333,-0.019 -0.0623,-0.0463 -0.0832,-0.0804 -0.0209,-0.0367 -0.0301,-0.0774 -0.0287,-0.11733 0.002,-0.0399 0.013,-0.0791 0.0339,-0.11308 l -0.22516,-1.19346 -0.62278,-1.07816 v 1.20901 l 0.32452,0.83744 c 0.034,0.0183 0.0616,0.0445 0.0806,0.0759 0.019,0.0314 0.0293,0.0682 0.0293,0.10743 0,0.0301 -0.006,0.0584 -0.0166,0.0842 -0.0107,0.0258 -0.0261,0.0488 -0.0454,0.0681 -0.0193,0.0193 -0.0423,0.0349 -0.068,0.0456 -0.0257,0.0108 -0.0543,0.0166 -0.0844,0.0166 -0.0366,0 -0.072,-0.0104 -0.10279,-0.0281 -0.0307,-0.0177 -0.0568,-0.0425 -0.0751,-0.0713 -0.0104,0.0236 -0.017,0.12811 -0.021,0.23082 -0.004,0.10272 -0.005,0.2036 -0.005,0.21931 l 0.88449,0.88974 c 0.0236,0.0261 0.0353,0.0588 0.0353,0.0909 0,0.0321 -0.0118,0.0635 -0.0353,0.087 -0.0262,0.0262 -0.0575,0.0367 -0.0888,0.0367 -0.0314,0 -0.0629,-0.0105 -0.0891,-0.0367 l -0.72758,-0.72759 v 0.15711 l 0.59148,0.59128 c 0.0236,0.0236 0.0419,0.0526 0.0543,0.084 0.0124,0.0314 0.019,0.0653 0.019,0.0994 0,0.0366 -0.008,0.0715 -0.0212,0.10339 -0.0136,0.0319 -0.0331,0.0608 -0.0574,0.085 -0.0242,0.0242 -0.0529,0.0438 -0.0848,0.0573 -0.0319,0.0136 -0.067,0.0212 -0.10359,0.0212 -0.0366,0 -0.0715,-0.008 -0.1034,-0.0212 -0.0319,-0.0136 -0.0608,-0.0331 -0.085,-0.0573 -0.0242,-0.0242 -0.0438,-0.0531 -0.0573,-0.085 -0.0136,-0.0319 -0.0212,-0.0668 -0.0212,-0.10339 0,-0.0419 0.009,-0.081 0.0256,-0.11571 0.0164,-0.0347 0.0399,-0.0649 0.0687,-0.0884 l -0.21971,-0.21991 v 0.52867 l 0.23021,0.18316 c 0.0262,0.0236 0.0417,0.055 0.0456,0.087 0.004,0.032 -0.004,0.0647 -0.0249,0.0909 -0.0157,0.0209 -0.0391,0.0354 -0.0646,0.042 -0.0255,0.007 -0.053,0.005 -0.0765,-0.005 0.005,0.0104 0.005,0.0263 0.005,0.0368 v 0.17791 c 0,0.0236 -0.007,0.0456 -0.0178,0.0646 -0.0111,0.019 -0.0267,0.0348 -0.045,0.0452 l -0.0523,0.0315 v 0.20396 c 0.0367,-0.0406 0.0767,-0.0765 0.12056,-0.10784 0.0438,-0.0313 0.0913,-0.0579 0.14236,-0.0798 0.051,-0.0219 0.10575,-0.0392 0.16398,-0.0515 0.0582,-0.0123 0.11995,-0.02 0.18538,-0.0226 0.0236,-0.002 0.0458,0.002 0.066,0.009 0.0202,0.007 0.0383,0.018 0.0537,0.0321 0.0307,0.0281 0.0505,0.0686 0.0531,0.11571 0.003,0.0445 -0.0133,0.0863 -0.0414,0.11773 -0.0141,0.0157 -0.0312,0.0289 -0.0507,0.0384 -0.0195,0.009 -0.0415,0.0155 -0.065,0.0168 -0.0864,0.002 -0.1609,0.0169 -0.22435,0.043 -0.0635,0.0262 -0.11585,0.0642 -0.15771,0.1139 -0.0275,0.0327 -0.0488,0.069 -0.0652,0.10642 -0.0164,0.0374 -0.028,0.0762 -0.0361,0.11349 -0.0164,0.0746 -0.019,0.14371 -0.019,0.1882 l 1.81099,1.811 c 0.0157,0.0157 0.0275,0.0344 0.0353,0.0545 0.008,0.0201 0.0117,0.0416 0.0117,0.0632 0,0.0216 -0.004,0.0433 -0.0117,0.0634 -0.008,0.0201 -0.0196,0.0388 -0.0353,0.0545 -0.0366,0.0314 -0.0785,0.047 -0.12036,0.047 -0.0236,0 -0.0457,-0.004 -0.066,-0.0117 -0.0203,-0.008 -0.0388,-0.0196 -0.0545,-0.0353 l -0.84269,-0.84269 -0.22496,0.34531 0.85844,0.85845 c 0.0157,0.0157 0.0275,0.0344 0.0353,0.0545 0.008,0.0201 0.0117,0.0416 0.0117,0.0632 0,0.0216 -0.004,0.0433 -0.0117,0.0634 -0.008,0.0201 -0.0196,0.0386 -0.0353,0.0543 -0.0366,0.0314 -0.0785,0.0472 -0.12036,0.0472 -0.0236,0 -0.046,-0.004 -0.0662,-0.0117 -0.0203,-0.008 -0.0386,-0.0198 -0.0543,-0.0356 l -0.80593,-0.80594 -0.39782,0.60723 0.65428,0.75888 c 0.0157,0.017 0.0269,0.0362 0.0337,0.0565 0.007,0.0204 0.009,0.0419 0.007,0.0632 -0.003,0.0425 -0.0229,0.0843 -0.0569,0.11572 -0.0314,0.0261 -0.0732,0.0418 -0.10985,0.0418 -0.0236,0 -0.0471,-0.005 -0.0687,-0.0149 -0.0216,-0.01 -0.0412,-0.0243 -0.057,-0.0426 l -0.44487,-0.51293 v 0.63854 0.005 l 0.38207,0.895 c 0.0105,0.0236 0.0157,0.0472 0.0157,0.0701 0,0.0229 -0.005,0.0451 -0.0157,0.066 l -0.38207,0.83744 c -0.005,0.034 -0.0209,0.0643 -0.0438,0.0879 -0.0229,0.0236 -0.053,0.0404 -0.087,0.0483 -0.0157,0.005 -0.0263,0.005 -0.0367,0.005 -0.0314,0 -0.0627,-0.0104 -0.0889,-0.0261 -0.0209,-0.0104 -0.038,-0.0262 -0.0511,-0.0452 -0.0131,-0.019 -0.0222,-0.0411 -0.0275,-0.0646 l -0.38207,-0.83744 c -0.008,-0.0209 -0.013,-0.0445 -0.0137,-0.0681 -7.8e-4,-0.0236 0.003,-0.0473 0.0137,-0.0683 l 0.38207,-0.895 v -0.005 -0.63853 l -0.44487,0.51293 c -0.0314,0.034 -0.0734,0.0537 -0.11591,0.0569 -0.0213,0.002 -0.0427,-7.8e-4 -0.063,-0.008 -0.0204,-0.007 -0.0395,-0.0178 -0.0565,-0.0335 -0.034,-0.0314 -0.0537,-0.0734 -0.057,-0.11591 -0.002,-0.0213 7.8e-4,-0.0426 0.007,-0.063 0.007,-0.0204 0.018,-0.0397 0.0337,-0.0567 l 0.65408,-0.75364 -0.40287,-0.61228 -0.80089,0.80594 c -0.0366,0.0314 -0.0785,0.0471 -0.12036,0.0471 -0.0419,0 -0.0837,-0.0156 -0.1151,-0.0471 -0.0157,-0.0157 -0.0275,-0.0344 -0.0353,-0.0545 -0.008,-0.0201 -0.0119,-0.0418 -0.0119,-0.0634 0,-0.0216 0.004,-0.0431 0.0119,-0.0632 0.008,-0.0201 0.0196,-0.0388 0.0353,-0.0545 l 0.85319,-0.85298 -0.22516,-0.34027 -0.83744,0.83744 c -0.0367,0.0314 -0.0785,0.047 -0.12036,0.047 -0.0236,0 -0.0458,-0.004 -0.066,-0.0117 -0.0203,-0.008 -0.0386,-0.0196 -0.0543,-0.0353 -0.0157,-0.0157 -0.0275,-0.0344 -0.0353,-0.0545 -0.008,-0.0201 -0.0117,-0.0416 -0.0117,-0.0632 0,-0.0216 0.004,-0.0433 0.0117,-0.0634 0.008,-0.0201 0.0196,-0.0386 0.0353,-0.0543 l 1.81099,-1.81099 c 0,-0.0445 -0.004,-0.11403 -0.0216,-0.18861 -0.009,-0.0373 -0.0211,-0.0758 -0.038,-0.11329 -0.017,-0.0375 -0.0386,-0.0737 -0.066,-0.10642 -0.0419,-0.0497 -0.0943,-0.0877 -0.15771,-0.11389 -0.0635,-0.0261 -0.138,-0.0406 -0.22436,-0.0432 -0.0445,-0.003 -0.0851,-0.0221 -0.11389,-0.0529 -0.0144,-0.0154 -0.0258,-0.0335 -0.0333,-0.0537 -0.008,-0.0202 -0.0112,-0.0425 -0.01,-0.066 0,-0.0222 0.005,-0.0435 0.0137,-0.0628 0.009,-0.0193 0.0216,-0.0367 0.0374,-0.0511 0.0157,-0.0144 0.0345,-0.0258 0.0551,-0.0333 0.0206,-0.008 0.0431,-0.0112 0.0666,-0.01 0.0654,0.002 0.12716,0.0103 0.18538,0.0226 0.0582,0.0123 0.11295,0.0296 0.16398,0.0515 0.051,0.0219 0.0985,0.0484 0.14236,0.0798 0.0438,0.0313 0.0839,0.0673 0.12056,0.10783 v -0.20396 l -0.047,-0.0261 c -0.0183,-0.0131 -0.0341,-0.0289 -0.0452,-0.0473 -0.0111,-0.0183 -0.0176,-0.0393 -0.0176,-0.0628 v -0.17791 c 0,-0.0104 -1e-5,-0.0263 0.005,-0.0368 -0.0104,0.005 -0.0263,0.0105 -0.042,0.0105 -0.0366,0 -0.0732,-0.0156 -0.0994,-0.0471 -0.0209,-0.0288 -0.0288,-0.0629 -0.0249,-0.0949 0.004,-0.032 0.0196,-0.0621 0.0458,-0.083 l 0.22496,-0.17811 v -0.52847 l -0.21446,0.21445 c 0.0288,0.0262 0.0523,0.0576 0.0687,0.0923 0.0164,0.0347 0.0254,0.0726 0.0254,0.11188 0,0.0367 -0.007,0.0717 -0.021,0.10359 -0.0136,0.0319 -0.0334,0.0606 -0.0575,0.0848 -0.0242,0.0242 -0.0529,0.044 -0.0848,0.0576 -0.0319,0.0136 -0.0669,0.021 -0.10359,0.021 -0.0366,0 -0.0715,-0.007 -0.1034,-0.021 -0.0319,-0.0136 -0.0608,-0.0334 -0.085,-0.0576 -0.0242,-0.0242 -0.0438,-0.0529 -0.0573,-0.0848 -0.0136,-0.0319 -0.021,-0.067 -0.021,-0.10359 0,-0.0367 0.006,-0.0706 0.0188,-0.10138 0.0124,-0.0308 0.031,-0.0582 0.0545,-0.0818 l 0.58603,-0.58623 v -0.15691 l -0.72234,0.72213 c -0.0262,0.0262 -0.0575,0.0368 -0.0889,0.0368 -0.0314,0 -0.0629,-0.0106 -0.0891,-0.0368 -0.0236,-0.0261 -0.0353,-0.0588 -0.0353,-0.0909 0,-0.0321 0.0118,-0.0635 0.0353,-0.087 l 0.89499,-0.895 c 0,-0.0183 -0.002,-0.12042 -0.005,-0.22314 -0.004,-0.10272 -0.0105,-0.20604 -0.021,-0.22698 -0.0183,0.0288 -0.0446,0.0536 -0.0753,0.0713 -0.0307,0.0177 -0.066,0.0283 -0.10258,0.0283 -0.0301,0 -0.0587,-0.006 -0.0844,-0.0168 -0.0257,-0.0107 -0.0488,-0.0261 -0.0681,-0.0454 -0.0193,-0.0193 -0.0349,-0.0425 -0.0456,-0.0683 -0.0107,-0.0257 -0.0166,-0.0541 -0.0166,-0.0842 0,-0.0393 0.0119,-0.0758 0.0315,-0.10723 0.0196,-0.0314 0.0469,-0.0576 0.0784,-0.0759 l 0.31926,-0.8219 v -1.22476 l -0.62278,1.07836 -0.25646,1.25606 c 0.0209,0.034 0.0326,0.0734 0.0339,0.11328 0.002,0.0399 -0.008,0.0803 -0.0287,0.11693 -0.0183,0.034 -0.0472,0.0616 -0.0812,0.0806 -0.034,0.019 -0.0732,0.0295 -0.11248,0.0295 -0.0366,0 -0.0732,-0.0105 -0.10986,-0.0315 -0.0262,-0.0157 -0.0484,-0.0353 -0.066,-0.0582 -0.0177,-0.0229 -0.0309,-0.0492 -0.0388,-0.078 -0.005,-0.0261 -0.005,-0.0471 -0.005,-0.0733 -0.0314,0.0157 -0.0888,0.0917 -0.14116,0.16822 -0.0523,0.0765 -0.0996,0.15372 -0.11005,0.17205 l 0.36631,1.36611 c 0.008,0.0314 0.003,0.0656 -0.0129,0.0937 -0.0157,0.0281 -0.0419,0.0503 -0.0759,0.0582 -0.0104,0.005 -0.0208,0.005 -0.0313,0.005 -0.0262,0 -0.0523,-0.009 -0.0739,-0.0256 -0.0216,-0.0164 -0.0388,-0.0399 -0.0466,-0.0687 l -0.31927,-1.1985 -0.10985,0.1884 0.26171,0.9683 c 0.008,0.034 0.009,0.0693 0.004,0.104 -0.005,0.0347 -0.0168,0.0688 -0.0351,0.10016 -0.0261,0.0445 -0.0629,0.0798 -0.10541,0.104 -0.0425,0.0242 -0.091,0.0374 -0.14075,0.0374 -0.0471,0 -0.0993,-0.0106 -0.14116,-0.0368 -0.034,-0.0196 -0.0627,-0.0452 -0.085,-0.0745 -0.0223,-0.0293 -0.0384,-0.0625 -0.0479,-0.0975 -0.009,-0.035 -0.0124,-0.0719 -0.008,-0.10844 0.004,-0.0365 0.0163,-0.0728 0.0359,-0.10683 0.0236,-0.0393 0.0549,-0.0719 0.0909,-0.0961 0.036,-0.0242 0.0767,-0.04 0.11854,-0.0452 l -0.12035,-0.44487 -0.31927,0.55473 0.14115,0.36126 c 0.0131,0.0314 0.0118,0.0655 -7.8e-4,0.0949 -0.0124,0.0294 -0.0358,0.0541 -0.0673,0.0672 -0.0157,0.005 -0.0315,0.0105 -0.0473,0.0105 -0.0236,0 -0.047,-0.008 -0.0672,-0.0216 -0.0203,-0.0138 -0.0374,-0.0332 -0.0479,-0.0567 l -0.005,-0.0105 c 0.005,0.0314 1.4e-4,0.0629 -0.0156,0.0891 l -0.0996,0.17266 c -0.0131,0.0183 -0.0287,0.0339 -0.047,0.045 -0.0183,0.0111 -0.0392,0.0178 -0.0628,0.0178 h -0.19891 c -0.0236,0 -0.0459,-0.007 -0.0648,-0.0178 -0.019,-0.0111 -0.0346,-0.0267 -0.045,-0.045 l -0.0996,-0.17266 c -0.0104,-0.0183 -0.0155,-0.0406 -0.0155,-0.0628 0,-0.0222 0.005,-0.0445 0.0155,-0.0628 l 0.0996,-0.17286 c 0.0157,-0.0314 0.0419,-0.0471 0.068,-0.0576 h -0.0157 c -0.034,0.005 -0.0668,-0.004 -0.0923,-0.0228 -0.0255,-0.019 -0.0438,-0.0478 -0.0491,-0.0818 -0.005,-0.034 0.004,-0.0668 0.023,-0.0923 0.019,-0.0255 0.0478,-0.0438 0.0818,-0.0491 l 0.38187,-0.0575 0.31926,-0.55473 -0.44487,0.12036 c 0,0.0104 0.005,0.0208 0.0105,0.0313 0.0104,0.0366 0.0131,0.0735 0.008,0.10945 -0.005,0.036 -0.0162,0.0712 -0.0345,0.10521 -0.0262,0.0445 -0.0629,0.0798 -0.10542,0.104 -0.0425,0.0242 -0.091,0.0374 -0.14075,0.0374 -0.0471,0 -0.0993,-0.0106 -0.14115,-0.0368 -0.034,-0.0196 -0.0627,-0.0452 -0.085,-0.0745 -0.0223,-0.0294 -0.0384,-0.0625 -0.0479,-0.0975 -0.009,-0.035 -0.0124,-0.0717 -0.008,-0.10824 0.004,-0.0365 0.0163,-0.073 0.0359,-0.10702 0.0183,-0.0314 0.0418,-0.0587 0.0693,-0.081 0.0275,-0.0222 0.0591,-0.0394 0.0931,-0.0499 l 0.96809,-0.26171 0.11006,-0.18841 -1.19851,0.31926 c -0.0104,0.005 -0.021,0.005 -0.0315,0.005 -0.0262,0 -0.0523,-0.009 -0.0739,-0.0256 -0.0216,-0.0164 -0.0386,-0.0399 -0.0464,-0.0687 -0.008,-0.0314 -0.003,-0.0654 0.0131,-0.0935 0.0157,-0.0281 0.0417,-0.0505 0.0757,-0.0584 l 1.36612,-0.36631 c 0.0104,-0.0183 0.0538,-0.098 0.0937,-0.18175 0.0399,-0.0837 0.0765,-0.17155 0.0739,-0.20558 -0.0366,0.0209 -0.0787,0.0367 -0.12581,0.0367 -0.0366,0 -0.0732,-0.0105 -0.10985,-0.0315 -0.0262,-0.0157 -0.0484,-0.0352 -0.066,-0.0582 -0.0177,-0.0229 -0.0307,-0.0492 -0.0386,-0.078 -0.008,-0.0288 -0.0105,-0.0588 -0.007,-0.0882 0.003,-0.0294 0.0125,-0.0583 0.0282,-0.0844 0.0183,-0.034 0.047,-0.0614 0.081,-0.0804 0.034,-0.019 0.0732,-0.0295 0.11248,-0.0295 h 0.005 l 0.9473,-0.85319 0.61773,-1.0729 -1.0519,0.60702 -0.83239,0.8532 c 0,0.0209 1e-5,0.0419 -0.005,0.0575 -0.008,0.0288 -0.0208,0.0549 -0.0378,0.0771 -0.017,0.0222 -0.038,0.0406 -0.0616,0.0537 -0.0314,0.0157 -0.068,0.0263 -0.1046,0.0263 -0.0366,0 -0.0734,-0.009 -0.10541,-0.0269 -0.032,-0.0177 -0.0596,-0.0439 -0.0779,-0.0779 -0.0131,-0.0236 -0.0221,-0.0497 -0.0261,-0.0771 -0.004,-0.0275 -0.003,-0.0562 0.005,-0.085 0.005,-0.0157 0.0105,-0.0263 0.0157,-0.042 -0.0471,0 -0.0892,0.0211 -0.12056,0.0368 l -0.32956,1.21951 c -0.008,0.0288 -0.0237,0.0523 -0.0446,0.0687 -0.0209,0.0164 -0.0471,0.0256 -0.0759,0.0256 -0.0104,0 -0.0208,0 -0.0313,-0.005 -0.034,-0.008 -0.0602,-0.0288 -0.0759,-0.0563 -0.0157,-0.0275 -0.021,-0.0615 -0.0131,-0.0955 l 0.26717,-0.98404 -0.13631,0.0786 -0.21446,0.80089 c -0.0104,0.0314 -0.0262,0.0601 -0.0464,0.0856 -0.0203,0.0255 -0.0451,0.0477 -0.0739,0.066 -0.0419,0.0262 -0.089,0.0368 -0.1361,0.0368 -0.0471,0 -0.093,-0.0131 -0.13288,-0.0368 -0.0399,-0.0236 -0.0738,-0.0575 -0.0973,-0.0994 -0.0183,-0.0314 -0.0304,-0.0655 -0.0349,-0.10016 -0.005,-0.0347 -0.002,-0.07 0.009,-0.104 0.0104,-0.034 0.0261,-0.0654 0.047,-0.0929 0.0209,-0.0275 0.0472,-0.0509 0.0786,-0.0693 0.0419,-0.0262 0.089,-0.0368 0.13611,-0.0368 0.0314,0 0.0627,0.005 0.0888,0.0157 l 0.0786,-0.29321 -0.45538,0.26171 -0.0418,0.28271 c -0.005,0.0288 -0.021,0.0549 -0.0432,0.0739 -0.0222,0.019 -0.051,0.0309 -0.0824,0.0309 h -0.0157 c -0.0288,-0.005 -0.0524,-0.0184 -0.0701,-0.0367 -0.0177,-0.0183 -0.0293,-0.0419 -0.0346,-0.068 -0.0104,0.0104 -0.021,0.0211 -0.0315,0.0263 l -0.15166,0.0889 c -0.0209,0.0104 -0.0421,0.0157 -0.063,0.0157 -0.0209,0 -0.0419,-0.005 -0.0628,-0.0157 l -0.047,-0.0261 -0.17791,0.0994 c 0.0537,0.0118 0.10502,0.0287 0.15408,0.0511 0.0491,0.0223 0.0959,0.05 0.14035,0.083 0.0445,0.033 0.0867,0.0716 0.12662,0.1155 0.0399,0.0439 0.0776,0.0933 0.11288,0.14823 0.0236,0.0393 0.0299,0.0851 0.0208,0.12702 -0.005,0.0209 -0.0131,0.0407 -0.0254,0.0584 -0.0123,0.0177 -0.028,0.0331 -0.0477,0.0448 -0.0393,0.0236 -0.0851,0.0302 -0.12703,0.021 -0.0209,-0.005 -0.0409,-0.0129 -0.0586,-0.0252 -0.0177,-0.0123 -0.033,-0.0284 -0.0448,-0.0481 -0.0445,-0.0733 -0.0941,-0.13079 -0.14842,-0.17266 -0.0543,-0.0419 -0.11328,-0.0681 -0.17609,-0.0786 -0.0432,-0.008 -0.086,-0.009 -0.127224,-0.004 -0.04122,0.004 -0.08089,0.0134 -0.11753,0.0249 -0.07327,0.0229 -0.134818,0.0554 -0.174071,0.079 l -0.664581,2.47577 c -0.01043,0.0392 -0.03279,0.0707 -0.06159,0.0923 -0.02876,0.0216 -0.06413,0.0333 -0.100765,0.0333 -0.01043,0 -0.02607,-3e-5 -0.0418,-0.005 -0.02224,-0.005 -0.04247,-0.0151 -0.05998,-0.0283 -0.01751,-0.0132 -0.03232,-0.0296 -0.04341,-0.0483 -0.0111,-0.0186 -0.01872,-0.0393 -0.02181,-0.061 -0.0031,-0.0216 -0.002,-0.0444 0.0048,-0.0666 l 0.308763,-1.1462 -0.41337,-0.0261 -0.314012,1.17226 c -0.01043,0.0392 -0.03279,0.0707 -0.06159,0.0923 -0.02876,0.0216 -0.06413,0.0333 -0.100766,0.0333 -0.01043,0 -0.0261,1e-5 -0.0418,-0.005 -0.04449,-0.013 -0.08115,-0.0419 -0.103395,-0.0785 -0.0111,-0.0183 -0.01872,-0.0385 -0.02181,-0.0598 -0.0031,-0.0213 -0.002,-0.0436 0.0048,-0.0658 l 0.298264,-1.1044 -0.72759,-0.0418 -0.329764,0.94729 c -0.01043,0.034 -0.03267,0.0616 -0.06079,0.0806 -0.02814,0.019 -0.0621,0.0295 -0.09612,0.0295 -0.01571,0 -0.03661,-0.005 -0.0523,-0.0105 -0.02224,-0.008 -0.04192,-0.0196 -0.05836,-0.0343 -0.01645,-0.0146 -0.02974,-0.0322 -0.03918,-0.0515 -0.0095,-0.0193 -0.0152,-0.0404 -0.01657,-0.0622 -0.0016,-0.0219 0.0016,-0.0444 0.0093,-0.0667 l 0.225161,-0.64377 -0.549474,0.31926 -0.586433,0.77989 c -0.01305,0.0209 -0.03005,0.0365 -0.04968,0.0477 -0.01962,0.0111 -0.04188,0.0178 -0.06543,0.0204 l -0.915798,0.0891 c -0.02095,0.005 -0.03662,0.0103 -0.05755,0.0103 -0.02356,0 -0.04727,-0.004 -0.06886,-0.0125 -0.02161,-0.008 -0.04125,-0.0215 -0.05695,-0.0398 -0.01571,-0.0183 -0.02614,-0.0381 -0.03271,-0.0584 -0.0065,-0.0203 -0.0091,-0.0411 -0.0091,-0.062 0,-0.0236 0.0054,-0.0473 0.01512,-0.0689 0.0098,-0.0216 0.02407,-0.041 0.04241,-0.0567 l 0.538973,-0.74859 c 0.01305,-0.0183 0.03025,-0.0338 0.04988,-0.0456 0.01962,-0.0118 0.04188,-0.0198 0.06543,-0.0224 l 0.9683,-0.1149 h 0.0052 l 0.554929,-0.31926 -0.670032,-0.13086 c -0.02224,-0.004 -0.04252,-0.0125 -0.06018,-0.0244 -0.01766,-0.012 -0.03286,-0.0274 -0.04463,-0.045 -0.02356,-0.0353 -0.03388,-0.0799 -0.02606,-0.1244 0.0039,-0.0222 0.0125,-0.0423 0.02442,-0.06 0.01192,-0.0177 0.02716,-0.0328 0.04483,-0.0446 0.03533,-0.0236 0.07991,-0.034 0.124391,-0.0261 l 0.9788,0.18841 0.329764,-0.65428 -1.099151,-0.28777 c -0.04449,-0.013 -0.07978,-0.0419 -0.101375,-0.0785 -0.02161,-0.0367 -0.02966,-0.0811 -0.01919,-0.12561 0.01305,-0.0445 0.04192,-0.0798 0.07855,-0.10137 0.03665,-0.0216 0.08112,-0.0297 0.125603,-0.0192 l 1.167208,0.30897 0.18336,-0.36652 -1.141155,-0.30351 c -0.02223,-0.005 -0.04247,-0.0151 -0.05998,-0.0283 -0.01751,-0.0132 -0.03228,-0.0296 -0.04342,-0.0483 -0.0111,-0.0186 -0.01852,-0.0393 -0.02161,-0.061 -0.0031,-0.0216 -0.002,-0.0442 0.0047,-0.0664 0.0052,-0.0222 0.01508,-0.0427 0.02829,-0.0602 0.01317,-0.0175 0.02962,-0.0323 0.04826,-0.0434 0.01864,-0.0111 0.03951,-0.0186 0.06119,-0.0216 0.02165,-0.003 0.0442,-0.002 0.06644,0.005 l 2.475772,0.66478 c 0.03925,-0.0236 0.09802,-0.0614 0.154282,-0.11369 0.02814,-0.0261 0.05552,-0.0561 0.07956,-0.0894 0.02407,-0.0334 0.04477,-0.0703 0.05917,-0.11087 0.02356,-0.0602 0.03017,-0.1242 0.02102,-0.19225 -0.0091,-0.068 -0.03404,-0.14018 -0.07331,-0.21607 -0.01043,-0.0209 -0.01633,-0.0427 -0.01797,-0.0644 -0.0016,-0.0217 0.0012,-0.0435 0.0075,-0.0638 0.0065,-0.0203 0.01704,-0.0392 0.03111,-0.0557 0.01407,-0.0165 0.03158,-0.0305 0.0525,-0.041 0.02094,-0.0104 0.04286,-0.0163 0.06462,-0.018 0.02177,-0.002 0.04333,0.001 0.06362,0.007 0.02028,0.007 0.03942,0.0171 0.05593,0.0311 0.01649,0.0141 0.03052,0.0316 0.04099,0.0525 0.03009,0.0576 0.05438,0.11497 0.0727,0.17165 0.0183,0.0567 0.0306,0.11272 0.0372,0.16801 0.007,0.0553 0.007,0.10976 0.002,0.16316 -0.005,0.0534 -0.0164,0.10568 -0.0333,0.15671 l 0.17266,-0.0994 v -0.0575 c 0,-0.0236 0.007,-0.0458 0.0178,-0.0648 0.0111,-0.019 0.0267,-0.0348 0.045,-0.0452 l 0.15186,-0.0889 c 0.0104,-0.0104 0.0261,-0.0105 0.0365,-0.0157 -0.0209,-0.0157 -0.0352,-0.0379 -0.0418,-0.0628 -0.007,-0.0249 -0.005,-0.0524 0.005,-0.0786 0.013,-0.0314 0.0378,-0.055 0.0672,-0.0674 0.0294,-0.0124 0.0635,-0.0137 0.0949,-7.8e-4 l 0.27222,0.11005 0.45537,-0.26171 -0.29827,-0.0786 c -0.005,0.0104 -0.005,0.0157 -0.005,0.021 -0.0104,0.034 -0.0263,0.0654 -0.0473,0.0929 -0.0209,0.0275 -0.0469,0.0509 -0.0784,0.0693 -0.0419,0.0261 -0.089,0.0368 -0.13611,0.0368 -0.0471,0 -0.093,-0.0132 -0.13287,-0.0368 -0.0399,-0.0236 -0.074,-0.0577 -0.0975,-0.0996 -0.0183,-0.0314 -0.03,-0.0653 -0.0345,-0.0999 -0.005,-0.0347 -0.002,-0.07 0.008,-0.10401 0.0104,-0.034 0.0261,-0.0654 0.047,-0.0929 0.0209,-0.0275 0.0471,-0.0512 0.0785,-0.0695 0.0419,-0.0262 0.089,-0.0365 0.13611,-0.0365 0.0209,0 0.0417,-10e-6 0.0626,0.005 l 0.80614,0.21446 0.1361,-0.0784 -0.9893,-0.26696 c -0.034,-0.008 -0.0602,-0.0286 -0.0759,-0.0561 -0.0157,-0.0275 -0.0208,-0.0617 -0.0129,-0.0957 0.008,-0.034 0.0286,-0.06 0.0561,-0.0757 0.0275,-0.0157 0.0617,-0.021 0.0957,-0.0131 l 1.21931,0.32977 c 0.0314,-0.0209 0.0681,-0.0524 0.0943,-0.0891 -0.0366,0 -0.072,-0.0104 -0.10279,-0.0287 -0.0307,-0.0183 -0.0568,-0.0445 -0.0751,-0.0759 -0.0131,-0.0236 -0.0223,-0.0497 -0.0263,-0.0771 -0.004,-0.0275 -0.003,-0.0564 0.005,-0.0852 0.008,-0.0288 0.021,-0.0549 0.038,-0.0771 0.017,-0.0222 0.0378,-0.0406 0.0614,-0.0537 0.0314,-0.0183 0.0682,-0.0275 0.10481,-0.0275 0.0366,0 0.0732,0.009 0.10461,0.0275 l 1.17245,-0.29826 1.0416,-0.60178 h -1.24042 l -1.14627,0.40812 c -0.0183,0.034 -0.0458,0.0629 -0.0792,0.0832 -0.0333,0.0203 -0.0726,0.0321 -0.11449,0.0321 -0.0314,0 -0.0613,-0.006 -0.0883,-0.0178 -0.027,-0.0113 -0.0512,-0.0274 -0.0715,-0.0477 -0.0203,-0.0203 -0.0366,-0.0447 -0.0479,-0.0717 -0.0113,-0.027 -0.0176,-0.0566 -0.0176,-0.0881 0,-0.0445 0.0131,-0.0851 0.0353,-0.11914 0.0222,-0.034 0.0536,-0.0615 0.0903,-0.0798 -0.0288,-0.0183 -0.13994,-0.03 -0.24919,-0.0372 -0.10927,-0.007 -0.21655,-0.01 -0.23748,-0.01 l -0.9996,0.9996 c -0.0261,0.0261 -0.0577,0.0365 -0.0891,0.0365 -0.0314,0 -0.0629,-0.0104 -0.0891,-0.0365 -0.0236,-0.0262 -0.0353,-0.0588 -0.0353,-0.0909 0,-0.032 0.0118,-0.0635 0.0353,-0.087 l 0.87924,-0.87944 h -0.21446 l -0.70658,0.70658 c -0.0262,0.0236 -0.0564,0.0432 -0.08906,0.057 -0.03271,0.0137 -0.06797,0.0216 -0.104607,0.0216 -0.03926,0 -0.0766,-0.008 -0.110461,-0.022 -0.03384,-0.0142 -0.06435,-0.0349 -0.08986,-0.0604 -0.02552,-0.0255 -0.04594,-0.0558 -0.06018,-0.0897 -0.01422,-0.0338 -0.0222,-0.0712 -0.0222,-0.11046 0,-0.0392 0.008,-0.0766 0.0222,-0.11047 0.01422,-0.0338 0.03466,-0.0643 0.06018,-0.0899 0.02552,-0.0255 0.05601,-0.046 0.08986,-0.0602 0.03384,-0.0142 0.0712,-0.0222 0.110461,-0.0222 0.0471,0 0.09029,0.0105 0.128233,0.0295 0.0379,0.019 0.0706,0.0463 0.0967,0.0804 l 0.32451,-0.32432 h -0.638527 l -0.24071,0.30351 c -0.02614,0.0314 -0.06292,0.0471 -0.09956,0.0471 -0.02618,0 -0.05762,-0.0104 -0.07855,-0.0261 -0.02618,-0.0236 -0.04171,-0.055 -0.04564,-0.087 -0.0039,-0.032 0.0039,-0.0649 0.02485,-0.0911 l 0.01051,-0.0103 c -0.02618,0.0209 -0.0524,0.0313 -0.0838,0.0313 h -0.199112 c -0.02356,0 -0.04565,-0.006 -0.06462,-0.0176 -0.01899,-0.0111 -0.03478,-0.0269 -0.04524,-0.0452 l -0.09936,-0.17266 c -0.01043,-0.0183 -0.01575,-0.0406 -0.01575,-0.0628 0,-0.0222 0.0053,-0.0445 0.01575,-0.0628 l 0.09936,-0.17265 c 0.01305,-0.0183 0.02892,-0.0341 0.04725,-0.0452 0.01833,-0.0111 0.03904,-0.0176 0.0626,-0.0176 h 0.199112 c 0.03142,0 0.06267,0.0103 0.0836,0.0313 l -0.01051,-0.0105 c -0.02095,-0.0288 -0.0288,-0.0627 -0.02485,-0.0947 0.0039,-0.032 0.01966,-0.0623 0.04584,-0.0832 0.02876,-0.0209 0.06285,-0.0288 0.09491,-0.0249 0.03204,0.004 0.06206,0.0197 0.083,0.0459 l 0.24071,0.30351 h 0.638737 l -0.32472,-0.32452 c -0.0262,0.034 -0.0602,0.0614 -0.0987,0.0804 -0.03861,0.019 -0.08193,0.0295 -0.126413,0.0295 -0.03926,0 -0.0764,-0.008 -0.110257,-0.022 -0.03384,-0.0142 -0.06435,-0.0349 -0.08986,-0.0604 -0.02552,-0.0255 -0.04615,-0.0558 -0.06038,-0.0897 -0.01423,-0.0338 -0.022,-0.0712 -0.022,-0.11046 0,-0.0393 0.0078,-0.0766 0.022,-0.11046 0.01422,-0.0339 0.0349,-0.0643 0.06038,-0.0899 0.02552,-0.0255 0.05601,-0.046 0.08986,-0.0602 0.03384,-0.0142 0.071,-0.0222 0.110257,-0.0222 0.03666,0 0.07209,0.008 0.104806,0.0216 0.03271,0.0137 0.06269,0.0334 0.08886,0.057 l 0.70658,0.70658 h 0.21466 l -0.87924,-0.87944 c -0.0236,-0.0262 -0.0353,-0.0588 -0.0353,-0.0909 0,-0.0321 0.0118,-0.0635 0.0353,-0.087 0.0261,-0.0236 0.0588,-0.0353 0.0909,-0.0353 0.032,0 0.0635,0.0118 0.087,0.0353 l 0.99959,0.9998 c 0.0209,0 0.12822,-0.002 0.23748,-0.01 0.10927,-0.007 0.22061,-0.0188 0.2494,-0.0372 -0.0367,-0.0183 -0.068,-0.046 -0.0903,-0.08 -0.0222,-0.034 -0.0353,-0.0746 -0.0353,-0.11914 0,-0.0314 0.006,-0.0611 0.0176,-0.0881 0.0113,-0.027 0.0276,-0.0512 0.0479,-0.0715 0.0203,-0.0203 0.0445,-0.0366 0.0715,-0.0479 0.027,-0.0113 0.0566,-0.0176 0.088,-0.0176 0.0419,0 0.0811,0.0118 0.1145,0.0321 0.0333,0.0203 0.0608,0.049 0.0792,0.083 l 1.14621,0.40832 h 1.24576 l -1.0519,-0.60724 -1.16741,-0.29826 c -0.0367,0.0209 -0.0732,0.0313 -0.10986,0.0313 -0.0367,0.005 -0.0732,-0.005 -0.1046,-0.0261 -0.0236,-0.0157 -0.0446,-0.0342 -0.0616,-0.0557 -0.017,-0.0216 -0.0302,-0.0463 -0.038,-0.0751 -0.008,-0.0261 -0.009,-0.0551 -0.005,-0.0832 0.004,-0.0281 0.0129,-0.0556 0.0261,-0.0792 0.0183,-0.0314 0.0446,-0.0562 0.0753,-0.0739 0.0308,-0.0177 0.0662,-0.0281 0.10279,-0.0307 -0.0262,-0.0419 -0.0681,-0.0734 -0.0943,-0.0891 l -1.21951,0.32451 c -0.0314,0.008 -0.0656,0.003 -0.0937,-0.0129 -0.0281,-0.0157 -0.0503,-0.0419 -0.0582,-0.0759 -0.008,-0.0314 -0.003,-0.0656 0.0131,-0.0937 0.0157,-0.0281 0.0419,-0.0503 0.0759,-0.0581 l 0.9891,-0.26697 -0.1359,-0.0784 -0.80614,0.21446 c -0.0209,0 -0.0419,0.005 -0.0628,0.005 -0.0471,0 -0.0942,-0.0156 -0.13611,-0.0365 -0.0314,-0.0183 -0.0576,-0.042 -0.0785,-0.0695 -0.0209,-0.0275 -0.0366,-0.0589 -0.047,-0.0929 -0.0104,-0.034 -0.0131,-0.0693 -0.008,-0.104 0.005,-0.0347 0.0164,-0.0685 0.0347,-0.1 0.0236,-0.0419 0.0574,-0.076 0.0973,-0.0996 0.0399,-0.0236 0.0858,-0.0368 0.13287,-0.0368 0.0471,0 0.0942,0.0106 0.13611,0.0368 0.0314,0.0183 0.0576,0.0418 0.0786,0.0693 0.0209,0.0275 0.0366,0.0591 0.0471,0.0931 0.005,0.0104 0.005,0.0156 0.005,0.0208 l 0.29827,-0.0784 -0.45518,-0.26171 -0.27241,0.1046 c -0.0157,0.005 -0.0313,0.0103 -0.047,0.0103 -0.0236,0 -0.0472,-0.008 -0.0675,-0.0214 -0.0203,-0.0137 -0.0372,-0.0334 -0.0477,-0.0569 -0.0104,-0.0262 -0.0118,-0.0537 -0.005,-0.0786 0.007,-0.0248 0.0209,-0.0471 0.0418,-0.0628 -0.0157,-0.005 -0.0261,-0.0105 -0.0365,-0.0157 l -0.15186,-0.0889 c -0.0183,-0.013 -0.0339,-0.0289 -0.045,-0.0472 -0.0111,-0.0183 -0.0178,-0.0393 -0.0178,-0.0628 v -0.0575 l -0.17266,-0.0994 c 0.017,0.051 0.0281,0.1033 0.0333,0.1567 0.005,0.0534 0.005,0.10788 -0.002,0.16317 -0.007,0.0553 -0.0189,0.11134 -0.0372,0.16801 -0.0183,0.0567 -0.0426,0.11407 -0.0727,0.17165 -0.01305,0.0288 -0.03404,0.051 -0.05957,0.066 -0.02552,0.0151 -0.05563,0.0228 -0.08703,0.0228 -0.02614,0 -0.05238,-0.0105 -0.07856,-0.021 -0.02094,-0.0104 -0.03865,-0.0245 -0.0527,-0.041 -0.01407,-0.0165 -0.02458,-0.0355 -0.03111,-0.0557 -0.0066,-0.0203 -0.0091,-0.0419 -0.0075,-0.0636 0.0016,-0.0218 0.0077,-0.0437 0.01817,-0.0646 0.03925,-0.0759 0.06258,-0.14783 0.07108,-0.21588 0.0085,-0.068 0.0023,-0.13225 -0.0188,-0.19244 -0.01442,-0.0406 -0.03513,-0.0779 -0.05917,-0.11167 -0.02407,-0.0338 -0.05143,-0.064 -0.07956,-0.0905 -0.05627,-0.053 -0.115231,-0.0909 -0.154481,-0.11188 l -2.475572,0.66479 c -0.04449,0.0104 -0.08896,0.002 -0.125607,-0.019 -0.03665,-0.0216 -0.06547,-0.0571 -0.07855,-0.10158 -0.01043,-0.0445 -0.0027,-0.089 0.01899,-0.12561 0.02161,-0.0367 0.05689,-0.0653 0.101375,-0.0784 l 1.140952,-0.30351 -0.183157,-0.36652 -1.167208,0.30876 c -0.01571,0.005 -0.0261,0.005 -0.0418,0.005 -0.03665,0 -0.07198,-0.0133 -0.10077,-0.0356 -0.02876,-0.0222 -0.05112,-0.0536 -0.06159,-0.0903 -0.01043,-0.0445 -0.0023,-0.0901 0.01919,-0.12743 0.01082,-0.0186 0.02493,-0.0353 0.04201,-0.0485 0.01708,-0.0132 0.03712,-0.0231 0.05937,-0.0283 l 1.099155,-0.28777 -0.329768,-0.65428 -0.9788,0.18841 c -0.01043,0.005 -0.02102,0.005 -0.0315,0.005 -0.03925,0 -0.07582,-0.0144 -0.104607,-0.0386 -0.02876,-0.0242 -0.0497,-0.0583 -0.05755,-0.0975 -0.0053,-0.0222 -0.0054,-0.0443 -0.0012,-0.0654 0.0043,-0.0211 0.01313,-0.0411 0.02524,-0.0588 0.01211,-0.0177 0.02755,-0.0331 0.04564,-0.045 0.01805,-0.0119 0.03876,-0.0203 0.06098,-0.0242 l 0.670036,-0.13086 -0.549677,-0.31927 h -0.0052 l -0.968299,-0.12055 c -0.02356,-0.002 -0.0458,-0.0104 -0.06543,-0.0222 -0.01962,-0.0118 -0.03662,-0.0275 -0.04967,-0.0458 l -0.533925,-0.74839 c -0.02618,-0.0209 -0.04456,-0.0484 -0.05372,-0.0792 -0.0091,-0.0308 -0.009,-0.0647 0.0016,-0.0988 0.0053,-0.0236 0.01555,-0.0432 0.02927,-0.0596 0.01375,-0.0164 0.03075,-0.0295 0.04907,-0.04 0.02094,-0.013 0.04313,-0.0208 0.06604,-0.0234 0.0229,-0.003 0.04652,0 0.07007,0.008 l 0.915998,0.0889 c 0.02356,0.002 0.0458,0.0106 0.06543,0.0224 0.01962,0.0118 0.03658,0.0273 0.04968,0.0456 l 0.58623,0.77989 0.549677,0.31926 -0.219913,-0.64378 c -0.01305,-0.0445 -0.0092,-0.0902 0.0091,-0.12884 0.0091,-0.0193 0.02196,-0.0368 0.03794,-0.0515 0.01602,-0.0146 0.03533,-0.0263 0.05755,-0.0341 0.04449,-0.0131 0.09023,-0.009 0.128835,0.009 0.0193,0.009 0.03685,0.022 0.0515,0.0379 0.01465,0.016 0.02646,0.0353 0.03435,0.0576 l 0.324516,0.9473 0.727586,-0.0418 -0.293215,-1.1044 c -0.01043,-0.0445 -0.0027,-0.089 0.01899,-0.12561 0.02161,-0.0366 0.05688,-0.0655 0.101371,-0.0786 0.04449,-0.0104 0.08897,-0.002 0.125607,0.019 0.03665,0.0216 0.06547,0.0569 0.07855,0.10137 l 0.314016,1.17246 0.41357,-0.0261 -0.308764,-1.1464 c -0.01043,-0.0445 -0.0027,-0.089 0.01899,-0.12561 0.02161,-0.0367 0.05689,-0.0653 0.101375,-0.0784 0.04449,-0.0105 0.08897,-0.003 0.125607,0.019 0.03665,0.0216 0.06526,0.0569 0.07835,0.10137 l 0.664783,2.47557 c 0.03925,0.0236 0.100793,0.0563 0.174071,0.0792 0.03666,0.0114 0.07631,0.0204 0.11753,0.0247 0.04122,0.004 0.08405,0.004 0.12722,-0.004 0.0628,-0.0104 0.12042,-0.0367 0.17407,-0.0786 0.0537,-0.0419 0.10334,-0.0994 0.15045,-0.17266 0.0118,-0.0196 0.0272,-0.0356 0.0448,-0.0479 0.0177,-0.0123 0.0374,-0.0208 0.0584,-0.0254 0.0419,-0.009 0.0878,-0.003 0.12702,0.021 0.0196,0.0118 0.0358,0.027 0.0481,0.0446 0.0123,0.0177 0.0206,0.0376 0.0252,0.0586 0.009,0.0419 0.003,0.0878 -0.0208,0.12702 -0.0353,0.0549 -0.073,0.1047 -0.11288,0.14903 -0.0399,0.0443 -0.0821,0.0832 -0.12661,0.11651 -0.0445,0.0333 -0.0913,0.0611 -0.14035,0.0832 -0.0491,0.0221 -0.10043,0.0386 -0.15408,0.0491 l 0.1779,0.0994 0.0471,-0.0261 c 0.0183,-0.0104 0.0408,-0.0157 0.063,-0.0157 0.0222,0 0.0443,0.005 0.0626,0.0157 l 0.15186,0.0889 c 0.0157,0.0104 0.0208,0.0158 0.0313,0.0263 0.005,-0.0262 0.0171,-0.0497 0.0347,-0.0681 0.0177,-0.0183 0.0413,-0.0315 0.0701,-0.0368 0.034,-0.005 0.0668,0.004 0.0923,0.023 0.0255,0.019 0.0436,0.0478 0.0489,0.0818 l 0.042,0.28272 0.45537,0.26151 -0.0786,-0.29301 c -0.0314,0.0104 -0.0575,0.0157 -0.0889,0.0157 -0.0471,0 -0.0942,-0.0106 -0.13611,-0.0367 -0.0327,-0.0183 -0.06,-0.0425 -0.0812,-0.0705 -0.0212,-0.028 -0.0362,-0.0595 -0.045,-0.0929 -0.009,-0.0334 -0.0115,-0.0685 -0.007,-0.10299 0.004,-0.0345 0.0156,-0.0686 0.0339,-0.1 0.0236,-0.0419 0.0574,-0.0758 0.0973,-0.0993 0.0399,-0.0236 0.0858,-0.0368 0.13288,-0.0368 0.0471,0 0.0942,0.0106 0.13611,0.0368 0.0288,0.0157 0.0536,0.0378 0.0739,0.064 0.0203,0.0261 0.0359,0.0562 0.0465,0.0876 l 0.21466,0.80089 0.13611,0.0784 -0.26172,-0.98385 c -0.008,-0.0314 -0.003,-0.0656 0.0129,-0.0937 0.0157,-0.0281 0.0419,-0.0503 0.0759,-0.0582 0.0314,-0.008 0.0656,-0.003 0.0937,0.0131 0.0281,0.0157 0.0503,0.0419 0.0581,0.0759 l 0.32452,1.21951 c 0.0314,0.0157 0.0733,0.0313 0.12036,0.0365 -0.005,-0.0105 -0.0105,-0.0261 -0.0157,-0.0418 -0.008,-0.0261 -0.009,-0.0549 -0.005,-0.083 0.004,-0.0281 0.0131,-0.0558 0.0263,-0.0794 0.0144,-0.0248 0.0338,-0.0457 0.0561,-0.0622 0.0224,-0.0165 0.0479,-0.0288 0.0747,-0.036 0.0268,-0.007 0.055,-0.009 0.0826,-0.006 0.0277,0.003 0.0547,0.0117 0.0796,0.0261 0.0236,0.0157 0.0446,0.0339 0.0616,0.0555 0.017,0.0216 0.0299,0.0465 0.0378,0.0753 0.005,0.0209 0.005,0.0366 0.005,0.0576 l 0.83219,0.85298 1.1044,0.61249 -0.61773,-1.07291 -0.9683,-0.85844 h -0.005 c -0.0393,0 -0.0771,-0.0105 -0.11046,-0.0295 -0.0333,-0.019 -0.0623,-0.0463 -0.0832,-0.0804 -0.0131,-0.0261 -0.0223,-0.055 -0.0263,-0.0844 -0.004,-0.0294 -0.003,-0.0597 0.005,-0.0884 0.008,-0.0288 0.0209,-0.0548 0.0386,-0.0778 0.0177,-0.0229 0.0399,-0.0425 0.066,-0.0582 0.0367,-0.0209 0.0785,-0.0289 0.11975,-0.0263 0.0412,0.002 0.0817,0.0158 0.11571,0.0367 0,-0.034 -0.0353,-0.1192 -0.0733,-0.20033 -0.038,-0.0811 -0.0784,-0.15818 -0.0889,-0.17649 l -1.36611,-0.36652 c -0.034,-0.008 -0.0602,-0.0288 -0.0759,-0.0563 -0.0157,-0.0275 -0.0208,-0.0613 -0.0129,-0.0953 0.008,-0.034 0.0286,-0.0602 0.0561,-0.0759 0.0275,-0.0157 0.0615,-0.021 0.0955,-0.0131 l 1.1985,0.32452 -0.10985,-0.18841 -0.9683,-0.26171 c -0.034,-0.0104 -0.0654,-0.0274 -0.0929,-0.0497 -0.0275,-0.0222 -0.051,-0.0498 -0.0693,-0.0812 -0.0196,-0.034 -0.0315,-0.0703 -0.0359,-0.10683 -0.005,-0.0365 -0.002,-0.0734 0.008,-0.10844 0.009,-0.035 0.0256,-0.0682 0.0479,-0.0975 0.0223,-0.0293 0.0508,-0.0549 0.0848,-0.0745 0.0419,-0.0209 0.089,-0.0365 0.14135,-0.0365 0.0497,0 0.098,0.0129 0.14055,0.0372 0.0425,0.0242 0.0792,0.0597 0.10541,0.1042 0.0236,0.0393 0.0354,0.0824 0.0374,0.12561 0.002,0.0432 -0.006,0.0863 -0.0216,0.1256 l 0.44487,0.12035 -0.31926,-0.55492 -0.38207,-0.0576 c -0.034,-0.005 -0.0628,-0.0236 -0.0818,-0.0491 -0.019,-0.0255 -0.0281,-0.0583 -0.0228,-0.0923 0.005,-0.034 0.0236,-0.0628 0.0491,-0.0818 0.0255,-0.019 0.0583,-0.0281 0.0923,-0.0228 h 0.0157 c -0.0262,-0.0104 -0.0526,-0.0314 -0.0683,-0.0575 l -0.0994,-0.17266 c -0.0104,-0.0183 -0.0157,-0.0406 -0.0157,-0.0628 0,-0.0222 0.005,-0.0445 0.0157,-0.0628 l 0.0994,-0.17286 c 0.013,-0.0183 0.0289,-0.0339 0.0472,-0.045 0.0183,-0.0111 0.0393,-0.0178 0.0628,-0.0178 h 0.19891 c 0.0236,0 0.0456,0.007 0.0646,0.0178 0.019,0.0111 0.0348,0.0267 0.0452,0.045 l 0.0994,0.17286 c 0.0157,0.0262 0.021,0.0574 0.0157,0.0889 l 0.005,-0.0105 c 0.0131,-0.0314 0.038,-0.0548 0.0674,-0.0673 0.0294,-0.0124 0.0635,-0.0138 0.0949,-7.8e-4 0.0314,0.013 0.0548,0.038 0.0672,0.0675 0.0124,0.0294 0.0137,0.0633 7.8e-4,0.0947 l -0.14136,0.36126 0.31927,0.55473 0.12055,-0.44487 c -0.0445,-0.008 -0.0864,-0.0235 -0.12237,-0.047 -0.036,-0.0236 -0.0661,-0.055 -0.087,-0.0943 -0.0183,-0.0314 -0.0302,-0.0666 -0.0347,-0.10319 -0.005,-0.0366 -0.002,-0.0746 0.008,-0.11127 0.008,-0.0366 0.0236,-0.0707 0.0458,-0.10016 0.0222,-0.0294 0.051,-0.0544 0.085,-0.0727 0.0419,-0.0209 0.089,-0.0365 0.14135,-0.0365 0.0497,0 0.098,0.0131 0.14056,0.0374 0.0425,0.0242 0.0792,0.0595 0.10541,0.104 0.0183,0.0314 0.0301,0.0653 0.0353,0.1 0.005,0.0347 0.004,0.0702 -0.004,0.10421 l -0.26172,0.96829 0.10986,0.18841 0.32451,-1.19871 c 0.008,-0.034 0.0288,-0.0602 0.0564,-0.0759 0.0275,-0.0157 0.0613,-0.0208 0.0953,-0.0129 0.034,0.008 0.0604,0.0286 0.0761,0.0561 0.0157,0.0275 0.0208,0.0617 0.0129,0.0957 l -0.36631,1.36591 c 0.0104,0.0183 0.0549,0.0916 0.1046,0.16418 0.0497,0.0726 0.1047,0.14464 0.13611,0.16034 -0.002,-0.0419 0.005,-0.0837 0.0236,-0.12036 0.0183,-0.0366 0.047,-0.0681 0.0862,-0.0891 0.0314,-0.0209 0.0682,-0.0313 0.11006,-0.0313 0.0392,0 0.0771,0.0105 0.11046,0.0295 0.0333,0.019 0.0623,0.0463 0.0832,0.0804 0.0131,0.0261 0.0221,0.055 0.0261,0.0844 0.004,0.0294 0.003,0.0595 -0.005,0.0882 -0.005,0.0209 -0.0156,0.0418 -0.0261,0.0575 l 0.26151,1.27202 0.61774,1.07289 v -1.20898 l -0.32431,-0.80089 c -0.0314,-0.0183 -0.0576,-0.0443 -0.0759,-0.0757 -0.0183,-0.0314 -0.0287,-0.0682 -0.0287,-0.10743 0,-0.0301 0.006,-0.0584 0.0166,-0.0842 0.0107,-0.0258 0.0263,-0.049 0.0456,-0.0683 0.0193,-0.0193 0.0423,-0.0347 0.068,-0.0454 0.0258,-0.0108 0.0541,-0.0166 0.0842,-0.0166 0.0367,0 0.072,0.0104 0.10279,0.0281 0.0307,0.0177 0.057,0.0425 0.0753,0.0713 0.0105,-0.0209 0.0169,-0.13201 0.0208,-0.24192 0.004,-0.10992 0.005,-0.21875 0.005,-0.23445 l -0.89499,-0.89499 c -0.0236,-0.0262 -0.0353,-0.0588 -0.0353,-0.0909 0,-0.032 0.0118,-0.0635 0.0353,-0.087 0.0261,-0.0236 0.0588,-0.0353 0.0909,-0.0353 0.0321,0 0.0635,0.0118 0.087,0.0353 l 0.72233,0.72233 v -0.1569 l -0.59147,-0.59148 c -0.0236,-0.0236 -0.0419,-0.0524 -0.0543,-0.0838 -0.0124,-0.0314 -0.019,-0.0655 -0.019,-0.0996 0,-0.0367 0.008,-0.0715 0.0212,-0.10339 0.0136,-0.0319 0.0331,-0.0608 0.0573,-0.085 0.0242,-0.0242 0.0529,-0.0438 0.0848,-0.0573 0.0319,-0.0136 0.067,-0.021 0.10359,-0.021 0.0367,0 0.0717,0.007 0.1036,0.021 0.0319,0.0136 0.0606,0.0331 0.0848,0.0573 0.0242,0.0242 0.0438,0.0531 0.0573,0.085 0.0136,0.0319 0.0212,0.0668 0.0212,0.10339 0,0.0419 -0.009,0.0812 -0.0256,0.11592 -0.0164,0.0347 -0.0399,0.0647 -0.0687,0.0882 l 0.21991,0.21991 v -0.52868 l -0.22516,-0.17791 c -0.0262,-0.0236 -0.0417,-0.055 -0.0456,-0.087 -0.004,-0.032 0.004,-0.0647 0.0249,-0.0909 0.0157,-0.0209 0.0393,-0.0354 0.0648,-0.042 0.0255,-0.007 0.053,-0.005 0.0765,0.005 -0.005,-0.0104 -0.005,-0.0261 -0.005,-0.0365 v -0.17791 c 0,-0.0236 0.007,-0.0459 0.0178,-0.0648 0.0111,-0.019 0.0269,-0.0348 0.0452,-0.0452 l 0.047,-0.0261 v -0.20416 c -0.0366,0.0406 -0.0769,0.0765 -0.12075,0.10784 -0.0438,0.0313 -0.0913,0.0581 -0.14237,0.08 -0.051,0.0219 -0.10555,0.0392 -0.16378,0.0515 -0.0582,0.0123 -0.12015,0.0198 -0.18557,0.0224 h -0.005 c -0.0222,0.002 -0.0435,-0.002 -0.063,-0.01 -0.0195,-0.007 -0.037,-0.0188 -0.0521,-0.0331 -0.0301,-0.0288 -0.0497,-0.0694 -0.0523,-0.11389 -0.003,-0.0445 0.0131,-0.0865 0.0412,-0.11793 0.0141,-0.0157 0.0313,-0.0287 0.0509,-0.0382 0.0195,-0.01 0.0415,-0.0153 0.065,-0.0166 0.0864,-0.002 0.16089,-0.017 0.22435,-0.0432 0.0635,-0.0261 0.11565,-0.0642 0.15752,-0.11389 0.0275,-0.0327 0.0488,-0.069 0.0652,-0.10642 0.0165,-0.0374 0.0282,-0.0762 0.0363,-0.11349 0.0164,-0.0746 0.019,-0.14392 0.019,-0.18841 l -1.811,-1.81604 c -0.0157,-0.0157 -0.0275,-0.0344 -0.0353,-0.0545 -0.008,-0.0201 -0.0117,-0.0416 -0.0117,-0.0632 0,-0.0216 0.004,-0.0433 0.0117,-0.0634 0.008,-0.0201 0.0196,-0.0388 0.0353,-0.0545 0.0157,-0.0157 0.0342,-0.0275 0.0543,-0.0353 0.0201,-0.008 0.0418,-0.0117 0.0634,-0.0117 0.0216,0 0.0431,0.004 0.0632,0.0117 0.0201,0.008 0.0388,0.0196 0.0545,0.0353 l 0.83744,0.83744 0.22496,-0.34007 -0.84774,-0.85844 c -0.017,-0.0157 -0.0299,-0.0344 -0.0384,-0.0545 -0.008,-0.0201 -0.0127,-0.0416 -0.0127,-0.0632 0,-0.0216 0.004,-0.0433 0.0127,-0.0634 0.008,-0.0201 0.0214,-0.0386 0.0384,-0.0543 0.0157,-0.017 0.0344,-0.0299 0.0545,-0.0384 0.0201,-0.008 0.0416,-0.0127 0.0632,-0.0127 0.0216,0 0.0431,0.004 0.0632,0.0127 0.0201,0.008 0.0388,0.0214 0.0545,0.0384 l 0.80069,0.80594 0.40307,-0.61248 -0.65408,-0.75363 c -0.0157,-0.017 -0.0269,-0.0362 -0.0337,-0.0565 -0.007,-0.0204 -0.009,-0.0419 -0.007,-0.0632 0.003,-0.0425 0.0227,-0.0843 0.0567,-0.11571 0.017,-0.0157 0.0364,-0.0267 0.0567,-0.0335 0.0204,-0.007 0.0417,-0.009 0.063,-0.008 0.0425,0.003 0.0843,0.0229 0.11572,0.057 l 0.44507,0.51312 v -0.63873 -0.005 l -0.38207,-0.895 c -0.0104,-0.0236 -0.0157,-0.047 -0.0157,-0.0699 0,-0.0229 0.005,-0.0451 0.0157,-0.066 l 0.38207,-0.83744 c 0.008,-0.034 0.0234,-0.0643 0.0456,-0.0879 0.0222,-0.0236 0.0512,-0.0406 0.0852,-0.0485 0.0236,-0.005 0.0457,-0.005 0.0666,-0.001 z"
       id="path897"
       inkscape:connector-curvature="0" />
  </g>
</svg>
